<svg width="6" height="10" viewBox="0 0 6 10" fill="none" xmlns="http://www.w3.org/2000/svg">
<path d="M0.300859 9.7042C0.128802 9.53112 0.032228 9.29698 0.032228 9.05293C0.032228 8.80888 0.128802 8.57474 0.300858 8.40166L3.57107 5.08526L0.300857 1.81505C0.128801 1.64197 0.0322268 1.40783 0.0322267 1.16378C0.0322267 0.919731 0.128801 0.685596 0.300857 0.512513C0.386735 0.425927 0.488907 0.357203 0.601479 0.310303C0.714051 0.263404 0.834795 0.239258 0.956746 0.239258C1.0787 0.239258 1.19944 0.263404 1.31201 0.310303C1.42459 0.357202 1.52676 0.425927 1.61264 0.512512L5.52949 4.42937C5.61608 4.51525 5.6848 4.61742 5.7317 4.72999C5.7786 4.84256 5.80275 4.96331 5.80275 5.08526C5.80275 5.20721 5.7786 5.32795 5.7317 5.44053C5.6848 5.5531 5.61608 5.65527 5.5295 5.74115L1.61264 9.7042C1.52676 9.79078 1.42459 9.85951 1.31202 9.90641C1.19944 9.95331 1.0787 9.97745 0.956748 9.97745C0.834797 9.97745 0.714053 9.95331 0.601481 9.90641C0.488908 9.85951 0.386737 9.79078 0.300859 9.7042Z" fill="#B0AEAE"/>
</svg>
