<svg width="238" height="132" viewBox="0 0 238 132" fill="none" xmlns="http://www.w3.org/2000/svg">
<g opacity="0.5">
<g clip-path="url(#clip0_2043_2058)">
<path d="M47.702 113.109C44.4769 114.116 41.472 114.253 38.6873 113.52C35.9125 112.768 33.4988 111.292 31.4463 109.092C29.3938 106.891 27.8457 104.121 26.802 100.78C25.7448 97.3961 25.4481 94.2108 25.912 91.2245C26.3715 88.2237 27.53 85.6315 29.3876 83.4479C31.2452 81.2644 33.7432 79.6823 36.8814 78.7019C39.4123 77.9112 41.8153 77.6764 44.0903 77.9975C46.3607 78.3041 48.3655 79.1064 50.1044 80.4045C51.8578 81.6981 53.2003 83.4295 54.132 85.5989L47.8193 87.571C46.9842 86.1176 45.7686 85.0211 44.1725 84.2816C42.5908 83.5376 40.7659 83.4886 38.6978 84.1347C36.89 84.6995 35.4555 85.6715 34.3942 87.0507C33.3429 88.4109 32.7146 90.0835 32.5093 92.0683C32.2994 94.0387 32.565 96.2098 33.306 98.5816C34.065 101.011 35.0889 102.993 36.3777 104.527C37.6665 106.061 39.1347 107.102 40.7824 107.651C42.4446 108.195 44.194 108.181 46.0307 107.607C47.26 107.223 48.3036 106.651 49.1614 105.891C50.0292 105.112 50.6696 104.189 51.0828 103.124C51.5104 102.053 51.6741 100.875 51.5739 99.5891L57.8866 97.6169C58.3284 99.8441 58.2279 101.987 57.5851 104.045C56.9423 106.103 55.7888 107.924 54.1247 109.507C52.475 111.086 50.3341 112.286 47.702 113.109ZM60.7233 59.5386L74.6031 103.966L68.1168 105.993L54.237 61.565L60.7233 59.5386ZM97.5748 97.528C94.451 98.5039 91.5012 98.6397 88.7255 97.9353C85.9498 97.231 83.5163 95.7928 81.4249 93.6206C79.3335 91.4485 77.7502 88.6414 76.6749 85.1994C75.595 81.7429 75.2943 78.5193 75.7727 75.5284C76.2511 72.5376 77.4308 69.9626 79.3119 67.8034C81.1931 65.6442 83.6955 64.0767 86.8194 63.1007C89.9432 62.1248 92.893 61.989 95.6687 62.6934C98.4444 63.3977 100.88 64.8432 102.976 67.0298C105.072 69.2164 106.66 72.0379 107.74 75.4944C108.815 78.9364 109.111 82.1456 108.628 85.122C108.145 88.0983 106.963 90.6661 105.082 92.8253C103.201 94.9845 100.699 96.552 97.5748 97.528ZM95.8954 92.0762C97.9201 91.4436 99.4306 90.3844 100.427 88.8985C101.423 87.4127 101.961 85.6809 102.042 83.7033C102.137 81.7211 101.85 79.6598 101.181 77.5194C100.517 75.3935 99.582 73.5427 98.3754 71.9672C97.1789 70.3727 95.7459 69.2409 94.0765 68.5719C92.4071 67.903 90.5601 67.8847 88.5354 68.5173C86.4962 69.1543 84.9735 70.2253 83.9674 71.7301C82.9758 73.2305 82.4347 74.979 82.3441 76.9756C82.2635 78.9532 82.5553 81.005 83.2195 83.131C83.8882 85.2714 84.8185 87.1316 86.0106 88.7116C87.2171 90.2872 88.6528 91.4022 90.3177 92.0567C91.997 92.7067 93.8563 92.7132 95.8954 92.0762ZM137.238 56.7546L131.684 59.6325C131.203 58.9573 130.589 58.3634 129.842 57.8508C129.109 57.3338 128.226 56.9984 127.194 56.8446C126.162 56.6909 124.973 56.8241 123.628 57.2443C121.792 57.8181 120.387 58.7092 119.416 59.9176C118.439 61.1115 118.152 62.352 118.554 63.6392C118.902 64.7528 119.595 65.5206 120.631 65.9428C121.668 66.365 123.172 66.5061 125.145 66.3662L130.817 65.9274C134.105 65.6782 136.731 66.0562 138.696 67.0615C140.661 68.0667 142.011 69.748 142.748 72.1054C143.371 74.1011 143.349 76.0607 142.68 77.9841C142.021 79.8885 140.802 81.6025 139.024 83.1263C137.26 84.6456 135.034 85.8254 132.344 86.6658C128.612 87.8314 125.32 87.9871 122.465 87.1327C119.607 86.2639 117.449 84.4379 115.992 81.6548L121.963 78.7417C122.864 80.2539 124.053 81.2396 125.53 81.6989C127.002 82.1437 128.715 82.0612 130.667 81.4512C132.793 80.7871 134.354 79.8151 135.352 78.5353C136.344 77.241 136.639 75.9504 136.237 74.6632C135.912 73.6219 135.248 72.869 134.246 72.4043C133.258 71.9351 131.912 71.7682 130.208 71.9037L124.182 72.4292C120.851 72.692 118.199 72.2823 116.226 71.2003C114.267 70.1137 112.918 68.3845 112.177 66.0127C111.562 64.0458 111.574 62.1531 112.212 60.3346C112.851 58.5161 114.01 56.8919 115.69 55.4621C117.366 54.0179 119.455 52.905 121.957 52.1233C125.558 50.9983 128.637 50.8937 131.193 51.8095C133.744 52.7109 135.759 54.3592 137.238 56.7546ZM167.46 75.6951C164.177 76.7207 161.13 76.9026 158.32 76.2408C155.52 75.5599 153.077 74.1407 150.99 71.983C148.913 69.8063 147.335 66.9897 146.255 63.5333C145.188 60.1202 144.885 56.9133 145.344 53.9125C145.818 50.9072 146.977 48.315 148.82 46.1359C150.678 43.9523 153.154 42.3771 156.249 41.4102C158.129 40.8229 160.048 40.5645 162.007 40.6352C163.965 40.7058 165.854 41.1873 167.673 42.0795C169.491 42.9718 171.137 44.3544 172.611 46.2273C174.081 48.0858 175.288 50.5263 176.232 53.5489L176.951 55.8484L150.463 64.1234L148.945 59.2641L169.076 52.9748C168.543 51.2683 167.724 49.8654 166.619 48.7662C165.509 47.6526 164.205 46.9091 162.707 46.5356C161.224 46.1577 159.644 46.2308 157.966 46.7549C156.144 47.3242 154.693 48.2695 153.614 49.5909C152.544 50.8933 151.865 52.3755 151.574 54.0377C151.294 55.6809 151.414 57.3341 151.933 58.9973L153.119 62.7936C153.815 65.0207 154.797 66.7933 156.066 68.1112C157.35 69.4247 158.829 70.2721 160.504 70.6537C162.174 71.0208 163.956 70.9084 165.851 70.3166C167.08 69.9325 168.147 69.4088 169.051 68.7454C169.95 68.0676 170.658 67.2592 171.174 66.3201C171.69 65.381 171.981 64.3299 172.046 63.1666L178.531 62.355C178.604 64.3164 178.216 66.1756 177.368 67.9326C176.53 69.6707 175.274 71.2139 173.6 72.5624C171.936 73.8918 169.889 74.9361 167.46 75.6951ZM201.419 65.062C198.729 65.9024 196.114 65.9654 193.573 65.2512C191.042 64.5179 188.777 63.0589 186.777 60.8741C184.787 58.6703 183.229 55.7679 182.104 52.1668C180.979 48.5657 180.617 45.2978 181.018 42.363C181.433 39.4236 182.484 36.9444 184.17 34.9253C185.857 32.9062 188.038 31.4788 190.714 30.6429C192.782 29.9968 194.554 29.8243 196.029 30.1254C197.514 30.4075 198.746 30.8957 199.724 31.59C200.718 32.2797 201.518 32.9107 202.125 33.4829L202.516 33.3609L197.358 16.8523L203.845 14.8259L217.724 59.2537L211.39 61.2327L209.77 56.048L209.228 56.2174C209.059 57.048 208.748 58.0341 208.295 59.1757C207.856 60.3127 207.107 61.4199 206.047 62.4972C204.986 63.5745 203.444 64.4294 201.419 65.062ZM201.123 59.0829C202.988 58.5001 204.411 57.5159 205.391 56.1303C206.381 54.7258 206.933 53.0374 207.047 51.0652C207.175 49.0885 206.874 46.9287 206.142 44.5858C205.419 42.2718 204.454 40.3511 203.246 38.8234C202.039 37.2958 200.64 36.2486 199.05 35.6817C197.46 35.1149 195.718 35.1274 193.824 35.7193C191.871 36.3292 190.402 37.3437 189.417 38.7627C188.432 40.1816 187.88 41.87 187.761 43.8278C187.657 45.781 187.948 47.8568 188.635 50.055C189.331 52.2822 190.289 54.1813 191.51 55.7523C192.731 57.3233 194.155 58.4261 195.782 59.0608C197.419 59.6764 199.199 59.6838 201.123 59.0829Z" fill="#C32B43"/>
</g>
<rect x="1.09315" y="54.1191" width="218" height="93" rx="3.5" transform="rotate(-17.3494 1.09315 54.1191)" stroke="#C32B43" stroke-dasharray="2 2"/>
</g>
<defs>
<clipPath id="clip0_2043_2058">
<rect x="0.466797" y="53.791" width="219" height="94" rx="4" transform="rotate(-17.3494 0.466797 53.791)" fill="white"/>
</clipPath>
</defs>
</svg>
