<svg width="40" height="40" viewBox="0 0 40 40" fill="none" xmlns="http://www.w3.org/2000/svg">
<path d="M11.9479 36.6526H28.9365C33.4106 36.6526 35.1938 33.913 35.4045 30.5737L36.2475 17.1838C36.4744 13.6823 33.6862 10.7158 30.1685 10.7158C29.1797 10.7158 28.2719 10.1484 27.818 9.27304L26.6509 6.92251C25.9052 5.44736 23.9599 4.23157 22.3064 4.23157H18.5942C16.9245 4.23157 14.9793 5.44736 14.2336 6.92251L13.0664 9.27304C12.6125 10.1484 11.7047 10.7158 10.7159 10.7158C7.19822 10.7158 4.41001 13.6823 4.63696 17.1838L5.47991 30.5737C5.67443 33.913 7.4738 36.6526 11.9479 36.6526Z" stroke="#C8C8C8" stroke-width="2.43158" stroke-linecap="round" stroke-linejoin="round"/>
<path d="M18.0103 13.9579H22.8734" stroke="#C8C8C8" stroke-width="2.43158" stroke-linecap="round" stroke-linejoin="round"/>
<path d="M20.4418 30.1684C23.3434 30.1684 25.7102 27.8016 25.7102 24.9C25.7102 21.9983 23.3434 19.6315 20.4418 19.6315C17.5401 19.6315 15.1733 21.9983 15.1733 24.9C15.1733 27.8016 17.5401 30.1684 20.4418 30.1684Z" stroke="#C8C8C8" stroke-width="2.43158" stroke-linecap="round" stroke-linejoin="round"/>
</svg>
