<svg width="260" height="260" viewBox="0 0 260 260" fill="none" xmlns="http://www.w3.org/2000/svg">
<path d="M229.189 174.246L231.967 172.257L220.361 156.053L217.584 158.042L229.189 174.246Z" fill="#C7C7C7"/>
<path d="M234.379 183.014L238.581 180.008L230.474 168.688L226.272 171.699L234.379 183.014Z" fill="#A6A6A6"/>
<path d="M205.79 160.056C202.855 159.128 200.261 157.351 198.336 154.949C196.411 152.547 195.241 149.628 194.975 146.561C194.709 143.495 195.358 140.418 196.841 137.721C198.323 135.023 200.572 132.825 203.304 131.406C206.035 129.987 209.126 129.409 212.185 129.746C215.245 130.083 218.136 131.32 220.493 133.3C222.849 135.28 224.566 137.915 225.425 140.87C226.285 143.826 226.248 146.97 225.321 149.905C224.069 153.836 221.311 157.11 217.651 159.013C213.99 160.915 209.726 161.29 205.79 160.056ZM206.31 158.35C208.908 159.172 211.693 159.204 214.31 158.444C216.927 157.683 219.26 156.163 221.014 154.077C222.767 151.99 223.862 149.43 224.161 146.721C224.46 144.012 223.948 141.275 222.691 138.857C221.434 136.438 219.489 134.447 217.1 133.134C214.711 131.822 211.987 131.247 209.272 131.483C206.556 131.719 203.972 132.755 201.845 134.459C199.718 136.164 198.145 138.461 197.324 141.06C196.227 144.547 196.559 148.326 198.246 151.568C199.934 154.81 202.84 157.249 206.325 158.35H206.31Z" fill="#DBDBDB"/>
<path d="M226.376 143.145C226.904 147.133 225.917 151.173 223.612 154.468C221.307 157.764 217.851 160.076 213.924 160.949C209.998 161.821 205.888 161.19 202.404 159.181C198.92 157.172 196.315 153.929 195.104 150.094C193.894 146.259 194.164 142.109 195.862 138.463C197.561 134.818 200.564 131.941 204.279 130.401C207.995 128.86 212.152 128.768 215.932 130.143C219.712 131.518 222.839 134.259 224.697 137.826C225.564 139.487 226.132 141.288 226.376 143.145ZM195.52 147.16C195.776 149.126 196.417 151.023 197.406 152.741C198.395 154.46 199.713 155.967 201.284 157.176C202.856 158.386 204.65 159.274 206.565 159.79C208.479 160.306 210.477 160.439 212.443 160.183C214.409 159.927 216.306 159.286 218.025 158.297C219.743 157.308 221.25 155.99 222.46 154.419C223.669 152.847 224.557 151.053 225.073 149.138C225.589 147.224 225.723 145.226 225.466 143.26C225.041 139.838 223.455 136.665 220.974 134.271C218.493 131.876 215.266 130.404 211.832 130.1C208.397 129.796 204.962 130.678 202.098 132.6C199.235 134.521 197.117 137.366 196.097 140.66C195.428 142.758 195.231 144.977 195.52 147.16ZM224.64 143.369C224.947 145.743 224.652 148.156 223.781 150.385C222.91 152.615 221.491 154.589 219.655 156.125C217.82 157.662 215.627 158.711 213.279 159.176C210.931 159.641 208.504 159.507 206.221 158.787C203.986 158.083 201.959 156.839 200.321 155.164C198.682 153.489 197.481 151.436 196.826 149.186C196.17 146.937 196.08 144.56 196.563 142.267C197.046 139.974 198.087 137.836 199.594 136.041C201.101 134.247 203.027 132.852 205.203 131.981C207.378 131.109 209.734 130.788 212.063 131.045C214.392 131.303 216.622 132.13 218.555 133.456C220.487 134.781 222.063 136.562 223.142 138.642C223.9 140.123 224.397 141.724 224.608 143.374L224.64 143.369ZM206.497 157.903C209.438 158.835 212.611 158.719 215.476 157.573C218.341 156.427 220.719 154.324 222.207 151.62C223.694 148.917 224.198 145.782 223.632 142.749C223.066 139.716 221.466 136.973 219.105 134.988C216.743 133.002 213.766 131.897 210.681 131.861C207.596 131.825 204.594 132.86 202.186 134.79C199.779 136.72 198.115 139.425 197.479 142.444C196.843 145.462 197.273 148.609 198.697 151.346C200.326 154.478 203.131 156.837 206.497 157.903Z" fill="#DBDBDB"/>
<g opacity="0.2">
<path d="M197.417 143.057C196.993 145.64 197.345 148.291 198.427 150.675C199.51 153.058 201.275 155.067 203.499 156.448C205.724 157.829 208.307 158.519 210.924 158.431C213.54 158.344 216.072 157.483 218.199 155.957C220.326 154.43 221.953 152.308 222.874 149.858C223.795 147.407 223.969 144.738 223.374 142.189C222.779 139.64 221.441 137.324 219.53 135.535C217.619 133.746 215.22 132.563 212.637 132.137C210.921 131.854 209.165 131.912 207.471 132.307C205.777 132.703 204.177 133.428 202.764 134.443C201.35 135.457 200.15 136.74 199.233 138.218C198.315 139.696 197.698 141.34 197.417 143.057Z" fill="white"/>
<path d="M197.333 146.801C197.754 150.266 199.525 153.426 202.262 155.593C204.999 157.76 208.48 158.76 211.95 158.376L197.333 146.801Z" fill="#EBEBEB"/>
<path d="M202.647 134.539L222.667 150.394C223.078 149.426 223.372 148.411 223.541 147.373C223.745 146.184 223.778 144.973 223.64 143.775L208.861 132.08C206.613 132.353 204.473 133.2 202.647 134.539Z" fill="#EBEBEB"/>
<path d="M197.697 141.762L216.771 156.868C217.532 156.451 218.253 155.963 218.924 155.412L198.638 139.36C198.244 140.127 197.929 140.931 197.697 141.762Z" fill="#EBEBEB"/>
<path d="M201.265 135.72L221.846 152.022L222.085 151.606L201.613 135.392C201.493 135.486 201.374 135.595 201.265 135.72Z" fill="#EBEBEB"/>
<path d="M213.292 132.272L222.428 139.505C222.257 139.152 222.07 138.798 221.867 138.465L214.436 132.6C214.067 132.459 213.682 132.355 213.292 132.272Z" fill="#EBEBEB"/>
</g>
<path d="M206.688 155.209C205.31 154.733 204.045 153.979 202.97 152.994C202.421 152.503 201.923 151.957 201.483 151.367C201.043 150.769 200.662 150.129 200.344 149.458C199.725 148.109 199.401 146.643 199.393 145.158C199.39 143.707 199.664 142.269 200.199 140.92C200.028 142.319 200.001 143.732 200.121 145.137C200.19 145.822 200.315 146.5 200.495 147.165C200.665 147.828 200.896 148.474 201.187 149.094C201.772 150.34 202.546 151.489 203.48 152.5C204.438 153.528 205.515 154.437 206.688 155.209Z" fill="white"/>
<path d="M233.209 123.635L236.074 119.017L234.66 118.144C234.458 118.016 234.294 117.835 234.189 117.62C234.083 117.405 234.039 117.165 234.062 116.927C234.062 116.657 234.093 116.407 234.088 116.116C234.078 115.878 234.136 115.641 234.255 115.434C234.374 115.227 234.548 115.058 234.759 114.946L236.225 114.161L233.656 109.371L232.19 110.157C231.98 110.27 231.742 110.321 231.504 110.305C231.266 110.29 231.037 110.208 230.843 110.068C230.62 109.917 230.391 109.772 230.152 109.642C229.941 109.529 229.766 109.359 229.646 109.153C229.526 108.947 229.465 108.711 229.47 108.472L229.528 106.808L224.12 106.641L224.068 108.311C224.058 108.549 223.983 108.781 223.85 108.979C223.716 109.177 223.531 109.335 223.314 109.434L222.955 109.611L222.606 109.808C222.404 109.935 222.171 110.002 221.933 110.002C221.695 110.002 221.461 109.935 221.26 109.808L219.835 108.929L216.975 113.542L218.389 114.421C218.592 114.548 218.755 114.73 218.86 114.945C218.966 115.159 219.01 115.399 218.987 115.637C218.972 115.906 218.972 116.175 218.987 116.443C218.994 116.683 218.935 116.919 218.815 117.127C218.696 117.334 218.521 117.504 218.311 117.619L216.845 118.404L219.414 123.188L220.88 122.403C221.09 122.291 221.328 122.24 221.566 122.256C221.804 122.271 222.033 122.353 222.227 122.491C222.448 122.643 222.677 122.784 222.913 122.912C223.124 123.026 223.3 123.196 223.42 123.403C223.54 123.611 223.601 123.848 223.594 124.087L223.548 125.751L228.971 125.918L229.023 124.254C229.034 124.016 229.111 123.785 229.245 123.587C229.379 123.39 229.565 123.234 229.782 123.136L230.141 122.954L230.49 122.756C230.692 122.63 230.927 122.563 231.166 122.563C231.404 122.563 231.639 122.63 231.842 122.756L233.209 123.635ZM228.612 120.208C227.837 120.622 226.956 120.797 226.081 120.711C225.206 120.624 224.377 120.28 223.697 119.723C223.018 119.165 222.519 118.418 222.264 117.577C222.009 116.736 222.009 115.838 222.264 114.997C222.519 114.155 223.017 113.408 223.697 112.851C224.376 112.293 225.205 111.949 226.08 111.862C226.955 111.775 227.836 111.95 228.611 112.364C229.387 112.777 230.022 113.412 230.438 114.187C230.713 114.702 230.885 115.266 230.943 115.848C231 116.429 230.943 117.017 230.773 117.576C230.604 118.135 230.326 118.656 229.955 119.107C229.584 119.559 229.128 119.933 228.612 120.208Z" fill="#DBDBDB"/>
<path d="M48.8478 78.1142L46.9446 74.8174L45.941 75.3998C45.795 75.483 45.6288 75.5241 45.4608 75.5186C45.2928 75.5131 45.1297 75.4612 44.9894 75.3686C44.8218 75.2633 44.6481 75.1678 44.4694 75.0826C44.3163 75.01 44.1865 74.8961 44.0946 74.7537C44.0027 74.6113 43.9524 74.446 43.9494 74.2766V73.117H40.1898V74.2766C40.188 74.4463 40.1382 74.6121 40.0462 74.7547C39.9542 74.8973 39.8237 75.011 39.6698 75.0826C39.5034 75.171 39.337 75.2646 39.1498 75.3686C39.0106 75.4613 38.8482 75.5133 38.681 75.5188C38.5139 75.5243 38.3485 75.4831 38.2034 75.3998L37.1946 74.8174L35.359 78.1142L36.3678 78.6966C36.5122 78.7815 36.6303 78.9046 36.7092 79.0523C36.7881 79.2 36.8247 79.3666 36.815 79.5338C36.815 79.6274 36.815 79.721 36.815 79.8146C36.815 79.9082 36.815 80.0018 36.815 80.0954C36.8252 80.2621 36.7894 80.4283 36.7115 80.576C36.6335 80.7237 36.5164 80.847 36.373 80.9326L35.333 81.515L37.231 84.8118L38.2554 84.2398C38.4005 84.1565 38.5659 84.1153 38.733 84.1208C38.9002 84.1263 39.0626 84.1783 39.2018 84.271C39.3578 84.375 39.5242 84.4686 39.6906 84.557C39.8445 84.6286 39.975 84.7423 40.067 84.8849C40.159 85.0275 40.2088 85.1933 40.2106 85.363V86.5278H44.017V85.363C44.02 85.1936 44.0703 85.0283 44.1622 84.8859C44.2541 84.7435 44.3839 84.6296 44.537 84.557C44.7086 84.4686 44.8698 84.375 45.057 84.271C45.1963 84.1783 45.3586 84.1263 45.5258 84.1208C45.693 84.1153 45.8584 84.1565 46.0034 84.2398L47.0122 84.8222L48.9154 81.5254L47.839 80.9326C47.6944 80.8484 47.5763 80.7253 47.4982 80.5773C47.42 80.4293 47.385 80.2623 47.397 80.0954C47.397 80.0018 47.397 79.9082 47.397 79.8146C47.397 79.721 47.397 79.6274 47.397 79.5338C47.385 79.3669 47.42 79.1999 47.4982 79.0519C47.5763 78.9039 47.6944 78.7808 47.839 78.6966L48.8478 78.1142ZM45.2078 79.8146C45.2078 80.4317 45.0248 81.0349 44.682 81.548C44.3392 82.0611 43.8519 82.461 43.2818 82.6971C42.7117 82.9333 42.0843 82.995 41.4791 82.8747C40.8739 82.7543 40.318 82.4571 39.8816 82.0208C39.4453 81.5844 39.1481 81.0285 39.0278 80.4233C38.9074 79.8181 38.9692 79.1907 39.2053 78.6206C39.4415 78.0505 39.8413 77.5632 40.3544 77.2204C40.8675 76.8776 41.4707 76.6946 42.0878 76.6946C42.5002 76.6905 42.9092 76.7681 43.2914 76.9231C43.6735 77.078 44.0211 77.3072 44.3142 77.5973C44.6072 77.8875 44.8398 78.2328 44.9986 78.6134C45.1573 78.994 45.239 79.4022 45.239 79.8146H45.2078Z" fill="#DBDBDB"/>
<path d="M207.666 23.3322C204.736 23.3322 201.872 24.2011 199.436 25.829C196.999 27.4568 195.101 29.7706 193.979 32.4776C192.858 35.1847 192.565 38.1634 193.136 41.0372C193.708 43.911 195.119 46.5508 197.191 48.6227C199.263 50.6945 201.902 52.1055 204.776 52.6772C207.65 53.2488 210.629 52.9554 213.336 51.8341C216.043 50.7128 218.357 48.814 219.984 46.3777C221.612 43.9414 222.481 41.0771 222.481 38.147C222.482 36.2013 222.099 34.2746 221.355 32.4768C220.611 30.6791 219.519 29.0457 218.144 27.6698C216.768 26.294 215.134 25.2028 213.337 24.4585C211.539 23.7143 209.612 23.3315 207.666 23.3322ZM207.666 45.063C206.297 45.063 204.959 44.657 203.821 43.8962C202.682 43.1355 201.795 42.0542 201.272 40.7892C200.748 39.5243 200.611 38.1324 200.879 36.7896C201.146 35.4469 201.806 34.2137 202.774 33.2459C203.743 32.2782 204.976 31.6194 206.319 31.353C207.662 31.0865 209.054 31.2243 210.319 31.749C211.583 32.2736 212.664 33.1615 213.424 34.3004C214.184 35.4393 214.589 36.7779 214.588 38.147C214.588 39.0557 214.409 39.9554 214.061 40.7949C213.713 41.6343 213.203 42.3969 212.56 43.0392C211.917 43.6815 211.154 44.1908 210.315 44.5381C209.475 44.8853 208.575 45.0637 207.666 45.063Z" fill="#EBEBEB"/>
<path d="M210.517 23.9458H204.817L205.135 19.9106H210.199L210.517 23.9458Z" fill="#EBEBEB"/>
<path d="M199.669 25.8646L195.639 29.8946L193.013 26.8214L196.596 23.2386L199.669 25.8646Z" fill="#EBEBEB"/>
<path d="M193.361 34.8919V40.5911L189.326 40.2739V35.2039L193.361 34.8919Z" fill="#EBEBEB"/>
<path d="M195.28 45.7339L199.31 49.7639L196.231 52.3951L192.648 48.8123L195.28 45.7339Z" fill="#EBEBEB"/>
<path d="M204.302 52.0467H210.001L209.689 56.0819H204.619L204.302 52.0467Z" fill="#EBEBEB"/>
<path d="M215.149 50.1278L219.179 46.0978L221.805 49.171L218.223 52.7538L215.149 50.1278Z" fill="#EBEBEB"/>
<path d="M221.457 41.1007V35.4015L225.492 35.7187V40.7887L221.457 41.1007Z" fill="#EBEBEB"/>
<path d="M219.537 30.2586L215.513 26.2286L218.586 23.5974L222.169 27.1802L219.537 30.2586Z" fill="#EBEBEB"/>
<path d="M39.7582 99.2211C36.828 99.2252 33.9647 100.098 31.5303 101.729C29.0959 103.36 27.1996 105.676 26.0811 108.384C24.9626 111.092 24.6721 114.072 25.2463 116.945C25.8205 119.818 27.2336 122.457 29.307 124.528C31.3805 126.598 34.0212 128.008 36.8954 128.578C39.7696 129.148 42.7484 128.853 45.4552 127.731C48.1619 126.609 50.4753 124.709 52.1028 122.272C53.7303 119.836 54.599 116.971 54.599 114.041C54.5997 112.093 54.2161 110.164 53.4703 108.364C52.7245 106.564 51.631 104.929 50.2525 103.553C48.874 102.176 47.2375 101.085 45.4368 100.342C43.636 99.5985 41.7063 99.2177 39.7582 99.2211ZM39.7582 120.957C38.3891 120.957 37.0507 120.551 35.9124 119.79C34.7741 119.03 33.887 117.948 33.3633 116.683C32.8396 115.418 32.7029 114.026 32.9704 112.684C33.2378 111.341 33.8975 110.108 34.866 109.14C35.8345 108.172 37.0682 107.514 38.4111 107.247C39.754 106.981 41.1458 107.118 42.4104 107.643C43.675 108.168 44.7556 109.056 45.5155 110.194C46.2754 111.333 46.6804 112.672 46.6794 114.041C46.6794 114.95 46.5003 115.85 46.1524 116.689C45.8046 117.528 45.2947 118.291 44.6519 118.933C44.0091 119.576 43.2461 120.085 42.4064 120.432C41.5667 120.779 40.6669 120.958 39.7582 120.957Z" fill="#EBEBEB"/>
<path d="M42.6084 99.8346H36.9092L37.2264 95.8046H42.2912L42.6084 99.8346Z" fill="#EBEBEB"/>
<path d="M31.7605 101.759L27.7357 105.783L25.1045 102.71L28.6873 99.1274L31.7605 101.759Z" fill="#EBEBEB"/>
<path d="M25.4532 110.781V116.48L21.418 116.163V111.098L25.4532 110.781Z" fill="#EBEBEB"/>
<path d="M27.3714 121.628L31.4014 125.658L28.323 128.284L24.7402 124.701L27.3714 121.628Z" fill="#EBEBEB"/>
<path d="M36.3994 127.935H42.0934L41.7814 131.971H36.7114L36.3994 127.935Z" fill="#EBEBEB"/>
<path d="M47.2412 126.017L51.2712 121.987L53.9024 125.065L50.3144 128.648L47.2412 126.017Z" fill="#EBEBEB"/>
<path d="M53.5537 116.995V111.295L57.5837 111.607V116.677L53.5537 116.995Z" fill="#EBEBEB"/>
<path d="M51.6355 106.147L47.6055 102.117L50.6787 99.4915L54.2615 103.074L51.6355 106.147Z" fill="#EBEBEB"/>
<path d="M24.2275 237.281L50.6695 237.151L77.1115 237.104L130.001 237.021L182.885 237.104L209.332 237.151L235.774 237.281L209.332 237.406L182.885 237.453L130.001 237.536L77.1115 237.453L50.6695 237.406L24.2275 237.281Z" fill="#263238"/>
<path d="M234.915 186.815C228.02 196.175 220.829 206.997 219.076 218.712C219.076 218.889 219.341 218.946 219.378 218.769C220.173 215.581 221.193 212.453 222.43 209.409C226.965 208.167 231.416 207.137 233.797 202.649C236.226 198.021 235.919 191.989 235.456 186.951C235.425 186.649 235.04 186.633 234.915 186.815Z" fill="#123512"/>
<path d="M222.497 209.305C225.617 202.348 229.574 195.369 234.629 189.649C234.665 189.613 234.717 189.649 234.686 189.707C231.373 193.778 228.862 198.214 226.402 202.707C228.685 200.387 231.191 198.307 233.355 195.853C233.396 195.801 233.464 195.853 233.422 195.921C231.275 198.521 228.929 201.297 226.142 203.201C225.388 204.584 224.634 205.977 223.865 207.361C224.052 207.251 224.249 207.158 224.442 207.064C224.473 207.064 224.504 207.101 224.473 207.116C224.255 207.225 224.047 207.335 223.828 207.428C223.464 208.089 223.1 208.744 222.731 209.399C222.637 209.56 222.435 209.451 222.497 209.305Z" fill="#263238"/>
<path d="M224.801 206.877C226.658 205.832 228.43 204.643 230.1 203.32C230.142 203.284 230.209 203.32 230.162 203.388C228.545 204.786 226.772 205.993 224.879 206.986C224.796 207.054 224.718 206.924 224.801 206.877Z" fill="#263238"/>
<path d="M218.28 216.97C218.28 217.111 218.535 217.111 218.53 216.97C218.566 213.112 218.53 209.238 218.592 205.359C219.58 203.367 221.712 202.265 223.174 200.679C224.235 199.512 225.16 198.228 225.93 196.851C227.709 193.542 228.794 189.904 229.117 186.16C229.528 182.037 227.963 168.418 226.221 168.891C225.321 169.135 222.399 175.88 221.624 178.111C220.369 181.788 219.45 185.572 218.878 189.415C217.469 198.51 217.589 207.834 218.28 216.97Z" fill="#123512"/>
<path d="M218.249 200.33C218.457 195.447 219.559 190.518 220.589 185.77C221.697 180.669 222.991 175.89 225.617 171.319C225.664 171.236 225.789 171.319 225.747 171.392C223.996 174.931 222.641 178.652 221.707 182.489C221.884 182.213 222.097 181.969 222.279 181.693C222.352 181.589 222.518 181.693 222.451 181.792C222.215 182.203 221.939 182.589 221.629 182.947C221.623 182.949 221.617 182.95 221.611 182.95C221.604 182.95 221.598 182.949 221.593 182.947C220.693 186.587 220.033 190.32 219.487 194.043L219.611 193.898C219.637 193.867 219.689 193.898 219.669 193.939C219.601 194.064 219.523 194.189 219.445 194.309C219.169 196.196 218.925 198.084 218.649 199.951C222.009 197.075 224.889 193.711 226.496 189.519C226.496 189.519 226.538 189.519 226.527 189.519C224.941 193.851 222.445 197.699 218.592 200.325C218.525 200.845 218.452 201.329 218.379 201.828C218.379 201.937 218.202 201.906 218.202 201.828C218.202 201.381 218.202 200.939 218.244 200.491C218.231 200.482 218.221 200.469 218.214 200.455C218.207 200.441 218.204 200.425 218.205 200.409C218.205 200.394 218.209 200.378 218.217 200.364C218.225 200.351 218.236 200.339 218.249 200.33Z" fill="#263238"/>
<path d="M219.834 193.258C222.403 189.421 224.8 185.697 226.682 181.459C226.682 181.413 226.781 181.459 226.766 181.496C225.206 185.708 222.964 189.972 219.959 193.357C219.902 193.44 219.782 193.336 219.834 193.258Z" fill="#263238"/>
<path d="M223.246 180.513C224.312 178.631 225.435 176.8 226.434 174.881C226.465 174.824 226.538 174.881 226.517 174.928C225.688 176.931 224.642 178.837 223.397 180.612C223.34 180.705 223.184 180.622 223.246 180.513Z" fill="#263238"/>
<path d="M215.664 205.816C215.614 208.372 215.311 210.917 214.76 213.413C214.801 213.689 214.838 213.965 214.879 214.245C215.666 211.486 216.124 208.642 216.242 205.775C216.263 205.735 216.275 205.69 216.275 205.645C216.275 205.599 216.263 205.554 216.242 205.515C216.35 201.67 216.064 197.824 215.389 194.038C214.193 186.945 211.582 180.144 206.637 174.829C206.596 174.795 206.548 174.77 206.496 174.756C206.443 174.743 206.389 174.742 206.336 174.753C206.284 174.764 206.234 174.787 206.192 174.82C206.149 174.853 206.115 174.895 206.091 174.944C204.1 180.014 204.796 186.067 206.492 191.131C207.418 193.87 208.739 196.46 210.412 198.817C212.128 201.193 214.286 203.211 215.664 205.816Z" fill="#123512"/>
<path d="M207.24 177.195C211.92 184.798 215.186 193.835 215.56 202.8C215.56 202.956 215.3 202.998 215.274 202.837C215.165 202.031 215.04 201.23 214.91 200.434C212.971 198.578 210.979 196.617 209.591 194.298C209.591 194.257 209.627 194.21 209.658 194.246C211.348 196.175 212.919 198.151 214.822 199.867C214.475 197.881 214.075 195.926 213.621 194.002L213.252 193.565C213.168 193.471 213.304 193.331 213.387 193.425L213.501 193.549C212.839 190.912 212.021 188.316 211.052 185.775C209.856 184.351 208.525 183.118 207.656 181.407C207.653 181.399 207.653 181.39 207.655 181.382C207.658 181.373 207.664 181.366 207.672 181.362C207.679 181.357 207.688 181.356 207.697 181.357C207.706 181.359 207.713 181.364 207.719 181.371C208.416 182.349 209.092 183.337 209.887 184.247C210.199 184.611 210.548 184.949 210.875 185.287C209.801 182.541 208.525 179.878 207.058 177.32C207.042 177.296 207.036 177.266 207.041 177.238C207.046 177.209 207.063 177.183 207.087 177.167C207.111 177.15 207.141 177.144 207.17 177.149C207.198 177.155 207.224 177.171 207.24 177.195Z" fill="#263238"/>
<path d="M208.187 186.576C209.7 188.615 211.427 190.559 212.836 192.665C212.877 192.723 212.789 192.785 212.737 192.738C210.927 191.043 209.399 188.724 208.088 186.633C208.047 186.566 208.145 186.514 208.187 186.576Z" fill="#263238"/>
<path d="M213.049 193.139L213.111 193.201C213.158 193.248 213.085 193.315 213.043 193.269L212.976 193.206C212.971 193.196 212.97 193.185 212.972 193.174C212.974 193.163 212.979 193.153 212.987 193.146C212.995 193.138 213.006 193.133 213.017 193.132C213.028 193.131 213.039 193.133 213.049 193.139Z" fill="#263238"/>
<path d="M199.898 191.813C200.272 195.723 202.331 200.398 204.843 203.414C205.948 204.721 207.314 205.783 208.852 206.534C210.589 207.392 212.409 208.38 214.203 209.087C215.057 211.261 215.693 213.515 216.101 215.816L216.273 215.218C215.118 205.338 208.712 196.846 200.511 191.412C200.446 191.37 200.37 191.347 200.293 191.347C200.215 191.347 200.139 191.37 200.074 191.412C200.009 191.455 199.958 191.515 199.927 191.586C199.895 191.657 199.885 191.736 199.898 191.813Z" fill="#123512"/>
<path d="M202.732 194.74C202.675 194.688 202.732 194.584 202.815 194.631C207.32 197.981 210.911 202.408 213.262 207.506C213.324 207.641 213.137 207.761 213.059 207.626C212.678 206.96 212.29 206.308 211.894 205.671C210.022 205.317 208.254 204.001 206.861 202.753C206.824 202.717 206.861 202.665 206.918 202.696C207.634 203.348 208.429 203.907 209.284 204.36C210.048 204.745 210.87 204.989 211.66 205.301C210.969 204.199 210.246 203.143 209.492 202.119C207.46 201.354 205.555 200.288 203.84 198.957C203.788 198.921 203.84 198.833 203.892 198.869C205.584 199.892 207.331 200.824 209.123 201.661C207.979 200.155 206.746 198.719 205.431 197.361C204.796 197.023 204.152 196.685 203.533 196.321C203.523 196.314 203.515 196.304 203.512 196.292C203.509 196.28 203.509 196.268 203.514 196.257C203.519 196.245 203.528 196.236 203.539 196.231C203.55 196.226 203.563 196.224 203.574 196.227C204.086 196.407 204.574 196.647 205.03 196.94C204.308 196.196 203.548 195.458 202.732 194.74Z" fill="#263238"/>
<path d="M202.904 198.162C203.017 198.225 203.123 198.3 203.221 198.385C203.252 198.411 203.221 198.448 203.179 198.437C203.064 198.385 202.955 198.322 202.852 198.25C202.8 198.214 202.846 198.12 202.904 198.162Z" fill="#263238"/>
<path d="M229.07 237.281H206.601L208.415 216.819L208.811 212.306H226.855L227.255 216.819L229.07 237.281Z" fill="#455A64"/>
<path d="M227.256 216.819H208.416L208.811 212.306H226.855L227.256 216.819Z" fill="#263238"/>
<path d="M227.931 209.149H207.739V213.616H227.931V209.149Z" fill="#455A64"/>
<path d="M196.951 40.7263H47.5859V237.208H196.951V40.7263Z" fill="#37474F"/>
<path d="M212.421 117.161V40.8147L196.951 40.7991V121.534L212.421 117.161Z" fill="#37474F"/>
<path d="M209.98 39.3495L60.6777 33.2485L52.7177 228.044L202.02 234.145L209.98 39.3495Z" fill="white"/>
<path d="M202.042 234.13L52.734 228.098H52.6768V228.046L60.5548 33.2383V33.1135H60.6796L209.987 39.2651H210.081V39.3379L202.042 234.13ZM202.042 234.13L209.914 39.3327L209.982 39.4055L60.6744 33.3683L60.8044 33.2487L52.7912 228.046L52.7392 227.989L202.042 234.13Z" fill="#263238"/>
<path d="M202.207 229.498L52.9043 223.397L52.7145 228.042L202.017 234.143L202.207 229.498Z" fill="#123512"/>
<path opacity="0.3" d="M76.6302 38.5542L65.8232 38.1126L61.922 133.583L72.729 134.025L76.6302 38.5542Z" fill="#123512"/>
<path opacity="0.3" d="M200.78 133.852L189.973 133.411L186.071 228.881L196.878 229.323L200.78 133.852Z" fill="#123512"/>
<path d="M209.979 39.3518L60.6768 33.2508L60.487 37.8957L209.79 43.9967L209.979 39.3518Z" fill="#123512"/>
<path d="M127.533 52.4314L70.8955 50.117L67.9913 121.189L124.629 123.503L127.533 52.4314Z" fill="#DBDBDB"/>
<path d="M159.262 53.4239L134.286 52.4033L134.217 54.0971L159.192 55.1177L159.262 53.4239Z" fill="#455A64"/>
<path d="M92.4326 128.612L67.457 127.591L67.3834 129.394L92.3589 130.415L92.4326 128.612Z" fill="#455A64"/>
<path d="M89.6035 197.973L64.6279 196.953L64.5587 198.646L89.5343 199.667L89.6035 197.973Z" fill="#455A64"/>
<path d="M90.7158 170.7L65.7402 169.679L65.671 171.373L90.6466 172.394L90.7158 170.7Z" fill="#455A64"/>
<path d="M134.041 58.4531C137.91 58.5363 141.779 58.6559 145.647 58.7859L157.254 59.2123L168.855 59.7323C172.724 59.9195 176.587 60.1119 180.451 60.3459C176.582 60.2679 172.713 60.1483 168.845 60.0183L157.238 59.5867L145.637 59.0667C141.773 58.8847 137.905 58.6923 134.041 58.4531Z" fill="#A6A6A6"/>
<path d="M133.948 60.7619C137.817 60.8451 141.686 60.9647 145.555 61.0947L157.161 61.5211L168.762 62.0411C172.631 62.2283 176.495 62.4207 180.358 62.6547C176.489 62.5767 172.621 62.4571 168.752 62.3271L157.145 61.8799L145.544 61.3599C141.675 61.1935 137.801 60.9959 133.948 60.7619Z" fill="#A6A6A6"/>
<path d="M133.854 63.0707C137.723 63.1539 141.592 63.2735 145.461 63.4035L157.067 63.8299L168.668 64.3499C172.532 64.5371 176.401 64.7295 180.264 64.9635C176.396 64.8855 172.527 64.7607 168.658 64.6359L157.041 64.2043L145.44 63.6843C141.582 63.5023 137.718 63.3047 133.854 63.0707Z" fill="#A6A6A6"/>
<path d="M133.761 65.3795C137.63 65.4627 141.498 65.5823 145.367 65.7123L156.974 66.1387L168.575 66.6587C172.438 66.8459 176.307 67.0383 180.171 67.2723C176.302 67.1943 172.433 67.0695 168.564 66.9447L156.958 66.5131L145.357 65.9931C141.488 65.8111 137.624 65.6135 133.761 65.3795Z" fill="#A6A6A6"/>
<path d="M133.641 67.6883C135.58 67.6883 137.515 67.7351 139.449 67.7819C141.383 67.8287 143.318 67.9119 145.252 67.9743C147.187 68.0367 149.121 68.1459 151.055 68.2551C152.99 68.3643 154.919 68.4787 156.848 68.6347C154.914 68.6347 152.974 68.5931 151.04 68.5411C149.105 68.4891 147.171 68.4111 145.237 68.3487C143.302 68.2863 141.373 68.1771 139.439 68.0679C137.504 67.9587 135.596 67.8443 133.641 67.6883Z" fill="#A6A6A6"/>
<path d="M133.475 72.3059C137.349 72.3839 141.217 72.5087 145.086 72.6335L156.687 73.0651L168.289 73.5851C172.157 73.7723 176.021 73.9699 179.89 74.2039C176.016 74.1259 172.147 74.0011 168.278 73.8763L156.672 73.4447L145.071 72.9247C141.207 72.7323 137.338 72.5399 133.475 72.3059Z" fill="#A6A6A6"/>
<path d="M133.381 74.6147C137.255 74.6927 141.124 74.8175 144.992 74.9423L156.594 75.3739L168.195 75.8939C172.064 76.0811 175.927 76.2787 179.796 76.5127C175.922 76.4347 172.053 76.3099 168.184 76.1851L156.578 75.7535L144.977 75.2335C141.113 75.0411 137.244 74.8487 133.381 74.6147Z" fill="#A6A6A6"/>
<path d="M133.288 76.9235C137.157 77.0015 141.026 77.1263 144.9 77.2511L156.501 77.6827L168.102 78.2027C171.971 78.3899 175.834 78.5875 179.698 78.8215C175.829 78.7435 171.96 78.6187 168.092 78.4939L156.485 78.0623L144.884 77.5423C141.02 77.3499 137.152 77.1575 133.288 76.9235Z" fill="#A6A6A6"/>
<path d="M133.193 79.2323C137.062 79.3103 140.931 79.4351 144.8 79.5599L156.406 79.9915L168.007 80.5115C171.876 80.6987 175.74 80.8963 179.603 81.1303C175.735 81.0471 171.866 80.9275 167.997 80.8027L156.391 80.3711L144.789 79.8511C140.921 79.6587 137.057 79.4663 133.193 79.2323Z" fill="#A6A6A6"/>
<path d="M133.121 81.5411C135.055 81.5411 136.995 81.5827 138.93 81.6347C140.864 81.6867 142.798 81.7647 144.733 81.8271C146.667 81.8895 148.596 81.9987 150.531 82.1079C152.465 82.2171 154.394 82.3315 156.329 82.4875C154.389 82.4875 152.455 82.4407 150.52 82.3939C148.586 82.3471 146.651 82.2639 144.717 82.2015C142.783 82.1391 140.848 82.0299 138.914 81.9207C136.98 81.8115 135.029 81.6971 133.121 81.5411Z" fill="#A6A6A6"/>
<path d="M132.913 86.1587C136.782 86.2367 140.651 86.3563 144.519 86.4863L156.126 86.9179L167.727 87.4379C171.591 87.6251 175.459 87.8175 179.323 88.0567C175.454 87.9735 171.585 87.8539 167.717 87.7239L156.11 87.2975L144.509 86.7775C140.64 86.5851 136.761 86.3927 132.913 86.1587Z" fill="#A6A6A6"/>
<path d="M132.819 88.4623C136.688 88.5455 140.557 88.6651 144.426 88.7951L156.032 89.2267L167.633 89.7467C171.497 89.9339 175.366 90.1263 179.229 90.3655C175.361 90.2823 171.487 90.1627 167.618 90.0327L156.001 89.5959L144.4 89.0759C140.547 88.9199 136.683 88.7015 132.819 88.4623Z" fill="#A6A6A6"/>
<path d="M132.721 90.7711C136.595 90.8543 140.464 90.9739 144.332 91.1039L155.939 91.5355L167.54 92.0555C171.404 92.2427 175.272 92.4351 179.136 92.6691C175.262 92.5911 171.393 92.4715 167.524 92.3415L155.923 91.9099L144.322 91.3899C140.453 91.2027 136.59 90.9999 132.721 90.7711Z" fill="#A6A6A6"/>
<path d="M132.627 93.0799C134.567 93.0799 136.501 93.1267 138.435 93.1735C140.37 93.2203 142.304 93.3035 144.239 93.3659C146.173 93.4283 148.107 93.5375 150.037 93.6467C151.966 93.7559 153.905 93.8703 155.835 94.0263C153.895 94.0263 151.961 93.9847 150.026 93.9379C148.092 93.8911 146.157 93.8079 144.223 93.7403C142.289 93.6727 140.354 93.5739 138.425 93.4595C136.496 93.3451 134.561 93.2359 132.627 93.0799Z" fill="#A6A6A6"/>
<path d="M132.44 97.6975C136.309 97.7807 140.183 97.9003 144.052 98.0303L155.653 98.4567L167.254 98.9767C171.123 99.1639 174.987 99.3563 178.85 99.5903C174.982 99.5123 171.113 99.3875 167.244 99.2627L155.638 98.8311L144.036 98.3111C140.173 98.1291 136.304 97.9315 132.44 97.6975Z" fill="#A6A6A6"/>
<path d="M132.346 100.006C136.215 100.09 140.083 100.209 143.952 100.339L155.559 100.766L167.16 101.286C171.028 101.473 174.892 101.665 178.756 101.899C174.887 101.821 171.018 101.696 167.149 101.572L155.543 101.14L143.942 100.62C140.078 100.438 136.209 100.24 132.346 100.006Z" fill="#A6A6A6"/>
<path d="M132.253 102.315C136.122 102.398 139.991 102.518 143.859 102.648L155.466 103.074L167.067 103.594C170.936 103.787 174.799 103.979 178.663 104.213C174.794 104.135 170.925 104.01 167.057 103.885L155.45 103.454L143.849 102.934C139.985 102.747 136.117 102.549 132.253 102.315Z" fill="#A6A6A6"/>
<path d="M132.159 104.624C136.028 104.707 139.897 104.827 143.766 104.957L155.372 105.383L166.973 105.903C170.837 106.096 174.706 106.288 178.569 106.522C174.7 106.444 170.832 106.319 166.963 106.194L155.356 105.763L143.755 105.243C139.881 105.04 136.023 104.858 132.159 104.624Z" fill="#A6A6A6"/>
<path d="M132.081 106.933C134.015 106.933 135.95 106.98 137.884 107.026C139.819 107.073 141.753 107.156 143.687 107.219C145.622 107.281 147.556 107.39 149.491 107.5C151.425 107.609 153.354 107.723 155.283 107.879C153.349 107.879 151.415 107.838 149.48 107.786C147.546 107.734 145.611 107.656 143.677 107.593C141.743 107.531 139.808 107.422 137.874 107.312C135.939 107.203 133.995 107.089 132.081 106.933Z" fill="#A6A6A6"/>
<path d="M124.826 139.094L74.5322 137.039L74.4369 139.372L124.731 141.427L124.826 139.094Z" fill="#EBEBEB"/>
<path d="M111.105 138.548L74.7158 137.093L74.6224 139.427L111.012 140.883L111.105 138.548Z" fill="#123512"/>
<path d="M124.58 145.137L74.2861 143.082L74.1908 145.415L124.485 147.47L124.58 145.137Z" fill="#EBEBEB"/>
<path d="M120.406 144.972L74.2842 143.087L74.1889 145.42L120.311 147.305L120.406 144.972Z" fill="#123512"/>
<path d="M124.339 151.18L74.0449 149.125L73.9496 151.458L124.244 153.513L124.339 151.18Z" fill="#EBEBEB"/>
<path d="M113.24 150.727L74.0439 149.125L73.9486 151.458L113.145 153.06L113.24 150.727Z" fill="#123512"/>
<path d="M124.087 157.217L73.793 155.162L73.6976 157.495L123.992 159.55L124.087 157.217Z" fill="#EBEBEB"/>
<path d="M117.017 156.934L73.7939 155.168L73.6986 157.501L116.921 159.267L117.017 156.934Z" fill="#123512"/>
<path d="M123.841 163.26L73.5469 161.205L73.4515 163.538L123.746 165.593L123.841 163.26Z" fill="#EBEBEB"/>
<path d="M120.851 163.138L73.5498 161.205L73.4545 163.538L120.756 165.471L120.851 163.138Z" fill="#123512"/>
<path d="M71.0545 136.228L67.2793 136.077L67.1283 139.852L70.9035 140.003L71.0545 136.228Z" fill="#123512"/>
<path d="M70.6412 142.216L66.8691 142.062L66.715 145.834L70.4871 145.989L70.6412 142.216Z" fill="#455A64"/>
<path d="M70.5711 148.325L66.7959 148.173L66.6449 151.949L70.4201 152.1L70.5711 148.325Z" fill="#C7C7C7"/>
<path d="M70.1441 154.297L66.3721 154.143L66.2179 157.915L69.99 158.069L70.1441 154.297Z" fill="#123512"/>
<path d="M69.8971 160.335L66.125 160.181L65.9709 163.953L69.7429 164.107L69.8971 160.335Z" fill="#263238"/>
<path d="M170.821 131.93L138.774 130.62L138.705 132.314L170.752 133.624L170.821 131.93Z" fill="#455A64"/>
<path d="M150.623 139.335L138.439 138.837L138.37 140.531L150.554 141.029L150.623 139.335Z" fill="#C7C7C7"/>
<path d="M150.031 153.724L137.848 153.226L137.778 154.92L149.962 155.418L150.031 153.724Z" fill="#C7C7C7"/>
<path d="M149.449 168.108L137.266 167.61L137.196 169.304L149.38 169.801L149.449 168.108Z" fill="#C7C7C7"/>
<path d="M148.864 182.486L136.68 181.988L136.61 183.682L148.794 184.18L148.864 182.486Z" fill="#C7C7C7"/>
<path d="M163.021 140.676C165.694 140.707 168.367 140.78 171.04 140.863L179.058 141.144L187.071 141.513C189.744 141.653 192.412 141.799 195.085 141.986C192.407 141.955 189.734 141.882 187.061 141.804L179.043 141.518L171.029 141.149C168.362 141.008 165.689 140.863 163.021 140.676Z" fill="#A6A6A6"/>
<path d="M162.928 143C165.601 143.031 168.273 143.104 170.946 143.187L178.965 143.468L186.978 143.837C189.651 143.977 192.318 144.123 194.991 144.31C192.313 144.279 189.64 144.206 186.967 144.128L178.949 143.842L170.936 143.473C168.263 143.317 165.595 143.171 162.928 143Z" fill="#A6A6A6"/>
<path d="M162.834 145.293C165.507 145.324 168.18 145.397 170.852 145.48L178.871 145.761L186.884 146.13C189.557 146.271 192.224 146.416 194.897 146.604C192.219 146.572 189.546 146.5 186.874 146.422L178.881 146.12L170.868 145.751C168.169 145.626 165.502 145.48 162.834 145.293Z" fill="#A6A6A6"/>
<path d="M162.761 147.602C163.894 147.571 165.023 147.602 166.156 147.602C167.29 147.602 168.413 147.664 169.542 147.696C170.67 147.727 171.798 147.805 172.927 147.878C174.055 147.95 175.184 148.039 176.307 148.158C175.178 148.195 174.045 148.158 172.916 148.158C171.788 148.158 170.66 148.091 169.526 148.06C168.392 148.028 167.269 147.956 166.146 147.878C165.023 147.8 163.863 147.727 162.761 147.602Z" fill="#A6A6A6"/>
<path d="M162.434 155.1C165.106 155.137 167.779 155.21 170.452 155.288L178.47 155.568L186.484 155.938C189.156 156.078 191.824 156.224 194.497 156.411C191.819 156.38 189.146 156.307 186.473 156.229L178.455 155.943L170.442 155.574C167.769 155.433 165.101 155.288 162.434 155.1Z" fill="#A6A6A6"/>
<path d="M162.34 157.409C165.013 157.44 167.685 157.518 170.358 157.596L178.377 157.877L186.39 158.246C189.063 158.387 191.73 158.532 194.398 158.72C191.725 158.688 189.052 158.616 186.379 158.538L178.361 158.252L170.348 157.882C167.675 157.742 165.007 157.596 162.34 157.409Z" fill="#A6A6A6"/>
<path d="M162.241 159.718C164.919 159.749 167.592 159.822 170.265 159.905L178.283 160.186L186.296 160.555C188.969 160.696 191.637 160.841 194.304 161.028C191.632 160.997 188.959 160.924 186.286 160.846L178.268 160.56L170.254 160.191C167.582 160.051 164.914 159.905 162.241 159.718Z" fill="#A6A6A6"/>
<path d="M162.147 162.027C163.281 161.995 164.409 162.027 165.543 162.027C166.677 162.027 167.8 162.094 168.928 162.12C170.057 162.146 171.185 162.229 172.313 162.302C173.442 162.375 174.57 162.464 175.693 162.588C174.56 162.62 173.431 162.588 172.303 162.588C171.175 162.588 170.041 162.521 168.913 162.49C167.784 162.458 166.656 162.386 165.527 162.308C164.399 162.23 163.281 162.151 162.147 162.027Z" fill="#A6A6A6"/>
<path d="M161.841 169.52C164.519 169.551 167.192 169.624 169.864 169.702L177.883 169.983L185.896 170.352C188.569 170.492 191.236 170.638 193.904 170.825C191.231 170.794 188.558 170.721 185.886 170.643L177.867 170.357L169.854 169.988C167.181 169.858 164.514 169.712 161.841 169.52Z" fill="#A6A6A6"/>
<path d="M161.747 171.834C164.425 171.87 167.098 171.943 169.771 172.021L177.789 172.302L185.802 172.671C188.475 172.812 191.143 172.957 193.81 173.144C191.137 173.113 188.465 173.04 185.792 172.962L177.773 172.676L169.76 172.307C167.087 172.167 164.42 172.021 161.747 171.834Z" fill="#A6A6A6"/>
<path d="M161.653 174.143C164.331 174.179 167.004 174.252 169.677 174.33L177.695 174.611L185.709 174.98C188.376 175.12 191.049 175.266 193.717 175.453C191.044 175.422 188.371 175.349 185.698 175.271L177.68 174.985L169.667 174.616C166.994 174.476 164.321 174.33 161.653 174.143Z" fill="#A6A6A6"/>
<path d="M161.561 176.452C162.694 176.42 163.823 176.452 164.951 176.452C166.079 176.452 167.213 176.519 168.341 176.55C169.47 176.582 170.598 176.654 171.727 176.727C172.855 176.8 173.978 176.888 175.107 177.013C173.973 177.044 172.845 177.013 171.716 177.013C170.588 177.013 169.454 176.946 168.326 176.914C167.197 176.883 166.069 176.81 164.941 176.732C163.812 176.654 162.689 176.576 161.561 176.452Z" fill="#A6A6A6"/>
<path d="M161.253 183.955C163.931 183.986 166.604 184.059 169.277 184.137L177.295 184.418L185.308 184.792C187.976 184.928 190.649 185.073 193.316 185.26C190.643 185.229 187.971 185.156 185.298 185.078L177.279 184.792L169.266 184.423C166.593 184.283 163.926 184.137 161.253 183.955Z" fill="#A6A6A6"/>
<path d="M161.159 186.264C163.837 186.295 166.51 186.368 169.183 186.446L177.201 186.727L185.214 187.101C187.882 187.236 190.555 187.382 193.222 187.569C190.55 187.538 187.877 187.465 185.204 187.387L177.186 187.101L169.172 186.732C166.5 186.592 163.827 186.446 161.159 186.264Z" fill="#A6A6A6"/>
<path d="M161.066 188.573C163.744 188.604 166.417 188.677 169.09 188.755L177.108 189.036L185.122 189.405C187.789 189.545 190.462 189.691 193.13 189.878C190.457 189.847 187.779 189.774 185.106 189.696L177.093 189.41L169.074 189.041C166.402 188.9 163.734 188.76 161.066 188.573Z" fill="#A6A6A6"/>
<path d="M160.972 190.876C162.105 190.845 163.234 190.876 164.362 190.876C165.49 190.876 166.624 190.944 167.752 190.975C168.881 191.006 170.009 191.079 171.138 191.152C172.266 191.225 173.389 191.313 174.518 191.438C173.384 191.469 172.256 191.438 171.122 191.438C169.988 191.438 168.865 191.376 167.737 191.344C166.608 191.313 165.48 191.235 164.352 191.162C163.223 191.09 162.095 191.001 160.972 190.876Z" fill="#A6A6A6"/>
<path d="M156.62 139.838L156.422 147.129L156.178 154.414L155.632 168.984L155.549 169.879L155.195 177.164L154.8 184.444L155.003 177.154L155.247 169.868L155.237 168.969L155.876 154.404L156.23 147.118L156.62 139.838Z" fill="#123512"/>
<path d="M157.348 140.447C157.344 140.545 157.321 140.642 157.28 140.732C157.239 140.822 157.18 140.902 157.108 140.969C157.035 141.036 156.95 141.087 156.857 141.121C156.765 141.154 156.666 141.169 156.568 141.164C156.42 141.158 156.277 141.108 156.157 141.021C156.038 140.933 155.947 140.812 155.896 140.673C155.845 140.534 155.837 140.383 155.872 140.239C155.907 140.096 155.983 139.965 156.092 139.865C156.201 139.765 156.338 139.699 156.484 139.676C156.63 139.654 156.78 139.675 156.914 139.737C157.049 139.799 157.161 139.9 157.239 140.026C157.316 140.152 157.354 140.299 157.348 140.447Z" fill="#123512"/>
<path d="M156.76 154.872C156.757 154.97 156.734 155.068 156.693 155.157C156.652 155.247 156.593 155.328 156.521 155.395C156.448 155.463 156.363 155.515 156.27 155.549C156.178 155.583 156.079 155.599 155.98 155.594C155.781 155.585 155.593 155.497 155.457 155.35C155.322 155.203 155.25 155.009 155.257 154.809C155.279 154.62 155.371 154.446 155.516 154.322C155.661 154.198 155.847 154.133 156.038 154.141C156.228 154.149 156.409 154.229 156.543 154.364C156.677 154.5 156.754 154.681 156.76 154.872Z" fill="#123512"/>
<path d="M156.173 169.296C156.167 169.446 156.118 169.59 156.03 169.711C155.943 169.832 155.822 169.924 155.682 169.976C155.542 170.028 155.39 170.038 155.244 170.003C155.099 169.969 154.967 169.892 154.866 169.782C154.765 169.673 154.698 169.536 154.674 169.388C154.651 169.241 154.672 169.09 154.734 168.954C154.797 168.818 154.898 168.704 155.026 168.626C155.153 168.549 155.301 168.51 155.45 168.516C155.649 168.524 155.837 168.611 155.972 168.757C156.108 168.903 156.18 169.097 156.173 169.296Z" fill="#123512"/>
<path d="M155.585 183.721C155.579 183.87 155.53 184.015 155.443 184.136C155.355 184.257 155.234 184.349 155.094 184.401C154.954 184.453 154.802 184.463 154.657 184.428C154.511 184.393 154.38 184.316 154.278 184.207C154.177 184.097 154.11 183.96 154.086 183.813C154.063 183.665 154.084 183.514 154.146 183.379C154.209 183.243 154.31 183.129 154.438 183.051C154.565 182.973 154.713 182.935 154.862 182.941C155.061 182.949 155.249 183.036 155.384 183.182C155.52 183.328 155.592 183.522 155.585 183.721Z" fill="#123512"/>
<path d="M76.3947 181.86C76.3367 183.207 75.7905 184.488 74.8579 185.463C73.9254 186.438 72.67 187.041 71.326 187.158C69.982 187.276 68.641 186.901 67.5532 186.103C66.4653 185.305 65.7048 184.139 65.4134 182.821C65.122 181.504 65.3197 180.126 65.9695 178.943C66.6194 177.761 67.677 176.855 68.9453 176.395C70.2136 175.935 71.6059 175.952 72.8627 176.443C74.1194 176.933 75.1549 177.864 75.7759 179.062C76.2226 179.925 76.436 180.889 76.3947 181.86Z" fill="#455A64"/>
<path d="M75.775 179.062L70.835 181.631L71.0586 176.067C72.0386 176.107 72.9906 176.406 73.8187 176.931C74.6467 177.457 75.3215 178.192 75.775 179.062Z" fill="#123512"/>
<path d="M74.6838 181.787C74.6533 182.548 74.3976 183.284 73.949 183.9C73.5005 184.516 72.8792 184.986 72.1638 185.249C71.4484 185.512 70.671 185.557 69.93 185.378C69.189 185.2 68.5176 184.805 68.0009 184.245C67.4842 183.684 67.1453 182.983 67.0271 182.23C66.9089 181.477 67.0167 180.706 67.3369 180.014C67.657 179.322 68.1752 178.741 68.8258 178.344C69.4764 177.947 70.2302 177.751 70.9918 177.783C72.0122 177.825 72.9742 178.27 73.6664 179.021C74.3587 179.771 74.7246 180.766 74.6838 181.787Z" fill="white"/>
<path d="M72.4525 180.851L69.252 180.72L69.2335 181.172L72.434 181.303L72.4525 180.851Z" fill="#263238"/>
<path d="M73.2015 182.133L68.4111 181.937L68.3927 182.389L73.1831 182.585L73.2015 182.133Z" fill="#A6A6A6"/>
<path d="M91.9577 182.52C91.9477 182.792 91.9164 183.064 91.8641 183.331C91.5938 184.751 90.7833 186.012 89.6029 186.847C88.4226 187.681 86.9644 188.026 85.5351 187.808C84.1059 187.59 82.8169 186.826 81.9394 185.677C81.0618 184.528 80.6641 183.083 80.8298 181.647C80.9955 180.211 81.7118 178.895 82.828 177.976C83.9441 177.057 85.3732 176.606 86.8146 176.719C88.256 176.832 89.5973 177.5 90.5565 178.582C91.5157 179.664 92.018 181.075 91.9577 182.52Z" fill="#455A64"/>
<path d="M91.9582 182.52C91.9482 182.792 91.9169 183.064 91.8646 183.331L86.3994 182.291L86.623 176.732C87.3539 176.76 88.072 176.933 88.7361 177.239C89.4003 177.545 89.9973 177.98 90.4931 178.518C90.9888 179.055 91.3734 179.686 91.6249 180.373C91.8763 181.059 91.9896 181.789 91.9582 182.52Z" fill="#123512"/>
<path d="M90.2415 182.421C90.21 183.181 89.9538 183.915 89.5052 184.53C89.0566 185.145 88.4358 185.613 87.7213 185.875C87.0068 186.137 86.2307 186.181 85.4911 186.002C84.7514 185.823 84.0815 185.428 83.5661 184.868C83.0506 184.309 82.7127 183.608 82.5951 182.857C82.4775 182.105 82.5854 181.335 82.9053 180.644C83.2252 179.954 83.7426 179.374 84.3922 178.977C85.0418 178.581 85.7944 178.386 86.5547 178.417C87.0597 178.438 87.5557 178.558 88.0143 178.77C88.473 178.983 88.8852 179.284 89.2276 179.655C89.57 180.027 89.8357 180.463 90.0097 180.937C90.1837 181.412 90.2624 181.916 90.2415 182.421Z" fill="white"/>
<path d="M88.013 181.485L84.8125 181.354L84.794 181.806L87.9946 181.937L88.013 181.485Z" fill="#263238"/>
<path d="M88.7679 182.768L83.9775 182.572L83.9591 183.024L88.7495 183.22L88.7679 182.768Z" fill="#A6A6A6"/>
<path d="M107.641 183.134C107.585 184.484 107.041 185.769 106.108 186.748C105.176 187.726 103.919 188.333 102.573 188.453C101.226 188.574 99.882 188.201 98.7904 187.403C97.6989 186.605 96.9347 185.438 96.6404 184.119C96.3461 182.799 96.5418 181.418 97.191 180.232C97.8401 179.046 98.8984 178.137 100.169 177.674C101.439 177.211 102.834 177.226 104.094 177.715C105.354 178.205 106.393 179.137 107.017 180.336C107.465 181.198 107.681 182.162 107.641 183.134Z" fill="#455A64"/>
<path d="M107.641 183.134C107.595 184.258 107.209 185.342 106.534 186.242C105.859 187.143 104.927 187.818 103.861 188.178L102.077 182.905L102.306 177.341C103.285 177.381 104.237 177.679 105.064 178.205C105.891 178.731 106.565 179.466 107.017 180.336C107.468 181.197 107.683 182.162 107.641 183.134Z" fill="#123512"/>
<path d="M105.914 183.04C105.883 183.8 105.627 184.534 105.179 185.148C104.73 185.763 104.11 186.231 103.396 186.493C102.681 186.755 101.905 186.8 101.166 186.621C100.426 186.443 99.7565 186.049 99.2407 185.489C98.725 184.93 98.3867 184.23 98.2684 183.479C98.1502 182.727 98.2574 181.958 98.5765 181.267C98.8956 180.576 99.4123 179.996 100.061 179.599C100.71 179.202 101.462 179.006 102.222 179.036C103.243 179.078 104.205 179.523 104.897 180.274C105.589 181.025 105.955 182.019 105.914 183.04Z" fill="white"/>
<path d="M103.921 182.19L100.718 182.062L100.7 182.515L103.903 182.643L103.921 182.19Z" fill="#263238"/>
<path d="M104.438 183.413L99.6475 183.217L99.629 183.669L104.419 183.865L104.438 183.413Z" fill="#A6A6A6"/>
<path d="M123.241 183.768C123.186 185.117 122.642 186.4 121.71 187.378C120.778 188.356 119.523 188.961 118.178 189.081C116.833 189.202 115.49 188.829 114.399 188.032C113.309 187.235 112.546 186.069 112.252 184.751C111.958 183.433 112.153 182.053 112.801 180.868C113.45 179.683 114.507 178.775 115.776 178.312C117.045 177.85 118.438 177.864 119.697 178.353C120.956 178.842 121.994 179.772 122.617 180.97C123.068 181.832 123.283 182.797 123.241 183.768Z" fill="#455A64"/>
<path d="M123.241 183.768C123.2 184.834 122.854 185.865 122.244 186.74C121.634 187.615 120.785 188.296 119.799 188.702C118.813 189.108 117.73 189.222 116.681 189.03C115.632 188.839 114.66 188.35 113.881 187.621L117.666 183.539L117.89 177.98C118.622 178.008 119.341 178.179 120.006 178.485C120.672 178.791 121.27 179.226 121.767 179.763C122.264 180.301 122.65 180.931 122.903 181.619C123.156 182.306 123.271 183.036 123.241 183.768Z" fill="#123512"/>
<path d="M121.499 183.695C121.468 184.456 121.213 185.19 120.765 185.806C120.317 186.421 119.696 186.89 118.982 187.153C118.267 187.415 117.491 187.46 116.751 187.282C116.011 187.103 115.341 186.709 114.825 186.149C114.309 185.59 113.97 184.89 113.852 184.138C113.734 183.386 113.842 182.615 114.162 181.925C114.481 181.234 114.999 180.653 115.649 180.257C116.298 179.86 117.051 179.665 117.812 179.696C118.831 179.738 119.791 180.183 120.483 180.933C121.174 181.683 121.539 182.676 121.499 183.695Z" fill="white"/>
<path d="M119.271 182.76L116.07 182.63L116.052 183.082L119.252 183.212L119.271 182.76Z" fill="#263238"/>
<path d="M120.025 184.048L115.234 183.853L115.216 184.305L120.006 184.5L120.025 184.048Z" fill="#A6A6A6"/>
<path d="M130.318 131.804L130.1 139.417L129.84 147.025L129.263 162.24L128.602 177.45L128.238 185.058L127.838 192.66L128.051 185.047L128.311 177.44L128.888 162.224L129.554 147.009L129.918 139.407L130.318 131.804Z" fill="#455A64"/>
<path d="M67.6903 206.466C67.6182 206.524 67.5321 206.562 67.4407 206.575H67.3211H67.1131L66.8999 206.534C66.6285 206.461 66.3741 206.335 66.1511 206.164C65.6249 205.778 65.1797 205.292 64.8407 204.734C64.6912 204.5 64.5888 204.238 64.5391 203.965C64.5391 203.892 64.5391 203.819 64.5391 203.746V203.544C64.5391 203.481 64.5703 203.414 64.5963 203.351C64.6245 203.292 64.6558 203.235 64.6899 203.18L64.7211 203.211L65.5531 204.11C65.5594 204.119 65.5628 204.129 65.5628 204.139C65.5628 204.149 65.5594 204.159 65.5531 204.168C65.5277 204.238 65.5216 204.315 65.5353 204.389C65.549 204.463 65.5821 204.532 65.6311 204.589C65.8627 204.877 66.1129 205.15 66.3799 205.405C66.4339 205.458 66.5006 205.495 66.5735 205.515C66.6464 205.534 66.723 205.534 66.7959 205.514C66.7959 205.514 66.8271 205.514 66.8427 205.514L67.6851 206.43C67.6851 206.43 67.6851 206.44 67.6903 206.466Z" fill="#123512"/>
<path d="M68.2159 205.982L67.8987 206.274L67.0459 205.348L67.1187 205.291L67.3891 205.041C67.4022 205.024 67.4191 205.01 67.4385 205C67.4579 204.991 67.4792 204.986 67.5009 204.986C67.5225 204.986 67.5439 204.991 67.5633 205C67.5827 205.01 67.5996 205.024 67.6127 205.041L68.2471 205.728C68.2704 205.741 68.2892 205.762 68.3011 205.786C68.3131 205.811 68.3177 205.838 68.3144 205.865C68.3111 205.892 68.3 205.917 68.2825 205.938C68.2651 205.959 68.2419 205.974 68.2159 205.982Z" fill="#123512"/>
<path d="M66.0414 203.627L65.6878 203.939L64.8506 203.029L65.173 202.732C65.1861 202.716 65.2028 202.703 65.2217 202.694C65.2406 202.685 65.2612 202.68 65.2822 202.68C65.3031 202.68 65.3238 202.685 65.3427 202.694C65.3616 202.703 65.3782 202.716 65.3914 202.732L66.031 203.429C66.0452 203.441 66.0568 203.456 66.0651 203.472C66.0734 203.489 66.0782 203.507 66.0792 203.526C66.0802 203.544 66.0773 203.563 66.0708 203.58C66.0643 203.598 66.0543 203.613 66.0414 203.627Z" fill="#123512"/>
<path d="M67.8922 210.969L67.7933 211.052L66.2334 212.404C66.2119 212.429 66.1855 212.448 66.1559 212.462C66.1263 212.475 66.0942 212.482 66.0618 212.482C66.0293 212.482 65.9972 212.475 65.9676 212.462C65.938 212.448 65.9116 212.429 65.8902 212.404L64.4342 210.907L64.377 210.85C64.4162 210.826 64.4615 210.816 64.507 210.818L65.547 210.855L67.6894 210.938C67.7585 210.926 67.8299 210.937 67.8922 210.969Z" fill="#123512"/>
<path d="M67.7783 213.59H67.6535L66.4211 213.543L64.4503 213.476C64.3937 213.472 64.3386 213.456 64.2891 213.429L65.5631 212.311L65.7919 212.54L65.8907 212.638C65.9149 212.664 65.944 212.684 65.9762 212.697C66.0083 212.711 66.0429 212.718 66.0779 212.718C66.1128 212.718 66.1474 212.711 66.1796 212.697C66.2117 212.684 66.2408 212.664 66.2651 212.638L66.6083 212.337L67.7783 213.543V213.59Z" fill="#123512"/>
<path d="M65.4225 212.16L64.1797 213.262C64.1797 213.262 64.1797 213.226 64.1797 213.205L64.2577 211.042C64.2543 211.02 64.2543 210.997 64.2577 210.974L65.4225 212.16Z" fill="#123512"/>
<path d="M67.9184 213.418L67.4868 212.976L66.79 212.259H66.7588C67.1748 211.884 67.596 211.526 68.0016 211.156C68.0172 211.177 67.9392 213.361 67.9184 213.418Z" fill="#123512"/>
<path d="M127.251 206.138C127.132 206.408 127.057 206.694 127.027 206.986L126.289 206.955C126.289 206.955 126.289 206.913 126.289 206.898C126.304 206.796 126.325 206.695 126.351 206.596C126.399 206.438 126.461 206.284 126.539 206.138L127.23 206.164L127.251 206.138Z" fill="#123512"/>
<path d="M127.152 208.047H126.471C126.402 207.88 126.351 207.705 126.32 207.527C126.315 207.437 126.315 207.347 126.32 207.256L127.054 207.288C127.054 207.288 127.054 207.407 127.054 207.47C127.058 207.568 127.07 207.665 127.09 207.761C127.11 207.877 127.138 207.992 127.173 208.104L127.152 208.047Z" fill="#123512"/>
<path d="M130.074 208.39C129.93 208.59 129.755 208.766 129.554 208.91C129.448 208.985 129.335 209.049 129.216 209.102C129.103 209.155 128.984 209.195 128.863 209.222C128.765 209.247 128.666 209.264 128.566 209.274H128.52C128.739 209.135 128.933 208.959 129.092 208.754C129.182 208.64 129.262 208.518 129.331 208.39L130.028 208.421L130.074 208.39Z" fill="#123512"/>
<path d="M129.43 207.08L128.447 207.043L128.484 206.185L129.238 206.216C129.302 206.384 129.347 206.559 129.373 206.736C129.378 206.827 129.378 206.917 129.373 207.007L129.43 207.08Z" fill="#123512"/>
<path d="M129.414 207.308C129.411 207.329 129.411 207.35 129.414 207.371C129.411 207.418 129.411 207.465 129.414 207.511C129.414 207.579 129.414 207.641 129.372 207.709C129.336 207.85 129.287 207.987 129.227 208.12L128.457 208.088L128.488 207.262L129.414 207.308Z" fill="#123512"/>
<path d="M128.265 206.18L128.228 207.038L127.271 207.002C127.271 207.002 127.271 206.96 127.271 206.934C127.271 206.908 127.271 206.84 127.297 206.794C127.308 206.722 127.323 206.65 127.344 206.58C127.38 206.436 127.432 206.297 127.5 206.164L128.228 206.19L128.265 206.18Z" fill="#123512"/>
<path d="M128.219 207.272L128.187 208.078L127.439 208.047C127.385 207.906 127.346 207.759 127.324 207.61C127.324 207.532 127.324 207.454 127.324 207.381C127.324 207.308 127.324 207.277 127.324 207.225L128.26 207.267C128.26 207.267 128.219 207.262 128.219 207.272Z" fill="#123512"/>
<path d="M130.464 207.132L129.663 207.095C129.66 206.8 129.609 206.506 129.513 206.227L130.251 206.258C130.328 206.433 130.382 206.616 130.412 206.804C130.42 206.904 130.42 207.005 130.412 207.106L130.464 207.132Z" fill="#123512"/>
<path d="M130.46 207.345C130.457 207.364 130.457 207.383 130.46 207.402C130.46 207.475 130.46 207.548 130.423 207.615C130.387 207.781 130.331 207.941 130.257 208.094L130.221 208.166L129.487 208.135L129.519 208.062C129.564 207.937 129.603 207.808 129.633 207.678C129.654 207.581 129.669 207.484 129.68 207.386C129.68 207.36 129.68 207.34 129.68 207.319L130.46 207.345Z" fill="#123512"/>
<path d="M130.148 206.034L129.446 206.003C129.357 205.818 129.247 205.643 129.118 205.483C129.039 205.391 128.952 205.305 128.858 205.228L128.718 205.114C128.965 205.149 129.203 205.23 129.42 205.353C129.714 205.518 129.964 205.752 130.148 206.034Z" fill="#123512"/>
<path d="M128 209.238C127.925 209.225 127.85 209.208 127.777 209.186C127.638 209.144 127.504 209.089 127.376 209.019C127.231 208.938 127.095 208.84 126.971 208.728C126.883 208.649 126.803 208.562 126.732 208.468C126.678 208.397 126.63 208.322 126.586 208.244L127.241 208.27C127.302 208.411 127.377 208.545 127.465 208.671C127.608 208.883 127.783 209.07 127.985 209.227L128 209.238Z" fill="#123512"/>
<path d="M128.161 205.072L128.062 205.14C127.943 205.222 127.834 205.316 127.734 205.421C127.598 205.558 127.479 205.712 127.381 205.878V205.915H127.334L126.694 205.889C126.868 205.653 127.089 205.457 127.343 205.313C127.598 205.169 127.88 205.08 128.171 205.052L128.161 205.072Z" fill="#123512"/>
<path d="M129.082 208.348C128.987 208.504 128.874 208.647 128.744 208.775C128.626 208.887 128.497 208.986 128.359 209.071L128.391 208.322L129.082 208.348Z" fill="#123512"/>
<path d="M128.176 208.312L128.145 209.05C127.877 208.849 127.659 208.587 127.511 208.286L128.176 208.312Z" fill="#123512"/>
<path d="M129.16 205.993L128.494 205.967L128.52 205.265C128.655 205.359 128.777 205.469 128.884 205.592C128.989 205.717 129.081 205.851 129.16 205.993Z" fill="#123512"/>
<path d="M128.301 205.275L128.27 205.962L127.636 205.936C127.801 205.665 128.03 205.439 128.301 205.275Z" fill="#123512"/>
<path d="M129.73 213.507C129.564 213.123 129.269 212.809 128.896 212.619C128.523 212.429 128.095 212.375 127.687 212.467C127.289 212.541 126.931 212.757 126.679 213.074C126.426 213.391 126.297 213.788 126.314 214.193C126.336 214.465 126.406 214.731 126.522 214.978C126.759 215.524 127.078 216.031 127.468 216.481C127.624 216.668 127.786 216.845 127.947 217.032L128.004 216.986C128.233 216.762 128.467 216.544 128.685 216.315C129.096 215.887 129.431 215.393 129.678 214.854C129.778 214.644 129.834 214.417 129.843 214.185C129.852 213.954 129.814 213.723 129.73 213.507ZM129.164 214.141C129.15 214.358 129.072 214.567 128.939 214.739C128.807 214.912 128.625 215.041 128.419 215.109C128.212 215.178 127.99 215.184 127.78 215.125C127.571 215.067 127.383 214.947 127.242 214.781C127.101 214.616 127.013 214.411 126.988 214.195C126.964 213.979 127.005 213.76 127.106 213.567C127.207 213.374 127.363 213.216 127.555 213.113C127.746 213.009 127.964 212.965 128.181 212.987C128.463 213.013 128.723 213.149 128.907 213.364C129.09 213.58 129.182 213.859 129.164 214.141Z" fill="#123512"/>
<path d="M72.2812 203.596C74.9592 203.627 77.632 203.7 80.3048 203.778L88.3233 204.058L96.3364 204.433C99.004 204.568 101.677 204.714 104.344 204.901C101.672 204.87 98.9936 204.797 96.3208 204.719L88.3077 204.433L80.2892 204.064C77.5956 203.923 74.9228 203.778 72.2812 203.596Z" fill="#A6A6A6"/>
<path d="M72.1611 205.92C73.5027 205.894 74.8391 205.92 76.1755 205.92C77.5119 205.92 78.8483 206.003 80.1847 206.045C81.5211 206.086 82.8575 206.164 84.1887 206.248C85.5199 206.331 86.8615 206.424 88.1927 206.554C86.8511 206.554 85.5147 206.554 84.1783 206.554C82.8419 206.554 81.5055 206.471 80.1691 206.43C78.8327 206.388 77.4963 206.31 76.1651 206.227C74.8339 206.144 73.4923 206.034 72.1611 205.92Z" fill="#A6A6A6"/>
<path d="M71.9424 211.281C74.6152 211.312 77.288 211.385 79.9608 211.468L87.9792 211.749L95.9924 212.118C98.6652 212.259 101.338 212.404 104.006 212.592C101.328 212.56 98.6548 212.488 95.982 212.41L87.9636 212.124L79.9504 211.754C77.2828 211.64 74.61 211.468 71.9424 211.281Z" fill="#A6A6A6"/>
<path d="M71.8496 213.59C73.186 213.59 74.5224 213.59 75.864 213.59C77.2056 213.59 78.5368 213.673 79.8732 213.71C81.2096 213.746 82.5408 213.834 83.8772 213.918C85.2136 214.001 86.5448 214.089 87.8812 214.224C86.5396 214.224 85.2032 214.224 83.8668 214.224C82.5304 214.224 81.194 214.146 79.8576 214.105C78.5212 214.063 77.1848 213.985 75.8484 213.897C74.512 213.808 73.1808 213.72 71.8496 213.59Z" fill="#A6A6A6"/>
<path d="M136.199 206.201C138.877 206.232 141.55 206.305 144.223 206.388L152.241 206.669L160.254 207.038C162.922 207.178 165.595 207.324 168.262 207.511C165.59 207.48 162.917 207.407 160.239 207.329L152.226 207.043L144.212 206.674C141.54 206.534 138.867 206.388 136.199 206.201Z" fill="#A6A6A6"/>
<path d="M136.106 208.52C137.448 208.52 138.784 208.52 140.121 208.52C141.457 208.52 142.794 208.603 144.13 208.64C145.466 208.676 146.803 208.764 148.134 208.848C149.465 208.931 150.807 209.019 152.138 209.154C150.796 209.154 149.46 209.154 148.124 209.154C146.787 209.154 145.451 209.076 144.114 209.035C142.778 208.993 141.442 208.915 140.11 208.827C138.779 208.738 137.438 208.645 136.106 208.52Z" fill="#A6A6A6"/>
<path d="M135.888 213.892C138.56 213.923 141.233 213.996 143.906 214.074L151.924 214.36L159.938 214.729C162.61 214.864 165.283 215.01 167.951 215.197C165.273 215.166 162.6 215.093 159.927 215.015L151.909 214.729L143.896 214.36C141.228 214.24 138.555 214.079 135.888 213.892Z" fill="#A6A6A6"/>
<path d="M135.794 216.2C137.13 216.2 138.467 216.2 139.808 216.2C141.15 216.2 142.481 216.278 143.818 216.32C145.154 216.362 146.485 216.44 147.822 216.523C149.158 216.606 150.489 216.7 151.826 216.83C150.484 216.856 149.148 216.83 147.811 216.83C146.475 216.83 145.138 216.746 143.802 216.71C142.466 216.674 141.129 216.585 139.793 216.502C138.456 216.419 137.125 216.32 135.794 216.2Z" fill="#A6A6A6"/>
<path d="M47.5811 237.13V40.6484L189.707 34.1172V230.599L47.5811 237.13Z" fill="#455A64"/>
<path d="M203.894 109.788V33.4411L189.708 34.1171V114.852L203.894 109.788Z" fill="#455A64"/>
<path d="M209.197 224.848L56.5402 229.102H56.483V229.045L56.353 224.349L51.0646 34.6114L50.9398 29.9886L50.9346 29.8586L51.0594 29.8534L173.566 26.4422L173.743 26.5202L183.592 30.9194L203.981 40.0246L209.061 220.095H209.067L209.197 224.848Z" fill="white"/>
<path d="M209.196 224.848L56.4821 229.159H56.4249V229.096L50.8037 29.8636V29.7336H50.9285L173.565 26.364H173.597L204.006 39.9568H204.048V40.04L209.04 220.095L209.196 224.848ZM209.196 224.848L209.066 220.095L203.913 40.04L203.954 40.1024L173.534 26.52H173.565L50.9597 29.9884L51.0845 29.8532L56.5601 229.102L56.5029 229.044L209.196 224.848Z" fill="#263238"/>
<path d="M50.96 29.8586V29.9886L51.0796 29.8534L50.96 29.8586ZM56.5084 229.045V229.102H56.5656L56.5084 229.045ZM56.4356 224.365L51.2356 34.6218L51.1108 29.999H50.96L51.0848 34.6218L56.3732 224.359L56.5032 229.039H56.5604L56.4356 224.365ZM173.566 26.4422L51.0588 29.8534V29.9834L173.742 26.5202L173.566 26.4422ZM56.5396 229.045V229.102L209.196 224.848L56.5396 229.045Z" fill="#263238"/>
<path d="M209.196 224.848L56.5397 229.102H56.4825V229.045L56.3525 224.349H56.4097L192.556 220.553L203.611 220.246L209.061 220.095H209.066L209.196 224.848Z" fill="#123512"/>
<path opacity="0.3" d="M67.5795 34.15L56.5234 34.4588L59.251 132.108L70.3071 131.799L67.5795 34.15Z" fill="#123512"/>
<path opacity="0.3" d="M200.903 122.625L189.847 122.934L192.574 220.583L203.63 220.275L200.903 122.625Z" fill="#123512"/>
<path d="M173.743 26.5202L183.592 30.9194L67.5746 34.1538L56.5194 34.4606L51.1894 34.6062L51.0646 34.6114L50.9398 29.9886L50.9346 29.8586L51.0594 29.8534L173.566 26.4422L173.743 26.5202Z" fill="#123512"/>
<path d="M152.907 43.5113L127.359 44.2249L127.408 45.9559L152.956 45.2422L152.907 43.5113Z" fill="#455A64"/>
<path d="M90.0275 124.894L64.4795 125.608L64.531 127.453L90.0791 126.74L90.0275 124.894Z" fill="#455A64"/>
<path d="M92.0119 195.838L66.4639 196.552L66.5122 198.283L92.0603 197.569L92.0119 195.838Z" fill="#455A64"/>
<path d="M91.2287 167.942L65.6807 168.655L65.729 170.386L91.277 169.673L91.2287 167.942Z" fill="#455A64"/>
<path d="M127.525 50.4402C131.483 50.2478 135.435 50.1022 139.392 49.9618L151.258 49.5874L163.125 49.2962C167.082 49.2182 171.039 49.1454 174.996 49.1142C171.044 49.3066 167.087 49.4522 163.135 49.5926L151.269 49.967L139.397 50.253C135.44 50.3258 131.483 50.4038 127.525 50.4402Z" fill="#A6A6A6"/>
<path d="M127.593 52.7958C131.545 52.6034 135.502 52.4578 139.454 52.3174L151.32 51.943L163.192 51.657C167.149 51.5738 171.106 51.501 175.064 51.4698C171.112 51.6622 167.154 51.8078 163.202 51.9482L151.331 52.3226L139.464 52.6086C135.507 52.6918 131.56 52.7646 127.593 52.7958Z" fill="#A6A6A6"/>
<path d="M127.66 55.1565C131.612 54.9641 135.564 54.8185 139.521 54.6781L151.388 54.3037L163.259 54.0177C167.217 53.9345 171.169 53.8617 175.131 53.8305C171.174 54.0229 167.222 54.1685 163.265 54.3089L151.398 54.6833L139.532 54.9693C135.575 55.0525 131.617 55.1201 127.66 55.1565Z" fill="#A6A6A6"/>
<path d="M127.723 57.5173C131.68 57.3249 135.632 57.1793 139.589 57.0389L151.455 56.6645L163.322 56.3785C167.279 56.2953 171.236 56.2225 175.193 56.1913C171.241 56.3837 167.284 56.5293 163.332 56.6697L151.466 57.0441L139.594 57.3301C135.637 57.4133 131.68 57.4861 127.723 57.5173Z" fill="#A6A6A6"/>
<path d="M127.79 59.8782C129.766 59.743 131.742 59.6494 133.718 59.5662C135.694 59.483 137.675 59.4258 139.651 59.353C141.627 59.2802 143.608 59.2594 145.584 59.2334C147.56 59.2074 149.547 59.1918 151.523 59.2334C149.547 59.3686 147.571 59.457 145.595 59.5454C143.619 59.6338 141.638 59.6858 139.662 59.7534C137.686 59.821 135.704 59.8522 133.728 59.873C131.752 59.8938 129.771 59.899 127.79 59.8782Z" fill="#A6A6A6"/>
<path d="M127.92 64.5998C131.872 64.4126 135.829 64.2618 139.786 64.1214L151.653 63.747L163.519 63.461C167.476 63.383 171.434 63.3102 175.391 63.279C171.439 63.4662 167.482 63.6118 163.53 63.7574L151.663 64.1318L139.792 64.4178C135.834 64.4802 131.877 64.5686 127.92 64.5998Z" fill="#A6A6A6"/>
<path d="M127.987 66.9606C131.939 66.7734 135.897 66.6226 139.849 66.4822L151.715 66.1078L163.587 65.8218C167.544 65.7438 171.501 65.671 175.458 65.6398C171.506 65.827 167.549 65.9726 163.592 66.1182L151.725 66.4926L139.859 66.7786C135.902 66.8566 131.945 66.9294 127.987 66.9606Z" fill="#A6A6A6"/>
<path d="M128.05 69.3214C132.007 69.1342 135.959 68.9834 139.916 68.843L151.783 68.4686L163.649 68.1826C167.606 68.1046 171.563 68.0318 175.526 68.0006C171.569 68.1878 167.617 68.3386 163.659 68.479L151.793 68.8534L139.921 69.1394C135.969 69.2174 132.012 69.2902 128.05 69.3214Z" fill="#A6A6A6"/>
<path d="M128.118 71.6822C132.07 71.495 136.027 71.3442 139.985 71.2038L151.851 70.8294L163.717 70.5434C167.675 70.4654 171.632 70.3926 175.589 70.3614C171.637 70.5486 167.68 70.6994 163.728 70.8398L151.841 71.2402L139.969 71.5262C136.033 71.5782 132.081 71.651 128.118 71.6822Z" fill="#A6A6A6"/>
<path d="M128.186 74.043C130.162 73.9078 132.138 73.8194 134.114 73.731C136.09 73.6426 138.071 73.5958 140.047 73.523C142.023 73.4502 144.004 73.4242 145.98 73.4034C147.956 73.3826 149.937 73.3566 151.918 73.4034C149.942 73.5386 147.966 73.6322 145.99 73.7154C144.014 73.7986 142.033 73.8558 140.057 73.9234C138.081 73.991 136.1 74.0222 134.124 74.0482C132.148 74.0742 130.167 74.069 128.186 74.043Z" fill="#A6A6A6"/>
<path d="M128.315 78.7646C132.267 78.5774 136.225 78.4318 140.182 78.2914L152.048 77.9118L163.915 77.6258C167.872 77.5478 171.829 77.475 175.786 77.4438C171.834 77.6362 167.877 77.7818 163.925 77.9222L152.059 78.2966L140.187 78.5826C136.24 78.6606 132.273 78.7334 128.315 78.7646Z" fill="#A6A6A6"/>
<path d="M128.384 81.1202C132.336 80.933 136.293 80.7874 140.245 80.647L152.111 80.2674L163.983 79.9814C167.94 79.9034 171.897 79.8306 175.855 79.7994C171.897 79.9918 167.945 80.1374 163.988 80.2778L152.122 80.6522L140.255 80.9382C136.298 81.0214 132.341 81.1202 128.384 81.1202Z" fill="#A6A6A6"/>
<path d="M128.44 83.4862C132.398 83.299 136.35 83.1534 140.307 83.013L152.173 82.6386L164.04 82.3474C167.997 82.2694 171.954 82.1966 175.911 82.1654C171.959 82.3578 168.007 82.5034 164.05 82.6438L152.184 83.0182L140.312 83.3042C136.36 83.3822 132.403 83.455 128.44 83.4862Z" fill="#A6A6A6"/>
<path d="M128.514 85.8522C130.49 85.717 132.466 85.6233 134.442 85.5401C136.418 85.4569 138.399 85.3997 140.375 85.3269C142.351 85.2541 144.332 85.2334 146.313 85.2074C148.294 85.1814 150.27 85.1658 152.252 85.2074C150.276 85.3426 148.294 85.4362 146.318 85.5246C144.342 85.613 142.366 85.6597 140.385 85.7325C138.404 85.8053 136.428 85.8262 134.452 85.8522C132.476 85.8782 130.521 85.873 128.514 85.8522Z" fill="#A6A6A6"/>
<path d="M128.644 90.5738C132.601 90.3814 136.553 90.2358 140.51 90.0954L152.376 89.721L164.243 89.435C168.2 89.3518 172.157 89.279 176.114 89.2478C172.162 89.4402 168.21 89.5858 164.253 89.7262L152.387 90.1006L140.515 90.3866C136.558 90.4802 132.601 90.5426 128.644 90.5738Z" fill="#A6A6A6"/>
<path d="M128.711 92.9346C132.663 92.7422 136.62 92.5966 140.572 92.4562L152.439 92.0818L164.31 91.7958C168.267 91.7126 172.225 91.6398 176.182 91.6086C172.23 91.801 168.273 91.9466 164.321 92.087L152.449 92.4614L140.583 92.7474C136.625 92.8306 132.668 92.9034 128.711 92.9346Z" fill="#A6A6A6"/>
<path d="M128.778 95.2954C132.73 95.103 136.682 94.9574 140.64 94.817L152.506 94.4426L164.378 94.1566C168.335 94.0734 172.292 94.0006 176.249 93.9746C172.292 94.1618 168.34 94.3074 164.383 94.4478L152.516 94.8222L140.65 95.1082C136.693 95.1914 132.736 95.2642 128.778 95.2954Z" fill="#A6A6A6"/>
<path d="M128.841 97.6562C132.798 97.469 136.75 97.3182 140.707 97.1778L152.574 96.8034L164.44 96.5174C168.397 96.4394 172.354 96.3614 176.312 96.3354C172.36 96.5226 168.402 96.6682 164.45 96.8086L152.584 97.183L140.712 97.469C136.76 97.5522 132.798 97.625 128.841 97.6562Z" fill="#A6A6A6"/>
<path d="M128.908 100.017C130.884 99.8817 132.86 99.7881 134.836 99.7049C136.812 99.6217 138.793 99.5645 140.769 99.4969C142.745 99.4293 144.727 99.3981 146.703 99.3721C148.679 99.3461 150.665 99.3305 152.641 99.3721C150.665 99.5073 148.689 99.5957 146.713 99.6841C144.737 99.7725 142.756 99.8245 140.78 99.8921C138.804 99.9597 136.823 99.9909 134.847 100.012C132.871 100.033 130.889 100.043 128.908 100.017Z" fill="#A6A6A6"/>
<path d="M123.805 133.307L72.3604 134.744L72.427 137.13L123.871 135.693L123.805 133.307Z" fill="#EBEBEB"/>
<path d="M109.557 133.705L72.3652 134.744L72.4319 137.13L109.623 136.091L109.557 133.705Z" fill="#123512"/>
<path d="M123.977 139.488L72.5322 140.925L72.599 143.316L124.043 141.879L123.977 139.488Z" fill="#EBEBEB"/>
<path d="M119.711 139.607L72.5342 140.925L72.601 143.316L119.778 141.998L119.711 139.607Z" fill="#123512"/>
<path d="M124.149 145.669L72.7051 147.106L72.7719 149.497L124.216 148.06L124.149 145.669Z" fill="#EBEBEB"/>
<path d="M112.801 145.986L72.709 147.106L72.7758 149.497L112.868 148.377L112.801 145.986Z" fill="#123512"/>
<path d="M124.327 151.85L72.8828 153.287L72.9496 155.678L124.394 154.241L124.327 151.85Z" fill="#EBEBEB"/>
<path d="M117.089 152.046L72.8799 153.281L72.9467 155.672L117.155 154.438L117.089 152.046Z" fill="#123512"/>
<path d="M124.499 158.025L73.0547 159.462L73.1215 161.853L124.566 160.416L124.499 158.025Z" fill="#EBEBEB"/>
<path d="M121.439 158.111L73.0566 159.462L73.1234 161.853L121.506 160.502L121.439 158.111Z" fill="#123512"/>
<path d="M68.5747 134.116L64.7178 134.224L64.8255 138.081L68.6824 137.973L68.5747 134.116Z" fill="#123512"/>
<path d="M68.7465 140.297L64.8896 140.404L64.9974 144.261L68.8543 144.154L68.7465 140.297Z" fill="#455A64"/>
<path d="M68.9243 146.477L65.0674 146.585L65.1751 150.442L69.032 150.334L68.9243 146.477Z" fill="#C7C7C7"/>
<path d="M69.0971 152.658L65.2402 152.766L65.348 156.623L69.2049 156.515L69.0971 152.658Z" fill="#123512"/>
<path d="M69.269 158.834L65.4121 158.941L65.5198 162.798L69.3767 162.691L69.269 158.834Z" fill="#263238"/>
<path d="M170.212 122.771L137.434 123.686L137.482 125.417L170.26 124.501L170.212 122.771Z" fill="#455A64"/>
<path d="M150.13 131.742L137.671 132.09L137.719 133.821L150.179 133.473L150.13 131.742Z" fill="#C7C7C7"/>
<path d="M150.536 146.456L138.076 146.804L138.125 148.535L150.584 148.187L150.536 146.456Z" fill="#C7C7C7"/>
<path d="M150.946 161.165L138.486 161.513L138.535 163.244L150.994 162.896L150.946 161.165Z" fill="#C7C7C7"/>
<path d="M151.357 175.885L138.897 176.233L138.946 177.964L151.405 177.616L151.357 175.885Z" fill="#C7C7C7"/>
<path d="M162.849 132.267C165.579 132.111 168.309 131.997 171.044 131.893L179.239 131.617L187.439 131.435C190.175 131.389 192.905 131.347 195.64 131.352C192.91 131.508 190.18 131.623 187.45 131.727L179.249 132.002L171.049 132.184C168.314 132.231 165.584 132.267 162.849 132.267Z" fill="#A6A6A6"/>
<path d="M162.911 134.628C165.646 134.472 168.376 134.358 171.106 134.254L179.307 133.978L187.507 133.796C190.237 133.749 192.972 133.708 195.708 133.713C192.978 133.869 190.248 133.983 187.512 134.087L179.317 134.363L171.117 134.545C168.382 134.592 165.646 134.628 162.911 134.628Z" fill="#A6A6A6"/>
<path d="M162.979 136.989C165.709 136.833 168.444 136.719 171.174 136.615L179.369 136.339L187.569 136.157C190.305 136.11 193.04 136.069 195.775 136.074C193.045 136.23 190.31 136.344 187.58 136.448L179.379 136.724L171.179 136.906C168.449 136.953 165.714 136.989 162.979 136.989Z" fill="#A6A6A6"/>
<path d="M163.046 139.36C164.195 139.246 165.35 139.178 166.504 139.116C167.658 139.053 168.813 139.022 169.967 138.975C171.121 138.929 172.276 138.923 173.43 138.923C174.585 138.923 175.739 138.923 176.899 138.975C175.744 139.085 174.59 139.152 173.441 139.215C172.292 139.277 171.132 139.308 169.978 139.355C168.823 139.402 167.669 139.407 166.514 139.407C165.36 139.407 164.2 139.397 163.046 139.36Z" fill="#A6A6A6"/>
<path d="M163.28 147.02C166.01 146.864 168.74 146.749 171.475 146.645L179.671 146.37L187.871 146.188C190.606 146.141 193.336 146.105 196.071 146.105C193.341 146.261 190.611 146.375 187.881 146.484L179.681 146.755L171.481 146.937C168.725 146.983 165.995 147.025 163.28 147.02Z" fill="#A6A6A6"/>
<path d="M163.322 149.381C166.057 149.225 168.787 149.115 171.517 149.006L179.718 148.731L187.918 148.549C190.648 148.502 193.383 148.465 196.119 148.465C193.389 148.621 190.659 148.736 187.923 148.845L179.728 149.115L171.528 149.297C168.793 149.344 166.057 149.386 163.322 149.381Z" fill="#A6A6A6"/>
<path d="M163.39 151.741C166.12 151.585 168.855 151.476 171.585 151.367L179.78 151.097L187.98 150.909C190.716 150.863 193.451 150.826 196.186 150.826C193.456 150.982 190.721 151.097 187.991 151.206L179.79 151.476L171.595 151.658C168.86 151.705 166.125 151.747 163.39 151.741Z" fill="#A6A6A6"/>
<path d="M163.457 154.102C164.606 153.993 165.761 153.925 166.915 153.858C168.069 153.79 169.224 153.769 170.378 153.717C171.533 153.665 172.687 153.671 173.841 153.665C174.996 153.66 176.15 153.665 177.31 153.717C176.155 153.832 175.001 153.899 173.852 153.962C172.703 154.024 171.543 154.055 170.389 154.102C169.234 154.149 168.08 154.154 166.925 154.154C165.771 154.154 164.611 154.149 163.457 154.102Z" fill="#A6A6A6"/>
<path d="M163.67 161.772C166.4 161.621 169.13 161.507 171.865 161.398L180.06 161.127L188.24 160.94C190.975 160.899 193.705 160.857 196.44 160.862C193.71 161.018 190.98 161.127 188.25 161.237L180.05 161.507L171.85 161.694C169.14 161.72 166.4 161.777 163.67 161.772Z" fill="#A6A6A6"/>
<path d="M163.732 164.138C166.468 163.982 169.198 163.868 171.928 163.759L180.128 163.488L188.328 163.301C191.058 163.259 193.794 163.218 196.529 163.223C193.799 163.379 191.069 163.488 188.334 163.597L180.138 163.868L171.938 164.055C169.203 164.102 166.468 164.138 163.732 164.138Z" fill="#A6A6A6"/>
<path d="M163.8 166.499C166.53 166.343 169.265 166.229 171.995 166.119L180.19 165.849L188.391 165.667C191.126 165.62 193.861 165.579 196.596 165.584C193.866 165.74 191.131 165.854 188.401 165.958L180.201 166.234L172.005 166.416C169.27 166.463 166.535 166.499 163.8 166.499Z" fill="#A6A6A6"/>
<path d="M163.868 168.86C165.017 168.745 166.172 168.678 167.326 168.615C168.481 168.553 169.635 168.522 170.789 168.475C171.944 168.428 173.098 168.423 174.253 168.423C175.407 168.423 176.561 168.423 177.721 168.47C176.567 168.584 175.412 168.652 174.263 168.714C173.114 168.777 171.954 168.808 170.8 168.855C169.645 168.901 168.491 168.907 167.337 168.907C166.182 168.907 165.023 168.907 163.868 168.86Z" fill="#A6A6A6"/>
<path d="M164.081 176.53C166.811 176.374 169.541 176.259 172.276 176.155L180.471 175.88L188.672 175.698C191.407 175.651 194.142 175.615 196.872 175.615C194.142 175.771 191.412 175.885 188.682 175.989L180.482 176.265L172.281 176.447C169.551 176.493 166.816 176.53 164.081 176.53Z" fill="#A6A6A6"/>
<path d="M164.144 178.88C166.879 178.724 169.609 178.61 172.339 178.506L180.539 178.23L188.74 178.048C191.47 178.001 194.205 177.965 196.94 177.965C194.21 178.121 191.48 178.235 188.745 178.345L180.55 178.615L172.349 178.797C169.614 178.88 166.879 178.88 164.144 178.88Z" fill="#A6A6A6"/>
<path d="M164.211 181.251C166.941 181.095 169.676 180.981 172.406 180.877L180.601 180.601L188.802 180.419C191.537 180.373 194.272 180.336 197.007 180.336C194.277 180.492 191.542 180.607 188.812 180.716L180.612 180.986L172.417 181.168C169.681 181.215 166.946 181.257 164.211 181.251Z" fill="#A6A6A6"/>
<path d="M164.278 183.612C165.428 183.503 166.582 183.43 167.736 183.368C168.891 183.305 170.045 183.274 171.2 183.227C172.354 183.181 173.508 183.175 174.663 183.175C175.817 183.175 176.972 183.175 178.131 183.227C176.977 183.337 175.828 183.409 174.673 183.472C173.519 183.534 172.364 183.565 171.21 183.612C170.056 183.659 168.901 183.664 167.747 183.664C166.592 183.664 165.433 183.659 164.278 183.612Z" fill="#A6A6A6"/>
<path d="M156.26 131.862L156.567 139.308L156.832 146.76L157.295 161.658L157.274 162.573L157.425 170.025L157.534 177.481L157.227 170.035L156.962 162.583L156.889 161.668L156.52 146.765L156.369 139.313L156.26 131.862Z" fill="#123512"/>
<path d="M157.041 132.429C157.045 132.581 157.004 132.731 156.923 132.859C156.842 132.988 156.724 133.09 156.585 133.152C156.446 133.214 156.292 133.233 156.142 133.208C155.992 133.182 155.853 133.112 155.742 133.008C155.632 132.903 155.555 132.768 155.521 132.62C155.487 132.471 155.498 132.316 155.553 132.174C155.607 132.032 155.702 131.909 155.827 131.821C155.951 131.733 156.098 131.684 156.25 131.68C156.352 131.677 156.452 131.694 156.547 131.73C156.641 131.766 156.727 131.821 156.801 131.89C156.874 131.96 156.933 132.043 156.974 132.136C157.016 132.228 157.038 132.327 157.041 132.429Z" fill="#123512"/>
<path d="M157.456 147.16C157.467 147.266 157.456 147.372 157.424 147.473C157.392 147.575 157.34 147.668 157.27 147.748C157.2 147.828 157.114 147.892 157.018 147.937C156.922 147.982 156.818 148.007 156.712 148.01C156.606 148.013 156.5 147.994 156.402 147.954C156.303 147.914 156.214 147.854 156.14 147.778C156.066 147.703 156.009 147.612 155.971 147.513C155.933 147.414 155.917 147.308 155.922 147.202C155.911 147.096 155.922 146.99 155.954 146.888C155.986 146.787 156.039 146.694 156.109 146.614C156.179 146.534 156.264 146.47 156.36 146.425C156.456 146.38 156.561 146.355 156.667 146.352C156.773 146.349 156.878 146.368 156.977 146.408C157.075 146.448 157.164 146.508 157.238 146.583C157.312 146.659 157.37 146.75 157.407 146.849C157.445 146.948 157.462 147.054 157.456 147.16Z" fill="#123512"/>
<path d="M157.867 161.939C157.871 162.091 157.83 162.241 157.749 162.369C157.668 162.498 157.55 162.6 157.411 162.662C157.272 162.724 157.118 162.743 156.968 162.718C156.818 162.692 156.679 162.622 156.568 162.518C156.458 162.413 156.381 162.278 156.347 162.13C156.314 161.981 156.325 161.826 156.379 161.684C156.433 161.542 156.529 161.419 156.653 161.331C156.777 161.243 156.925 161.194 157.077 161.19C157.178 161.186 157.279 161.203 157.374 161.239C157.468 161.275 157.555 161.329 157.629 161.399C157.702 161.468 157.761 161.552 157.802 161.645C157.843 161.737 157.865 161.837 157.867 161.939Z" fill="#123512"/>
<path d="M158.278 176.691C158.289 176.796 158.278 176.903 158.246 177.004C158.214 177.105 158.162 177.199 158.092 177.279C158.022 177.358 157.936 177.423 157.84 177.468C157.744 177.513 157.64 177.538 157.534 177.541C157.428 177.544 157.322 177.525 157.224 177.485C157.125 177.445 157.036 177.385 156.962 177.309C156.888 177.233 156.83 177.143 156.793 177.044C156.755 176.944 156.739 176.838 156.744 176.733C156.74 176.529 156.816 176.332 156.956 176.184C157.096 176.036 157.289 175.949 157.493 175.942C157.594 175.939 157.694 175.957 157.788 175.993C157.882 176.029 157.968 176.083 158.041 176.153C158.114 176.223 158.173 176.306 158.214 176.398C158.254 176.491 158.276 176.59 158.278 176.691Z" fill="#123512"/>
<path d="M77.3809 180.341C77.4214 181.73 76.9553 183.086 76.0694 184.156C75.1835 185.226 73.9386 185.937 72.5668 186.156C71.1951 186.376 69.7904 186.089 68.615 185.348C67.4395 184.608 66.5737 183.465 66.179 182.133C65.7844 180.801 65.8879 179.371 66.4703 178.11C67.0528 176.849 68.0742 175.843 69.3441 175.279C70.6139 174.716 72.0453 174.634 73.3711 175.049C74.6969 175.464 75.8265 176.347 76.5489 177.533C77.0664 178.381 77.3532 179.349 77.3809 180.341Z" fill="#455A64"/>
<path d="M76.5493 177.533L71.6924 180.497L71.5312 174.809C72.5337 174.78 73.526 175.016 74.4073 175.495C75.2886 175.974 76.0276 176.677 76.5493 177.533Z" fill="#123512"/>
<path d="M75.6241 180.388C75.6465 181.167 75.4374 181.934 75.0233 182.594C74.6092 183.254 74.0087 183.776 73.2978 184.094C72.5869 184.412 71.7976 184.512 71.0298 184.382C70.2619 184.251 69.55 183.896 68.9842 183.361C68.4184 182.826 68.0241 182.135 67.8512 181.375C67.6783 180.616 67.7345 179.822 68.0128 179.095C68.2911 178.367 68.7789 177.739 69.4146 177.289C70.0502 176.838 70.8051 176.587 71.5837 176.566C72.6261 176.538 73.6369 176.925 74.3944 177.642C75.1519 178.358 75.5942 179.346 75.6241 180.388Z" fill="white"/>
<path d="M73.3148 179.571L70.04 179.663L70.053 180.125L73.3277 180.034L73.3148 179.571Z" fill="#263238"/>
<path d="M74.1621 180.837L69.2656 180.973L69.2785 181.436L74.175 181.299L74.1621 180.837Z" fill="#A6A6A6"/>
<path d="M93.2989 179.92C93.3079 180.2 93.2958 180.48 93.2625 180.757C93.1052 182.101 92.4763 183.346 91.4877 184.27C90.4992 185.195 89.215 185.738 87.8633 185.805C86.5116 185.872 85.1801 185.457 84.1054 184.635C83.0306 183.812 82.2822 182.636 81.9933 181.314C81.7043 179.991 81.8934 178.61 82.5271 177.414C83.1607 176.218 84.1978 175.286 85.4541 174.782C86.7103 174.279 88.1043 174.238 89.3883 174.665C90.6723 175.093 91.7631 175.961 92.4669 177.117C92.9875 177.961 93.2747 178.929 93.2989 179.92Z" fill="#455A64"/>
<path d="M93.2989 179.92C93.3079 180.2 93.2957 180.48 93.2625 180.757L87.6101 180.081L87.4541 174.393C88.4557 174.365 89.4469 174.602 90.3272 175.08C91.2075 175.559 91.9457 176.262 92.4669 177.117C92.9875 177.961 93.2746 178.929 93.2989 179.92Z" fill="#123512"/>
<path d="M91.5461 179.946C91.5674 180.724 91.3575 181.491 90.943 182.15C90.5284 182.809 89.9279 183.33 89.2172 183.648C88.5065 183.965 87.7176 184.065 86.9502 183.934C86.1829 183.804 85.4715 183.448 84.906 182.913C84.3405 182.378 83.9464 181.688 83.7733 180.929C83.6003 180.17 83.6561 179.377 83.9338 178.65C84.2115 177.922 84.6986 177.294 85.3334 176.843C85.9683 176.393 86.7224 176.141 87.5005 176.119C88.5443 176.091 89.5565 176.478 90.3149 177.196C91.0734 177.913 91.5162 178.902 91.5461 179.946Z" fill="white"/>
<path d="M89.2347 179.132L85.96 179.223L85.9729 179.686L89.2476 179.595L89.2347 179.132Z" fill="#263238"/>
<path d="M90.0811 180.392L85.1846 180.529L85.1975 180.992L90.094 180.855L90.0811 180.392Z" fill="#A6A6A6"/>
<path d="M109.325 179.452C109.358 180.602 109.04 181.734 108.416 182.7C107.791 183.665 106.888 184.419 105.826 184.86C105.183 185.13 104.495 185.279 103.798 185.297C102.664 185.335 101.545 185.035 100.583 184.435C99.6202 183.836 98.8575 182.964 98.3917 181.93C97.9258 180.896 97.7778 179.747 97.9664 178.629C98.155 177.511 98.6717 176.474 99.4509 175.65C100.23 174.826 101.237 174.252 102.343 174.002C103.448 173.751 104.604 173.835 105.662 174.242C106.72 174.65 107.634 175.363 108.286 176.29C108.938 177.218 109.3 178.318 109.325 179.452Z" fill="#455A64"/>
<path d="M109.325 179.452C109.358 180.602 109.04 181.734 108.416 182.7C107.791 183.665 106.888 184.419 105.826 184.86L103.636 179.608L103.48 173.919C104.228 173.898 104.972 174.024 105.67 174.291C106.369 174.557 107.008 174.959 107.551 175.473C108.094 175.987 108.53 176.603 108.834 177.286C109.139 177.969 109.306 178.705 109.325 179.452Z" fill="#123512"/>
<path d="M107.572 179.499C107.594 180.277 107.384 181.044 106.969 181.703C106.555 182.362 105.954 182.883 105.244 183.2C104.533 183.518 103.744 183.618 102.977 183.487C102.209 183.356 101.498 183.001 100.932 182.466C100.367 181.931 99.9727 181.241 99.7997 180.482C99.6266 179.723 99.6825 178.93 99.9602 178.202C100.238 177.475 100.725 176.847 101.36 176.396C101.995 175.946 102.749 175.694 103.527 175.672C104.044 175.657 104.559 175.745 105.042 175.929C105.525 176.114 105.967 176.392 106.343 176.747C106.718 177.102 107.02 177.528 107.231 178.001C107.442 178.473 107.558 178.982 107.572 179.499Z" fill="white"/>
<path d="M105.263 178.679L101.988 178.771L102.001 179.234L105.276 179.142L105.263 178.679Z" fill="#263238"/>
<path d="M106.115 179.94L101.219 180.076L101.232 180.539L106.128 180.402L106.115 179.94Z" fill="#A6A6A6"/>
<path d="M125.268 179.005C125.306 180.385 124.841 181.732 123.959 182.795C123.078 183.858 121.84 184.564 120.476 184.781C119.112 184.998 117.716 184.711 116.548 183.975C115.38 183.239 114.519 182.103 114.127 180.779C113.735 179.455 113.837 178.033 114.416 176.779C114.994 175.526 116.009 174.525 117.271 173.964C118.533 173.403 119.956 173.321 121.274 173.731C122.592 174.142 123.716 175.019 124.436 176.197C124.956 177.043 125.243 178.012 125.268 179.005Z" fill="#455A64"/>
<path d="M125.268 179.005C125.299 180.092 125.017 181.165 124.457 182.097C123.897 183.029 123.081 183.781 122.106 184.264C121.132 184.747 120.039 184.94 118.958 184.821C117.877 184.701 116.853 184.275 116.007 183.591L119.579 179.166L119.423 173.477C120.424 173.448 121.415 173.685 122.296 174.162C123.176 174.64 123.915 175.342 124.436 176.197C124.957 177.043 125.244 178.012 125.268 179.005Z" fill="#123512"/>
<path d="M123.516 179.057C123.537 179.835 123.327 180.602 122.913 181.261C122.498 181.92 121.898 182.441 121.187 182.758C120.476 183.076 119.687 183.176 118.92 183.045C118.153 182.914 117.441 182.559 116.876 182.024C116.31 181.489 115.916 180.799 115.743 180.04C115.57 179.281 115.626 178.488 115.904 177.76C116.181 177.033 116.668 176.405 117.303 175.954C117.938 175.504 118.692 175.252 119.47 175.23C119.987 175.215 120.502 175.303 120.985 175.487C121.468 175.672 121.91 175.95 122.286 176.305C122.662 176.66 122.964 177.086 123.175 177.559C123.386 178.031 123.502 178.54 123.516 179.057Z" fill="white"/>
<path d="M121.203 178.24L117.929 178.331L117.942 178.794L121.216 178.702L121.203 178.24Z" fill="#263238"/>
<path d="M122.05 179.5L117.153 179.637L117.166 180.099L122.063 179.963L122.05 179.5Z" fill="#A6A6A6"/>
<path d="M128.872 125.507L129.179 133.287L129.449 141.066L129.928 156.624L130.318 172.188L130.479 179.967L130.604 187.751L130.292 179.972L130.021 172.193L129.548 156.635L129.158 141.071L128.992 133.292L128.872 125.507Z" fill="#455A64"/>
<path d="M70.1993 206.05C70.131 206.115 70.0466 206.16 69.9549 206.18L69.8353 206.206H69.6221L69.4037 206.175C69.1207 206.123 68.8516 206.014 68.6133 205.853C68.0497 205.498 67.5619 205.035 67.1781 204.49C67.0085 204.261 66.8849 204.002 66.8141 203.726C66.8141 203.653 66.7881 203.58 66.7725 203.508V203.32C66.7808 203.252 66.7947 203.184 66.8141 203.118C66.8385 203.055 66.8662 202.995 66.8973 202.936L66.9337 202.967L67.8437 203.825C67.8487 203.833 67.8513 203.843 67.8513 203.853C67.8513 203.863 67.8487 203.873 67.8437 203.882C67.8213 203.956 67.8191 204.034 67.8374 204.109C67.8557 204.184 67.8938 204.253 67.9477 204.308C68.2048 204.584 68.4792 204.843 68.7693 205.083C68.8269 205.135 68.8975 205.17 68.9735 205.185C69.0495 205.199 69.1281 205.193 69.2009 205.166C69.2009 205.166 69.2373 205.166 69.2529 205.166L70.1785 206.04L70.1993 206.05Z" fill="#123512"/>
<path d="M70.7187 205.52L70.4171 205.837L69.4863 204.958L69.5539 204.891L69.8087 204.62C69.8223 204.602 69.8399 204.587 69.8602 204.577C69.8805 204.567 69.903 204.561 69.9257 204.561C69.9485 204.561 69.9709 204.567 69.9912 204.577C70.0115 204.587 70.0292 204.602 70.0427 204.62L70.7343 205.276C70.7539 205.29 70.7696 205.309 70.7799 205.331C70.7902 205.353 70.7948 205.378 70.7932 205.402C70.7917 205.426 70.784 205.45 70.771 205.47C70.758 205.491 70.74 205.508 70.7187 205.52Z" fill="#123512"/>
<path d="M68.3583 203.268L68.0203 203.606L67.0791 202.743V202.717L67.3859 202.395C67.3996 202.378 67.4167 202.365 67.436 202.356C67.4553 202.347 67.4764 202.342 67.4977 202.342C67.519 202.342 67.5401 202.347 67.5594 202.356C67.5787 202.365 67.5958 202.378 67.6095 202.395L68.3115 203.06C68.3288 203.07 68.3438 203.084 68.3556 203.1C68.3674 203.116 68.3758 203.135 68.3802 203.154C68.3846 203.174 68.3849 203.194 68.3811 203.214C68.3774 203.233 68.3696 203.252 68.3583 203.268Z" fill="#123512"/>
<path d="M70.7449 210.626L70.6513 210.72C70.1625 211.24 69.6685 211.713 69.1797 212.207C69.1583 212.232 69.1316 212.252 69.1015 212.266C69.0714 212.28 69.0387 212.287 69.0055 212.287C68.9724 212.287 68.9397 212.28 68.9096 212.266C68.8795 212.252 68.8528 212.232 68.8313 212.207L67.2401 210.782L67.1777 210.725C67.215 210.697 67.2609 210.682 67.3077 210.683L68.3477 210.652L70.5421 210.579C70.6128 210.575 70.6833 210.591 70.7449 210.626Z" fill="#123512"/>
<path d="M70.8123 213.309L70.6823 213.335L69.4291 213.377L67.4115 213.439C67.3538 213.442 67.2963 213.43 67.2451 213.403L68.4671 212.176L68.7115 212.394L68.8207 212.488C68.8459 212.513 68.8758 212.533 68.9089 212.547C68.9419 212.561 68.9773 212.568 69.0131 212.568C69.0489 212.568 69.0843 212.561 69.1174 212.547C69.1504 212.533 69.1804 212.513 69.2055 212.488C69.3147 212.379 69.4187 212.269 69.5331 212.16L70.8123 213.304V213.309Z" fill="#123512"/>
<path d="M68.3117 212.035C67.9113 212.441 67.5109 212.836 67.1209 213.242C67.1169 213.223 67.1169 213.203 67.1209 213.185C67.0949 212.446 67.0741 211.713 67.0481 210.975C67.0452 210.95 67.0452 210.926 67.0481 210.902C67.4641 211.281 67.8853 211.64 68.3117 212.035Z" fill="#123512"/>
<path d="M70.9433 213.127L70.4753 212.701L69.7109 212.025L69.6797 211.999C70.0801 211.588 70.4805 211.193 70.8705 210.787C70.8861 210.829 70.9589 213.065 70.9433 213.127Z" fill="#123512"/>
<path d="M130.952 201.536C130.85 201.82 130.794 202.119 130.785 202.42H130.031V202.337C130.031 202.233 130.031 202.134 130.078 202.03C130.112 201.864 130.164 201.702 130.234 201.547H130.936L130.952 201.536Z" fill="#123512"/>
<path d="M130.982 203.497H130.28C130.194 203.332 130.13 203.158 130.088 202.977C130.067 202.888 130.052 202.797 130.041 202.706V202.675H130.795C130.795 202.675 130.795 202.8 130.795 202.862C130.809 202.96 130.828 203.058 130.852 203.154C130.883 203.273 130.92 203.388 130.961 203.502L130.982 203.497Z" fill="#123512"/>
<path d="M133.988 203.637C133.929 203.732 133.863 203.822 133.791 203.908C133.705 204.01 133.609 204.104 133.505 204.188C133.401 204.272 133.29 204.345 133.172 204.407C133.059 204.466 132.941 204.515 132.818 204.552C132.722 204.585 132.623 204.61 132.522 204.625H132.48C132.693 204.47 132.877 204.28 133.026 204.064C133.109 203.939 133.182 203.809 133.245 203.674H133.957L133.988 203.637Z" fill="#123512"/>
<path d="M133.24 202.353L132.236 202.379L132.21 201.505H132.98C133.058 201.671 133.115 201.846 133.151 202.025C133.172 202.116 133.187 202.208 133.198 202.301C133.234 202.28 133.234 202.327 133.24 202.353Z" fill="#123512"/>
<path d="M133.239 202.582V202.644C133.242 202.692 133.242 202.741 133.239 202.79C133.239 202.857 133.239 202.925 133.213 202.992C133.189 203.139 133.15 203.284 133.099 203.424H132.309V202.576L133.239 202.582Z" fill="#123512"/>
<path d="M131.986 201.516L132.012 202.389L131.034 202.42V202.353C131.032 202.304 131.032 202.256 131.034 202.207C131.034 202.129 131.034 202.056 131.066 201.984C131.095 201.834 131.139 201.688 131.196 201.547H131.944L131.986 201.516Z" fill="#123512"/>
<path d="M132.017 202.628C132.017 202.904 132.017 203.18 132.043 203.455H131.274C131.21 203.315 131.161 203.169 131.128 203.018C131.128 202.94 131.097 202.862 131.087 202.784C131.076 202.706 131.087 202.68 131.087 202.628L132.043 202.602C132.043 202.602 132.017 202.618 132.017 202.628Z" fill="#123512"/>
<path d="M134.3 202.327H133.479C133.455 202.026 133.383 201.731 133.266 201.453H134.02C134.11 201.617 134.178 201.791 134.222 201.973C134.247 202.074 134.265 202.177 134.274 202.28L134.3 202.327Z" fill="#123512"/>
<path d="M134.305 202.545V202.608C134.305 202.68 134.305 202.753 134.305 202.826C134.28 203.004 134.235 203.178 134.17 203.346L134.134 203.419H133.38C133.391 203.394 133.4 203.368 133.406 203.341C133.447 203.21 133.479 203.076 133.499 202.94C133.499 202.842 133.499 202.738 133.525 202.639V202.571L134.305 202.545Z" fill="#123512"/>
<path d="M133.9 201.24H133.182C133.081 201.052 132.957 200.878 132.813 200.72C132.727 200.63 132.633 200.548 132.532 200.476L132.376 200.366C132.684 200.393 132.983 200.486 133.252 200.638C133.522 200.791 133.755 201 133.936 201.25L133.9 201.24Z" fill="#123512"/>
<path d="M131.934 204.646C131.856 204.637 131.777 204.623 131.7 204.604C131.555 204.573 131.414 204.526 131.279 204.464C131.125 204.393 130.98 204.304 130.848 204.199C130.754 204.121 130.666 204.038 130.582 203.949C130.523 203.88 130.467 203.807 130.416 203.731H131.087C131.159 203.87 131.244 204.003 131.342 204.126C131.432 204.237 131.531 204.342 131.638 204.438C131.728 204.516 131.823 204.588 131.924 204.651L131.934 204.646Z" fill="#123512"/>
<path d="M131.805 200.387L131.706 200.465C131.593 200.558 131.489 200.661 131.394 200.772C131.262 200.93 131.152 201.105 131.066 201.292V201.323H131.019H130.364C130.525 201.07 130.737 200.854 130.987 200.689C131.237 200.524 131.519 200.414 131.815 200.366L131.805 200.387Z" fill="#123512"/>
<path d="M132.974 203.668C132.889 203.832 132.782 203.984 132.657 204.121C132.55 204.248 132.425 204.359 132.288 204.454V203.684L132.974 203.668Z" fill="#123512"/>
<path d="M132.049 203.694V204.443C131.758 204.26 131.517 204.008 131.347 203.71L132.049 203.694Z" fill="#123512"/>
<path d="M132.886 201.24H132.205V200.522C132.347 200.609 132.478 200.712 132.595 200.829C132.707 200.955 132.805 201.092 132.886 201.24Z" fill="#123512"/>
<path d="M131.961 200.585V201.287H131.306C131.468 201.006 131.692 200.766 131.961 200.585Z" fill="#123512"/>
<path d="M133.995 208.879C133.798 208.501 133.475 208.202 133.082 208.035C132.69 207.868 132.251 207.843 131.842 207.964C131.441 208.067 131.09 208.311 130.855 208.652C130.62 208.994 130.516 209.408 130.563 209.82C130.606 210.097 130.696 210.364 130.828 210.611C131.111 211.148 131.472 211.64 131.899 212.072C132.071 212.254 132.248 212.425 132.419 212.592L132.471 212.54C132.69 212.295 132.913 212.056 133.116 211.807C133.508 211.343 133.815 210.815 134.026 210.247C134.116 210.029 134.16 209.795 134.154 209.559C134.149 209.324 134.095 209.092 133.995 208.879ZM132.326 210.678C132.174 210.684 132.022 210.658 131.88 210.603C131.739 210.548 131.61 210.465 131.502 210.358C131.393 210.251 131.308 210.123 131.251 209.982C131.195 209.841 131.167 209.689 131.171 209.537C131.175 209.385 131.21 209.236 131.274 209.098C131.338 208.96 131.43 208.837 131.543 208.735C131.657 208.634 131.79 208.557 131.934 208.51C132.079 208.462 132.231 208.444 132.383 208.458C132.535 208.452 132.686 208.478 132.828 208.533C132.97 208.588 133.099 208.671 133.207 208.778C133.315 208.885 133.4 209.013 133.457 209.154C133.514 209.295 133.541 209.446 133.537 209.598C133.533 209.75 133.498 209.9 133.434 210.038C133.37 210.176 133.279 210.299 133.165 210.4C133.051 210.502 132.918 210.578 132.774 210.626C132.63 210.674 132.477 210.692 132.326 210.678Z" fill="#123512"/>
<path d="M74.6826 202.8C77.4126 202.644 80.1426 202.53 82.8778 202.426L91.073 202.15L99.2734 201.968C102.009 201.921 104.739 201.885 107.474 201.885C104.744 202.041 102.014 202.155 99.2786 202.265L91.0834 202.535L82.883 202.717C80.1478 202.764 77.4178 202.8 74.6826 202.8Z" fill="#A6A6A6"/>
<path d="M74.7451 205.161C76.1127 205.047 77.4751 204.969 78.8427 204.901C80.2103 204.833 81.5727 204.797 82.9403 204.74C84.3079 204.683 85.6755 204.677 87.0431 204.672C88.4107 204.667 89.7731 204.672 91.1459 204.703C89.7783 204.823 88.4159 204.896 87.0483 204.963C85.6807 205.031 84.3183 205.073 82.9507 205.125C81.5831 205.177 80.2155 205.187 78.8479 205.192C77.4803 205.197 76.1127 205.203 74.7451 205.161Z" fill="#A6A6A6"/>
<path d="M74.8799 210.663C77.6099 210.507 80.3399 210.397 83.0751 210.288L91.2703 210.018L99.4707 209.831C102.206 209.784 104.936 209.747 107.671 209.753C104.941 209.909 102.211 210.018 99.4811 210.127L91.2807 210.397L83.0803 210.585C80.3659 210.626 77.6359 210.668 74.8799 210.663Z" fill="#A6A6A6"/>
<path d="M74.9639 213.023C76.3315 212.909 77.6939 212.831 79.0615 212.763C80.4291 212.696 81.7915 212.659 83.1591 212.607C84.5267 212.555 85.8943 212.545 87.2619 212.535C88.6295 212.524 89.9971 212.535 91.3647 212.566C89.9971 212.685 88.6347 212.763 87.2671 212.831C85.8995 212.899 84.5371 212.935 83.1695 212.987C81.8019 213.039 80.4343 213.049 79.0719 213.06C77.7095 213.07 76.3367 213.065 74.9639 213.023Z" fill="#A6A6A6"/>
<path d="M140.083 200.98C142.813 200.824 145.548 200.71 148.278 200.606L156.479 200.33L164.679 200.148C167.409 200.101 170.144 200.06 172.879 200.065C170.149 200.221 167.419 200.335 164.684 200.439L156.489 200.715L148.289 200.897C145.553 200.944 142.818 200.98 140.083 200.98Z" fill="#A6A6A6"/>
<path d="M140.151 203.32C141.514 203.201 142.881 203.128 144.249 203.06C145.617 202.993 146.979 202.951 148.347 202.899C149.714 202.847 151.077 202.837 152.444 202.826C153.812 202.816 155.179 202.826 156.547 202.863C155.185 202.977 153.817 203.055 152.455 203.123C151.092 203.19 149.719 203.227 148.357 203.284C146.995 203.341 145.622 203.346 144.254 203.351C142.887 203.357 141.519 203.383 140.151 203.32Z" fill="#A6A6A6"/>
<path d="M140.302 208.843C143.037 208.687 145.767 208.572 148.497 208.468L156.697 208.193L164.898 208.011C167.628 207.964 170.363 207.927 173.098 207.927C170.368 208.083 167.638 208.198 164.903 208.302L156.708 208.577L148.507 208.759C145.772 208.806 143.037 208.843 140.302 208.843Z" fill="#A6A6A6"/>
<path d="M140.369 211.203C141.732 211.084 143.099 211.011 144.467 210.943C145.834 210.876 147.197 210.839 148.564 210.782C149.932 210.725 151.294 210.72 152.662 210.715C154.03 210.709 155.397 210.715 156.765 210.746C155.402 210.865 154.04 210.938 152.672 211.006C151.305 211.073 149.942 211.115 148.575 211.167C147.207 211.219 145.84 211.229 144.472 211.235C143.104 211.24 141.737 211.245 140.369 211.203Z" fill="#A6A6A6"/>
<path d="M173.566 26.4474L203.992 40.0298L188.782 44.013L173.566 26.4474Z" fill="#DBDBDB"/>
<path d="M123.927 221.327H38.9541V237.276H123.927V221.327Z" fill="#123512"/>
<path d="M32.1992 221.327H35.574V237.276H32.1992C30.0877 237.276 28.0624 236.438 26.5679 234.947C25.0734 233.455 24.2317 231.431 24.2276 229.32C24.2248 228.271 24.429 227.232 24.8284 226.263C25.2278 225.293 25.8145 224.412 26.555 223.67C27.2955 222.927 28.1752 222.338 29.1438 221.936C30.1123 221.534 31.1506 221.327 32.1992 221.327Z" fill="#D3766A"/>
<path d="M35.5741 237.281H38.9541V221.333H35.5741V237.281Z" fill="#C7C7C7"/>
<path d="M123.719 237.276L133.079 231.26L136.199 229.289L133.152 227.297L123.927 221.327L122.029 222.95C122.029 222.95 123.854 224.484 123.885 224.51L121.987 226.127C121.987 226.127 123.818 227.687 123.844 227.687L121.941 229.32C121.941 229.32 123.771 230.88 123.797 230.927L121.899 232.487C121.899 232.487 123.729 234.047 123.755 234.093L121.857 235.653L123.719 237.276Z" fill="white"/>
<path d="M133.095 231.26L136.194 229.289L133.147 227.302L133.095 231.26Z" fill="#263238"/>
<g opacity="0.1">
<path d="M42.6787 223.574L51.9763 223.48L61.2739 223.423L79.8743 223.376L98.4695 223.423L107.772 223.475L117.07 223.574L107.772 223.667L98.4695 223.725L79.8743 223.766L61.2739 223.725L51.9763 223.667L42.6787 223.574Z" fill="black"/>
<path d="M42.6787 227.375L51.9763 227.281L61.2739 227.229L79.8743 227.183L98.4695 227.229L107.772 227.281L117.07 227.375L107.772 227.474L98.4695 227.526L79.8743 227.573L61.2739 227.526L51.9763 227.474L42.6787 227.375Z" fill="black"/>
<path d="M42.6787 231.181L51.9763 231.088L61.2739 231.031L79.8743 230.989L98.4695 231.031L107.772 231.088L117.07 231.181L107.772 231.275L98.4695 231.332L79.8743 231.374L61.2739 231.332L51.9763 231.275L42.6787 231.181Z" fill="black"/>
<path d="M42.6787 234.988L51.9763 234.889L61.2739 234.837L79.8743 234.79L98.4695 234.837L107.772 234.889L117.07 234.988L107.772 235.081L98.4695 235.139L79.8743 235.18L61.2739 235.134L51.9763 235.081L42.6787 234.988Z" fill="black"/>
</g>
<rect width="48" height="50.2645" transform="translate(70.627 50.1762) rotate(-1.10347)" fill="#F3F5F5"/>
<path d="M94.058 59.4754C89.8649 59.5856 86.5457 63.0841 86.6559 67.2771C86.764 71.3902 90.0683 74.6344 94.2651 74.6683C94.3928 74.6489 94.5208 74.6455 94.6172 74.659C94.6492 74.6582 94.6652 74.6577 94.6973 74.6569C94.7133 74.6565 94.7133 74.6565 94.7293 74.6561C98.8225 74.4043 101.952 70.9909 101.86 66.8775C101.749 62.6844 98.251 59.3652 94.058 59.4754Z" fill="#DCDCDC"/>
<path d="M102.7 78.7066C98.1563 75.8472 90.8745 76.0386 86.4556 79.1336C84.4589 80.5473 83.387 82.4173 83.4387 84.3858C83.4904 86.3543 84.6587 88.1493 86.7105 89.4406C88.9906 90.8861 91.9552 91.5609 94.8999 91.4835C97.8446 91.4061 100.77 90.5765 102.971 89.0132C104.951 87.5998 106.024 85.7459 105.972 83.7614C105.904 81.7934 104.752 79.9979 102.7 78.7066Z" fill="#DCDCDC"/>
</svg>
