<svg width="20" height="21" viewBox="0 0 20 21" fill="none" xmlns="http://www.w3.org/2000/svg">
<path d="M9.16699 2.1665H7.50033C3.33366 2.1665 1.66699 3.83317 1.66699 7.99984V12.9998C1.66699 17.1665 3.33366 18.8332 7.50033 18.8332H12.5003C16.667 18.8332 18.3337 17.1665 18.3337 12.9998V11.3332" stroke="#27AE60" stroke-width="1.25" stroke-linecap="round" stroke-linejoin="round"/>
<path d="M13.3666 3.01639L6.7999 9.58306C6.5499 9.83306 6.2999 10.3247 6.2499 10.6831L5.89157 13.1914C5.75823 14.0997 6.3999 14.7331 7.30823 14.6081L9.81657 14.2497C10.1666 14.1997 10.6582 13.9497 10.9166 13.6997L17.4832 7.13306C18.6166 5.99972 19.1499 4.68306 17.4832 3.01639C15.8166 1.34972 14.4999 1.88306 13.3666 3.01639Z" stroke="#27AE60" stroke-width="1.25" stroke-miterlimit="10" stroke-linecap="round" stroke-linejoin="round"/>
<path d="M12.4248 3.9585C12.9831 5.95016 14.5415 7.5085 16.5415 8.07516" stroke="#27AE60" stroke-width="1.25" stroke-miterlimit="10" stroke-linecap="round" stroke-linejoin="round"/>
</svg>
