<svg width="234" height="185" viewBox="0 0 234 185" fill="none" xmlns="http://www.w3.org/2000/svg">
<path opacity="0.7" d="M117 150.5C180.57 150.5 232.105 145.589 232.105 139.531C232.105 133.473 180.57 128.562 117 128.562C53.4288 128.562 1.89453 133.473 1.89453 139.531C1.89453 145.589 53.4288 150.5 117 150.5Z" fill="#F1F3F9"/>
<path opacity="0.4" d="M195.496 59.1838H38.5723L41.1088 134.321C41.2459 137.543 43.8511 140.08 47.0046 140.08H186.995C190.218 140.08 192.823 137.543 192.891 134.321L195.496 59.1838Z" fill="#D6DCE8"/>
<g filter="url(#filter0_d_2021_2721)">
<path d="M195.496 56.4415L194.399 87.9772L192.89 131.647C192.753 134.869 190.148 137.337 186.995 137.337H47.0038C43.7817 137.337 41.1766 134.801 41.108 131.647L39.5998 87.9772L38.5029 56.4415H195.496Z" fill="url(#paint0_linear_2021_2721)"/>
</g>
<path d="M139.212 37.7944H94.7879C88.4122 37.7944 83.2705 32.6527 83.2705 26.277V12.0174C83.2705 5.64174 88.4122 0.500061 94.7879 0.500061H139.212C145.588 0.500061 150.729 5.64174 150.729 12.0174V26.277C150.729 32.6527 145.588 37.7944 139.212 37.7944ZM94.7879 8.72675C93.0054 8.72675 91.4972 10.235 91.4972 12.0174V26.277C91.4972 28.0595 93.0054 29.5677 94.7879 29.5677H139.212C140.994 29.5677 142.503 28.0595 142.503 26.277V12.0174C142.503 10.235 140.994 8.72675 139.212 8.72675H94.7879Z" fill="#D5DDEA"/>
<g filter="url(#filter1_d_2021_2721)">
<path d="M195.153 81.5327H38.8458C34.5953 81.5327 31.3732 77.8307 31.8531 73.6488L37.2004 28.1278C37.5432 25.2485 39.9427 23.1232 42.822 23.1232H191.108C193.987 23.1232 196.455 25.317 196.73 28.1278L202.077 73.6488C202.625 77.8307 199.403 81.5327 195.153 81.5327Z" fill="url(#paint1_linear_2021_2721)"/>
</g>
<path d="M80.5962 94.0791H65.5139C64.1428 94.0791 63.0459 92.9822 63.0459 91.6111V76.5288C63.0459 75.1577 64.1428 74.0608 65.5139 74.0608H80.5962C81.9673 74.0608 83.0642 75.1577 83.0642 76.5288V91.6111C83.0642 92.9822 81.9673 94.0791 80.5962 94.0791ZM67.9819 89.0745H78.1282V78.9282H67.9819V89.0745Z" fill="#989FB0"/>
<path d="M168.485 94.0788H153.403C152.031 94.0788 150.935 92.9819 150.935 91.6108V76.5286C150.935 75.1574 152.031 74.0605 153.403 74.0605H168.485C169.856 74.0605 170.953 75.1574 170.953 76.5286V91.6108C170.953 92.9819 169.856 94.0788 168.485 94.0788ZM155.939 89.0742H166.085V78.928H155.939V89.0742Z" fill="#989FB0"/>
<defs>
<filter id="filter0_d_2021_2721" x="7.04564" y="40.7129" width="219.907" height="143.81" filterUnits="userSpaceOnUse" color-interpolation-filters="sRGB">
<feFlood flood-opacity="0" result="BackgroundImageFix"/>
<feColorMatrix in="SourceAlpha" type="matrix" values="0 0 0 0 0 0 0 0 0 0 0 0 0 0 0 0 0 0 127 0" result="hardAlpha"/>
<feOffset dy="15.7286"/>
<feGaussianBlur stdDeviation="15.7286"/>
<feColorMatrix type="matrix" values="0 0 0 0 0.397708 0 0 0 0 0.47749 0 0 0 0 0.575 0 0 0 0.27 0"/>
<feBlend mode="normal" in2="BackgroundImageFix" result="effect1_dropShadow_2021_2721"/>
<feBlend mode="normal" in="SourceGraphic" in2="effect1_dropShadow_2021_2721" result="shape"/>
</filter>
<filter id="filter1_d_2021_2721" x="0.348377" y="7.39459" width="233.247" height="121.324" filterUnits="userSpaceOnUse" color-interpolation-filters="sRGB">
<feFlood flood-opacity="0" result="BackgroundImageFix"/>
<feColorMatrix in="SourceAlpha" type="matrix" values="0 0 0 0 0 0 0 0 0 0 0 0 0 0 0 0 0 0 127 0" result="hardAlpha"/>
<feOffset dy="15.7286"/>
<feGaussianBlur stdDeviation="15.7286"/>
<feColorMatrix type="matrix" values="0 0 0 0 0.397708 0 0 0 0 0.47749 0 0 0 0 0.575 0 0 0 0.27 0"/>
<feBlend mode="normal" in2="BackgroundImageFix" result="effect1_dropShadow_2021_2721"/>
<feBlend mode="normal" in="SourceGraphic" in2="effect1_dropShadow_2021_2721" result="shape"/>
</filter>
<linearGradient id="paint0_linear_2021_2721" x1="116.948" y1="54.5703" x2="116.948" y2="138.209" gradientUnits="userSpaceOnUse">
<stop stop-color="#FDFEFF"/>
<stop offset="0.9964" stop-color="#ECF0F5"/>
</linearGradient>
<linearGradient id="paint1_linear_2021_2721" x1="116.916" y1="21.7722" x2="116.916" y2="82.1624" gradientUnits="userSpaceOnUse">
<stop stop-color="#F3F6FB"/>
<stop offset="0.9964" stop-color="#ECF0F5"/>
</linearGradient>
</defs>
</svg>
