<svg width="198" height="198" viewBox="0 0 198 198" fill="none" xmlns="http://www.w3.org/2000/svg">
<g filter="url(#filter0_d_2045_1878)">
<circle cx="99.3648" cy="83.1573" r="67.0787" fill="url(#paint0_linear_2045_1878)"/>
</g>
<circle cx="157.981" cy="47.3966" r="3.34063" stroke="#D5DDEA" stroke-width="1.34831"/>
<circle cx="34.7785" cy="73.6891" r="4.01478" fill="#D5DDEA"/>
<circle cx="108.43" cy="150.206" r="3.34063" stroke="#D5DDEA" stroke-width="1.34831"/>
<circle cx="96.3349" cy="127.83" r="2.53767" stroke="#D5DDEA" stroke-width="1.34831"/>
<g filter="url(#filter1_f_2045_1878)">
<path d="M50.8199 87.8765L51.958 90.9519L55.0334 92.0899L51.958 93.228L50.8199 96.3034L49.6819 93.228L46.6064 92.0899L49.6819 90.9519L50.8199 87.8765Z" fill="#D5DDEA"/>
</g>
<g filter="url(#filter2_f_2045_1878)">
<path d="M122.75 22.8203L124.789 28.3295L130.298 30.3681L124.789 32.4067L122.75 37.9159L120.711 32.4067L115.202 30.3681L120.711 28.3295L122.75 22.8203Z" fill="#D5DDEA"/>
</g>
<path d="M160.229 108.101L161.92 112.673L166.492 114.364L161.92 116.056L160.229 120.627L158.537 116.056L153.966 114.364L158.537 112.673L160.229 108.101Z" fill="#D5DDEA"/>
<g filter="url(#filter3_d_2045_1878)">
<path fill-rule="evenodd" clip-rule="evenodd" d="M141.158 40.6855H58.2363V139.113H68.3463C68.4265 139.026 68.5125 138.942 68.6043 138.861L96.623 114.117C97.8976 112.991 99.811 112.991 101.086 114.117L129.104 138.861C129.196 138.942 129.282 139.026 129.362 139.113H141.158V40.6855Z" fill="url(#paint1_linear_2045_1878)"/>
</g>
<path d="M98.3539 58.2748C98.8697 57.3598 100.187 57.3598 100.703 58.2748L106.019 67.7069C106.212 68.0482 106.543 68.289 106.927 68.3665L117.541 70.5079C118.57 70.7157 118.977 71.9689 118.266 72.7421L110.939 80.7129C110.674 81.0013 110.547 81.3909 110.592 81.7802L111.835 92.5357C111.956 93.5791 110.89 94.3536 109.935 93.9165L100.09 89.4107C99.7333 89.2476 99.3237 89.2476 98.9674 89.4107L89.1224 93.9165C88.1673 94.3536 87.1013 93.5791 87.2219 92.5357L88.465 81.7802C88.5099 81.3909 88.3834 81.0013 88.1182 80.7129L80.7906 72.7421C80.0797 71.9689 80.4869 70.7157 81.5165 70.5079L92.1297 68.3665C92.5139 68.289 92.8452 68.0482 93.0376 67.7069L98.3539 58.2748Z" fill="#D5DDEA"/>
<g clip-path="url(#clip0_2045_1878)">
<path d="M70.8406 116.022C70.2058 115.06 69.3932 114.228 68.4468 113.573C68.3777 112.523 68.1328 111.492 67.7223 110.524C67.2023 109.335 66.453 108.261 65.5175 107.364C64.5876 106.398 63.4736 105.63 62.2417 105.105C61.0242 104.62 59.7244 104.379 58.4148 104.394C56.4309 104.377 54.4882 104.961 52.8397 106.068C51.9189 106.684 51.1049 107.448 50.4302 108.328C49.915 108.2 49.386 108.136 48.8553 108.138C48.0513 108.128 47.2533 108.278 46.5073 108.579C45.7613 108.88 45.082 109.326 44.5086 109.892C43.8524 110.536 43.3511 111.322 43.0428 112.19C42.7344 113.058 42.6271 113.985 42.729 114.9C41.9379 115.376 41.2347 115.985 40.6502 116.701C39.4589 118.118 38.8209 119.92 38.8548 121.773C38.8441 122.83 39.0512 123.878 39.4631 124.851C39.875 125.825 40.4829 126.702 41.2486 127.429C42.0045 128.161 42.8973 128.737 43.8757 129.122C44.8542 129.507 45.8989 129.694 46.9497 129.672H63.2024C64.3707 129.677 65.5285 129.451 66.6095 129.006C67.6904 128.562 68.6734 127.907 69.5019 127.081C70.3519 126.265 71.0317 125.288 71.502 124.206C71.9548 123.12 72.1851 121.954 72.1792 120.777C72.2104 119.094 71.7446 117.44 70.8406 116.022Z" fill="#BCC3D6"/>
</g>
<g clip-path="url(#clip1_2045_1878)">
<path d="M158.157 75.6604C157.682 74.942 157.075 74.3213 156.367 73.8319C156.316 73.0479 156.133 72.2782 155.826 71.5551C155.437 70.6675 154.877 69.8656 154.178 69.1958C153.483 68.4747 152.65 67.901 151.729 67.5089C150.819 67.1474 149.847 66.967 148.869 66.978C147.386 66.9659 145.934 67.4016 144.701 68.2285C144.013 68.6884 143.405 69.2582 142.9 69.9154C142.515 69.8198 142.12 69.7722 141.723 69.7738C141.122 69.7665 140.526 69.8785 139.968 70.1032C139.41 70.3279 138.903 70.661 138.474 71.0833C137.984 71.5645 137.609 72.1513 137.378 72.7992C137.148 73.4471 137.068 74.1392 137.144 74.8228C136.553 75.1781 136.027 75.6331 135.59 76.1676C134.7 77.2252 134.223 78.5708 134.248 79.9543C134.24 80.7438 134.395 81.5264 134.703 82.2531C135.011 82.9799 135.465 83.635 136.037 84.1776C136.602 84.7246 137.27 85.1542 138.001 85.4417C138.732 85.7292 139.513 85.8689 140.299 85.8527H152.447C153.321 85.8564 154.186 85.6874 154.994 85.3554C155.802 85.0234 156.537 84.535 157.156 83.918C157.791 83.3087 158.299 82.5789 158.651 81.771C158.989 80.9604 159.162 80.0898 159.157 79.2112C159.18 77.9546 158.832 76.7191 158.157 75.6604Z" fill="#BCC3D6"/>
</g>
<g clip-path="url(#clip2_2045_1878)">
<path d="M75.2784 46.5638C74.7462 45.7429 74.0649 45.0335 73.2714 44.4742C73.2135 43.5781 73.0082 42.6985 72.6641 41.8721C72.2281 40.8577 71.5999 39.9413 70.8156 39.1758C70.0359 38.3517 69.102 37.696 68.0692 37.2479C67.0485 36.8347 65.9587 36.6286 64.8608 36.6412C63.1976 36.6273 61.5688 37.1253 60.1867 38.0702C59.4147 38.5958 58.7323 39.2471 58.1666 39.9982C57.7347 39.8889 57.2912 39.8346 56.8463 39.8364C56.1722 39.828 55.5032 39.956 54.8777 40.2128C54.2523 40.4696 53.6828 40.8503 53.2021 41.3329C52.6519 41.8828 52.2316 42.5535 51.9731 43.294C51.7146 44.0345 51.6247 44.8253 51.7101 45.6066C51.0469 46.0127 50.4572 46.5327 49.9672 47.1436C48.9685 48.3522 48.4336 49.8901 48.462 51.4713C48.453 52.3735 48.6267 53.2679 48.972 54.0985C49.3174 54.929 49.827 55.6777 50.469 56.2978C51.1026 56.923 51.8512 57.414 52.6715 57.7425C53.4918 58.0711 54.3677 58.2307 55.2486 58.2122H68.8747C69.8541 58.2164 70.8248 58.0233 71.7311 57.6439C72.6373 57.2645 73.4614 56.7063 74.1561 56.0012C74.8687 55.3048 75.4386 54.4707 75.8329 53.5475C76.2125 52.6211 76.4056 51.6261 76.4007 50.6219C76.4268 49.1858 76.0363 47.7739 75.2784 46.5638Z" fill="#BCC3D6"/>
</g>
<defs>
<filter id="filter0_d_2045_1878" x="0.828846" y="0.34997" width="197.072" height="197.072" filterUnits="userSpaceOnUse" color-interpolation-filters="sRGB">
<feFlood flood-opacity="0" result="BackgroundImageFix"/>
<feColorMatrix in="SourceAlpha" type="matrix" values="0 0 0 0 0 0 0 0 0 0 0 0 0 0 0 0 0 0 127 0" result="hardAlpha"/>
<feOffset dy="15.7286"/>
<feGaussianBlur stdDeviation="15.7286"/>
<feColorMatrix type="matrix" values="0 0 0 0 0.397708 0 0 0 0 0.47749 0 0 0 0 0.575 0 0 0 0.27 0"/>
<feBlend mode="normal" in2="BackgroundImageFix" result="effect1_dropShadow_2045_1878"/>
<feBlend mode="normal" in="SourceGraphic" in2="effect1_dropShadow_2045_1878" result="shape"/>
</filter>
<filter id="filter1_f_2045_1878" x="45.2581" y="86.5282" width="11.1234" height="11.1234" filterUnits="userSpaceOnUse" color-interpolation-filters="sRGB">
<feFlood flood-opacity="0" result="BackgroundImageFix"/>
<feBlend mode="normal" in="SourceGraphic" in2="BackgroundImageFix" result="shape"/>
<feGaussianBlur stdDeviation="0.674157" result="effect1_foregroundBlur_2045_1878"/>
</filter>
<filter id="filter2_f_2045_1878" x="113.854" y="21.472" width="17.7923" height="17.7923" filterUnits="userSpaceOnUse" color-interpolation-filters="sRGB">
<feFlood flood-opacity="0" result="BackgroundImageFix"/>
<feBlend mode="normal" in="SourceGraphic" in2="BackgroundImageFix" result="shape"/>
<feGaussianBlur stdDeviation="0.674157" result="effect1_foregroundBlur_2045_1878"/>
</filter>
<filter id="filter3_d_2045_1878" x="26.779" y="24.9569" width="145.835" height="161.341" filterUnits="userSpaceOnUse" color-interpolation-filters="sRGB">
<feFlood flood-opacity="0" result="BackgroundImageFix"/>
<feColorMatrix in="SourceAlpha" type="matrix" values="0 0 0 0 0 0 0 0 0 0 0 0 0 0 0 0 0 0 127 0" result="hardAlpha"/>
<feOffset dy="15.7286"/>
<feGaussianBlur stdDeviation="15.7286"/>
<feColorMatrix type="matrix" values="0 0 0 0 0.397708 0 0 0 0 0.47749 0 0 0 0 0.575 0 0 0 0.27 0"/>
<feBlend mode="normal" in2="BackgroundImageFix" result="effect1_dropShadow_2045_1878"/>
<feBlend mode="normal" in="SourceGraphic" in2="effect1_dropShadow_2045_1878" result="shape"/>
</filter>
<linearGradient id="paint0_linear_2045_1878" x1="99.3211" y1="12.9754" x2="99.3211" y2="151.682" gradientUnits="userSpaceOnUse">
<stop stop-color="#FDFEFF"/>
<stop offset="0.9964" stop-color="#ECF0F5"/>
</linearGradient>
<linearGradient id="paint1_linear_2045_1878" x1="99.67" y1="38.4088" x2="99.67" y2="140.174" gradientUnits="userSpaceOnUse">
<stop stop-color="#F3F6FB"/>
<stop offset="0.9964" stop-color="#ECF0F5"/>
</linearGradient>
<clipPath id="clip0_2045_1878">
<rect width="33.3708" height="25.2809" fill="white" transform="translate(38.8535 104.393)"/>
</clipPath>
<clipPath id="clip1_2045_1878">
<rect width="24.9438" height="18.8764" fill="white" transform="translate(134.247 66.9775)"/>
</clipPath>
<clipPath id="clip2_2045_1878">
<rect width="27.9775" height="21.573" fill="white" transform="translate(48.4609 36.6406)"/>
</clipPath>
</defs>
</svg>
