<svg width="28" height="29" viewBox="0 0 28 29" fill="none" xmlns="http://www.w3.org/2000/svg">
<path d="M6.30013 2.95013H21.7001C22.9835 2.95013 24.0335 4.00013 24.0335 5.28347V7.85013C24.0335 8.78347 23.4501 9.95014 22.8668 10.5335L17.8501 14.9668C17.1501 15.5501 16.6835 16.7168 16.6835 17.6501V22.6668C16.6835 23.3668 16.2168 24.3001 15.6335 24.6501L14.0001 25.7001C12.4835 26.6335 10.3835 25.5835 10.3835 23.7168V17.5335C10.3835 16.7168 9.9168 15.6668 9.45013 15.0835L5.0168 10.4168C4.43346 9.83347 3.9668 8.78347 3.9668 8.08347V5.40013C3.9668 4.00013 5.0168 2.95013 6.30013 2.95013Z" stroke="#8E8E93" stroke-width="1.75" stroke-miterlimit="10" stroke-linecap="round" stroke-linejoin="round"/>
<path d="M12.7517 2.95013L7 12.1668" stroke="#8E8E93" stroke-width="1.75" stroke-miterlimit="10" stroke-linecap="round" stroke-linejoin="round"/>
</svg>
