<svg width="24" height="25" viewBox="0 0 24 25" fill="none" xmlns="http://www.w3.org/2000/svg">
<path d="M11.601 4.07976C11.601 4.09683 11.5935 4.09896 11.4559 4.12243C11.0623 4.18856 10.6239 4.38483 10.2645 4.6579C10.2047 4.70376 10.081 4.8147 9.99032 4.90643C9.54552 5.35016 9.29699 5.8355 9.18819 6.47016C9.15619 6.65896 9.15299 7.09097 9.18285 7.3011C9.26819 7.89737 9.54659 8.4595 9.96899 8.88403C10.0885 9.00457 10.2399 9.13257 10.3434 9.2019C10.3839 9.22857 10.417 9.2563 10.417 9.2627C10.417 9.27337 8.11939 10.7422 6.51299 11.7576C5.97432 12.099 5.91779 12.1427 5.87405 12.2611L5.85059 12.3219L5.85379 13.4654L5.85699 14.6078L5.88579 14.7112C5.98605 15.075 6.26979 15.4152 6.59939 15.5667C7.03672 15.7672 7.53805 15.7224 7.92632 15.4472C8.11725 15.3128 8.28899 15.091 8.37965 14.8648C8.48312 14.6078 8.49379 14.4072 8.43299 13.8718C8.42125 13.7715 8.40525 13.6019 8.39565 13.4931C8.38712 13.3843 8.36045 13.1059 8.33699 12.8744C8.31352 12.643 8.28472 12.3507 8.27405 12.2248C8.26232 12.1 8.24845 11.9923 8.24205 11.9859C8.22925 11.9731 8.23032 11.9731 7.82499 12.2312L7.51032 12.4318L7.50712 12.4766C7.50499 12.5011 7.51885 12.6664 7.53592 12.8446C7.55405 13.0227 7.58819 13.3832 7.61165 13.6478C7.63512 13.9112 7.65965 14.1534 7.66499 14.1854C7.68205 14.2771 7.67779 14.4627 7.65859 14.5288C7.59672 14.7379 7.38232 14.9011 7.16899 14.9011C6.98019 14.9 6.77752 14.7806 6.70179 14.6238C6.64205 14.5011 6.64099 14.4947 6.64099 13.5283V12.6398L6.67085 12.6088C6.69965 12.579 6.90019 12.4499 7.68099 11.9571C7.89859 11.8195 8.21752 11.6168 8.39032 11.5059C8.56312 11.3939 8.92152 11.1667 9.18499 10.9992C9.44952 10.8318 9.83032 10.5886 10.033 10.4584C10.2357 10.3283 10.6431 10.068 10.9397 9.8803C11.2362 9.6915 11.4986 9.51977 11.5231 9.49843C11.617 9.41843 11.6607 9.2691 11.633 9.1283C11.6159 9.0419 11.6021 9.01417 11.5338 8.94483C11.4709 8.87977 11.4527 8.8691 11.3066 8.8147C10.9823 8.69417 10.7317 8.53203 10.5066 8.29523C10.1109 7.87923 9.90925 7.31496 9.95725 6.7507C9.97859 6.4851 10.0415 6.24616 10.1439 6.0339C10.3882 5.5283 10.8095 5.15283 11.3386 4.9715C11.745 4.8307 12.2111 4.83176 12.6239 4.9715C12.8031 5.0323 13.025 5.14643 13.1743 5.2531C13.3258 5.3619 13.3311 5.36616 13.4805 5.53043C13.7407 5.81416 13.9114 6.1523 13.9797 6.51816C14.0095 6.67603 14.0202 6.9747 14.001 7.13363C13.9381 7.6659 13.6565 8.17043 13.2405 8.4947C13.0613 8.63337 12.9119 8.71657 12.6847 8.80083C12.4831 8.8755 12.3999 8.9395 12.3519 9.0547C12.3103 9.1539 12.3157 9.30217 12.3626 9.39497C12.4063 9.47923 12.4789 9.53577 12.8277 9.75657C13.4837 10.1726 14.2026 10.6302 15.3343 11.3512C15.9647 11.7534 16.6634 12.1982 16.8863 12.34C17.1093 12.4819 17.2981 12.6056 17.3055 12.6152C17.3258 12.643 17.3237 14.436 17.3034 14.5139C17.2778 14.6088 17.2426 14.6686 17.1701 14.7422C17.0026 14.9096 16.7583 14.948 16.5567 14.8392C16.4778 14.7966 16.3775 14.6931 16.3391 14.612C16.2794 14.4904 16.2773 14.4414 16.3146 14.0478C16.3327 13.8568 16.3541 13.6168 16.3637 13.5144C16.3733 13.412 16.385 13.2872 16.3914 13.2371C16.3978 13.187 16.4063 13.091 16.4117 13.0238C16.4255 12.852 16.4522 12.5576 16.4607 12.5064C16.465 12.4734 16.4618 12.4574 16.4469 12.4403C16.4255 12.4158 15.7567 11.9891 15.7279 11.9816C15.713 11.9774 15.7098 11.9912 15.7034 12.0766C15.6991 12.131 15.6821 12.3176 15.665 12.4904C15.6479 12.6632 15.6213 12.9416 15.6063 13.1091C15.5914 13.2766 15.5594 13.6051 15.5359 13.8398C15.473 14.4563 15.4815 14.6046 15.5935 14.8819C15.6735 15.0792 15.8069 15.2584 15.9743 15.3939C16.1333 15.523 16.2858 15.5998 16.4959 15.6563C16.5898 15.6819 16.6165 15.684 16.8063 15.684C16.9973 15.684 17.0229 15.6819 17.1178 15.6563C17.377 15.5859 17.5295 15.4984 17.7194 15.3118C17.9114 15.1219 18.0159 14.9512 18.0714 14.7326C18.113 14.5704 18.1194 14.3742 18.1162 13.2904L18.113 12.3038L18.0842 12.2408C18.0426 12.1523 17.9562 12.0755 17.7653 11.956C17.4485 11.7576 16.625 11.236 16.1557 10.9352C15.8943 10.7678 15.2949 10.3848 14.8223 10.0851C14.3498 9.78537 13.8709 9.4803 13.7578 9.40777C13.6191 9.31923 13.553 9.27123 13.5551 9.26057C13.5573 9.25203 13.6031 9.21257 13.6575 9.1731C14.209 8.77737 14.6058 8.15763 14.7466 7.4771C14.7967 7.2307 14.8042 7.1443 14.7978 6.84563C14.7925 6.56403 14.7743 6.4147 14.7146 6.18216C14.4767 5.25203 13.7365 4.47763 12.817 4.19923C12.6858 4.1587 12.4511 4.10643 12.4053 4.10643C12.3871 4.10643 12.3754 4.09896 12.3722 4.0851C12.3669 4.06376 12.3573 4.06376 11.9839 4.06376C11.6533 4.06376 11.601 4.0659 11.601 4.07976Z" fill="#C8C8C8"/>
<path d="M5.05151 5.33834C5.03657 5.34687 4.99604 5.35434 4.96084 5.35434C4.88724 5.35434 4.70484 5.38954 4.68351 5.40767C4.67604 5.41407 4.64084 5.42367 4.60457 5.43007C4.56937 5.43541 4.51711 5.45247 4.48937 5.46741C4.45524 5.48554 4.42857 5.49301 4.40937 5.48874C4.38697 5.48447 4.37951 5.48767 4.37951 5.49834C4.37951 5.50901 4.36777 5.51434 4.34324 5.51434C4.32297 5.51434 4.30271 5.51861 4.29951 5.52501C4.29631 5.53034 4.28137 5.53567 4.26644 5.53567C4.25257 5.53567 4.23231 5.54527 4.22271 5.55701C4.21204 5.56874 4.19711 5.57834 4.18751 5.57834C4.17897 5.57834 4.15231 5.59007 4.12884 5.60501C4.10537 5.61887 4.07337 5.63167 4.05844 5.63167C4.04031 5.63167 4.02857 5.63914 4.02431 5.65194C4.02217 5.66261 4.00617 5.67434 3.99017 5.67861C3.97417 5.68287 3.94857 5.69461 3.93257 5.70527C3.91764 5.71594 3.86004 5.75434 3.80564 5.79061C3.57311 5.94314 3.30004 6.18421 3.16991 6.35061C2.98644 6.58741 2.85417 6.78367 2.85417 6.81887C2.85417 6.82954 2.84564 6.84127 2.83391 6.84447C2.82004 6.84767 2.81151 6.86261 2.80724 6.88927C2.80404 6.91167 2.79124 6.94261 2.77951 6.95754C2.76777 6.97247 2.75817 6.99381 2.75817 7.00554C2.75817 7.01621 2.74857 7.03434 2.73684 7.04501C2.72511 7.05567 2.71551 7.07167 2.71551 7.08021C2.71551 7.08981 2.70057 7.12714 2.68244 7.16341C2.66431 7.20074 2.65257 7.23594 2.65684 7.24127C2.66004 7.24767 2.65577 7.26367 2.64724 7.27647C2.63871 7.29034 2.62164 7.33941 2.60991 7.38634C2.59711 7.43327 2.58324 7.47274 2.57791 7.47487C2.57257 7.47701 2.57151 7.49941 2.57471 7.52607C2.57897 7.56341 2.57471 7.58047 2.55764 7.60394C2.52457 7.64874 2.51071 7.82154 2.51071 8.16927C2.51177 8.52447 2.52671 8.73887 2.55444 8.77834C2.56511 8.79327 2.57684 8.82847 2.58111 8.85834C2.58431 8.88714 2.59071 8.93301 2.59497 8.95967C2.59817 8.98634 2.60777 9.01194 2.61524 9.01621C2.62484 9.02154 2.63017 9.04287 2.63017 9.07061C2.63017 9.10261 2.63551 9.11967 2.64617 9.12394C2.65577 9.12714 2.66217 9.14314 2.66217 9.16554C2.66217 9.18581 2.66964 9.20821 2.67817 9.21567C2.68671 9.22314 2.69417 9.23701 2.69417 9.24661C2.69417 9.25621 2.70164 9.27327 2.71017 9.28394C2.71871 9.29567 2.72617 9.31594 2.72617 9.32874C2.72617 9.34154 2.73364 9.35434 2.74111 9.35754C2.74964 9.36074 2.76457 9.38741 2.77311 9.41621C2.78164 9.44501 2.79977 9.48767 2.81364 9.51007C2.82857 9.53354 2.84564 9.56661 2.85204 9.58581C2.85844 9.60501 2.87871 9.64021 2.89684 9.66581C2.97791 9.77781 3.03551 9.87274 3.03017 9.88661C3.02697 9.89621 3.03017 9.89834 3.04084 9.89407C3.05044 9.89087 3.06111 9.89727 3.06857 9.91221C3.07604 9.92501 3.09844 9.95487 3.11977 9.97834C3.14111 10.0029 3.17311 10.0445 3.19231 10.0711C3.21044 10.0989 3.30751 10.1938 3.40777 10.2845C3.50804 10.3741 3.59017 10.4498 3.59017 10.453C3.59017 10.4562 3.55817 10.4754 3.51977 10.4957C3.48137 10.5159 3.44511 10.5415 3.43977 10.5511C3.43444 10.5618 3.42271 10.5671 3.41417 10.5639C3.40564 10.5607 3.38324 10.5735 3.36084 10.5959C3.34057 10.6173 3.30751 10.6418 3.28831 10.6514C3.27017 10.6621 3.24244 10.6781 3.22751 10.6877C3.17951 10.7197 3.08457 10.7762 3.04191 10.7975C3.01844 10.8082 2.96511 10.8434 2.92351 10.8754C2.88084 10.9074 2.82431 10.9405 2.79657 10.9501C2.76991 10.9597 2.74751 10.9735 2.74751 10.9821C2.74751 10.9906 2.74324 10.9981 2.73684 10.9981C2.73151 10.9991 2.72297 11.0002 2.71871 11.0023C2.70377 11.0055 2.57684 11.1303 2.57684 11.141C2.57684 11.1463 2.56511 11.1677 2.55017 11.189C2.53097 11.2167 2.52031 11.2519 2.51284 11.3138C2.50644 11.3618 2.49471 11.4183 2.48617 11.4386C2.47764 11.4589 2.47017 11.5015 2.47017 11.5325C2.47017 11.5634 2.46271 11.6082 2.45417 11.6317C2.44564 11.6551 2.43924 11.6999 2.43817 11.7309C2.43817 11.7618 2.43284 11.7981 2.42537 11.8109C2.41897 11.8237 2.40937 11.8706 2.40617 11.9143C2.40191 11.9581 2.39337 12.0157 2.38697 12.0423C2.37417 12.0946 2.35497 12.2151 2.34324 12.3143C2.33897 12.3495 2.33044 12.389 2.32297 12.4018C2.31551 12.4146 2.31017 12.4509 2.31017 12.4829C2.31017 12.5149 2.30271 12.5618 2.29417 12.5863C2.28564 12.6109 2.27817 12.6525 2.27817 12.6781C2.27817 12.7026 2.27177 12.7559 2.26324 12.7965C2.25471 12.8359 2.24404 12.9245 2.24084 12.9917C2.23551 13.0834 2.22911 13.1207 2.21417 13.141C2.19604 13.1677 2.19391 13.189 2.17577 13.4365C2.17044 13.509 2.16617 13.525 2.15124 13.525C2.13631 13.525 2.13311 13.5378 2.13204 13.5965C2.13204 13.637 2.12031 13.7149 2.10751 13.7703C2.09471 13.8258 2.08084 13.9218 2.07657 13.9837C2.07231 14.0647 2.06697 14.0946 2.05737 14.0925C2.04777 14.0914 2.04351 14.1085 2.04351 14.1522C2.04351 14.1863 2.03604 14.2397 2.02751 14.2717C2.01791 14.3037 2.00617 14.3687 1.99977 14.4157C1.99444 14.4626 1.98271 14.5447 1.97417 14.5981C1.96564 14.6503 1.95817 14.7314 1.95817 14.7773C1.95817 14.8498 1.95604 14.8605 1.93791 14.8658C1.92084 14.8701 1.91657 14.8839 1.91017 14.9522C1.90697 14.9981 1.89951 15.0546 1.89417 15.0791C1.88777 15.1037 1.88351 15.1442 1.88351 15.1698C1.88351 15.1954 1.87817 15.2349 1.87284 15.2583C1.86644 15.2818 1.85791 15.3319 1.85257 15.3703C1.84724 15.4087 1.83764 15.4674 1.83124 15.5005C1.80457 15.6423 1.79604 15.6893 1.78751 15.7607C1.78217 15.8034 1.77044 15.8653 1.76084 15.8994C1.75124 15.9346 1.74057 16.0178 1.73737 16.085C1.73311 16.1725 1.72671 16.2098 1.71711 16.2162C1.70537 16.2226 1.70217 16.2823 1.70217 16.5202V16.8157L1.59977 16.917C1.28937 17.2242 1.11337 17.5762 1.05684 18.0039C1.03444 18.165 1.03444 19.1677 1.05684 19.3287C1.11231 19.7522 1.29044 20.1117 1.59124 20.4071C1.88777 20.6983 2.23444 20.8679 2.65044 20.9223C2.82111 20.9458 21.1806 20.9458 21.3512 20.9223C21.6926 20.8775 21.987 20.7549 22.2515 20.549C22.3486 20.4722 22.5182 20.3015 22.5896 20.2077C22.7571 19.9847 22.8798 19.7031 22.9352 19.413C22.9512 19.3255 22.9544 19.2338 22.9587 18.7303C22.963 18.1234 22.9576 18.0295 22.916 17.8354C22.8595 17.5719 22.7315 17.3053 22.5544 17.0813C22.5256 17.045 22.4467 16.9618 22.3784 16.8967C22.2856 16.8071 22.2568 16.7741 22.2664 16.7645C22.2824 16.7485 22.2824 16.4242 22.2664 16.4082C22.26 16.4018 22.2504 16.3538 22.2462 16.3026C22.2408 16.2503 22.2323 16.1906 22.2259 16.1703C22.2195 16.1501 22.2142 16.1138 22.2142 16.0893C22.2142 16.0647 22.2067 16.0242 22.1982 15.9997C22.1896 15.9751 22.1822 15.9314 22.1822 15.9037C22.1822 15.8759 22.1747 15.8301 22.1662 15.8013C22.1576 15.7725 22.1502 15.7298 22.1502 15.7063C22.1502 15.6829 22.1448 15.6466 22.1384 15.6263C22.132 15.6061 22.1224 15.5527 22.1171 15.509C22.1128 15.4653 22.1032 15.3906 22.0979 15.3437C22.0926 15.2967 22.083 15.2466 22.0766 15.2317C22.0702 15.2167 22.0606 15.1687 22.0552 15.125C22.0371 14.9799 22.0211 14.8861 22.0051 14.8306C21.9966 14.8007 21.9902 14.757 21.9902 14.7335C21.9902 14.7101 21.9806 14.6386 21.9688 14.5746C21.9571 14.5106 21.9475 14.4242 21.9475 14.3826C21.9475 14.3239 21.9432 14.3047 21.9315 14.2994C21.9187 14.2951 21.9155 14.2749 21.9155 14.2098C21.9155 14.1533 21.9102 14.1202 21.8995 14.1053C21.8899 14.0925 21.8835 14.0583 21.8835 14.0103C21.8835 13.9666 21.876 13.925 21.8675 13.909C21.859 13.8941 21.8526 13.8525 21.8515 13.8119C21.8515 13.7735 21.8462 13.7373 21.8387 13.7298C21.8323 13.7234 21.8238 13.6733 21.8195 13.6178C21.8152 13.5613 21.8046 13.5047 21.7939 13.4855C21.7843 13.4663 21.7768 13.4279 21.7768 13.4002C21.7768 13.3725 21.7694 13.3255 21.7608 13.2967C21.7523 13.2679 21.7448 13.2242 21.7448 13.2007C21.7448 13.1762 21.7384 13.1229 21.7299 13.0823C21.7022 12.9511 21.6915 12.8797 21.6915 12.8306C21.6904 12.805 21.684 12.7645 21.6755 12.741C21.667 12.7175 21.6595 12.6791 21.6595 12.6567C21.6595 12.6333 21.6531 12.5874 21.6446 12.5554C21.6296 12.4978 21.6147 12.4039 21.5955 12.2503C21.5902 12.2087 21.5806 12.1565 21.5752 12.133C21.5688 12.1095 21.5635 12.0701 21.5635 12.0466C21.5635 12.0221 21.556 11.9847 21.5475 11.9645C21.539 11.9431 21.5315 11.9026 21.5315 11.8738C21.5315 11.845 21.524 11.7981 21.5155 11.7693C21.507 11.7405 21.4995 11.6978 21.4995 11.6743C21.4995 11.6509 21.4942 11.6146 21.4878 11.5943C21.4814 11.5741 21.4696 11.5015 21.4611 11.4343C21.4366 11.2402 21.411 11.173 21.3288 11.0781C21.2915 11.0354 21.2307 10.9949 20.9608 10.8295C20.7198 10.6813 20.3998 10.4775 20.3816 10.4594C20.3699 10.4477 20.3795 10.4338 20.4392 10.3826C20.7944 10.0733 21.0216 9.77354 21.1976 9.38101C21.2734 9.21034 21.3395 9.03647 21.3395 9.00447C21.3395 8.98847 21.3491 8.95754 21.3608 8.93514C21.3726 8.91274 21.3822 8.87541 21.3822 8.84874C21.3822 8.81887 21.3896 8.79327 21.4035 8.77514C21.4152 8.76021 21.4248 8.73461 21.4248 8.71754C21.4248 8.70154 21.4323 8.64394 21.4408 8.59167C21.4536 8.51914 21.4568 8.41247 21.4558 8.15221C21.4547 7.83754 21.4526 7.80447 21.4344 7.76821C21.4184 7.73727 21.4163 7.71701 21.4216 7.67221C21.427 7.62101 21.4248 7.61247 21.4046 7.59861C21.3886 7.58687 21.3822 7.57087 21.3822 7.54101C21.3822 7.51754 21.3726 7.46847 21.3619 7.43221C21.3502 7.39487 21.331 7.33087 21.3192 7.29034C21.2883 7.18367 21.2584 7.10261 21.2478 7.09407C21.2382 7.08767 21.22 7.04607 21.1923 6.96501C21.1838 6.93834 21.1667 6.90634 21.156 6.89354C21.1443 6.88181 21.1198 6.83914 21.0995 6.80181C20.9192 6.44127 20.5726 6.06367 20.1875 5.80767C20.0744 5.73194 19.8067 5.58901 19.7779 5.58901C19.7683 5.58901 19.7576 5.58154 19.7544 5.57301C19.7512 5.56447 19.7288 5.55167 19.7064 5.54634C19.684 5.53994 19.6648 5.53034 19.6648 5.52607C19.6648 5.52074 19.6563 5.51861 19.6446 5.52181C19.6339 5.52501 19.5912 5.51221 19.5518 5.49514C19.5112 5.47701 19.4472 5.45461 19.4088 5.44501C19.3704 5.43541 19.3224 5.41941 19.3022 5.41087C19.2638 5.39381 19.204 5.38207 19.0675 5.36501C19.0238 5.35967 18.9587 5.35007 18.9235 5.34474C18.8435 5.32981 18.4862 5.32981 18.3155 5.34367C18.2451 5.35007 18.1512 5.36394 18.1075 5.37567C18.0638 5.38741 18.0062 5.39701 17.9795 5.39701C17.9528 5.39701 17.9219 5.40447 17.9112 5.41301C17.8995 5.42154 17.8696 5.42901 17.8451 5.42901C17.8206 5.42901 17.795 5.43541 17.7886 5.44394C17.7822 5.45247 17.7587 5.46207 17.7363 5.46527C17.715 5.46954 17.6798 5.47487 17.6595 5.47807C17.6392 5.48234 17.6147 5.49087 17.6062 5.49834C17.5774 5.52181 17.523 5.54634 17.4963 5.54634C17.4824 5.54634 17.4622 5.55487 17.4526 5.56661C17.443 5.57727 17.4067 5.59647 17.3736 5.60927C17.3406 5.62101 17.2819 5.65087 17.2435 5.67434C17.2051 5.69781 17.1486 5.72874 17.1166 5.74367C17.0387 5.78101 16.8318 5.94207 16.6654 6.09461C16.3976 6.33994 16.2046 6.59594 16.0638 6.89034C16.0424 6.93407 16.02 6.97994 16.0136 6.99167C15.9656 7.07701 15.9102 7.20607 15.8995 7.25941C15.892 7.29354 15.8771 7.34047 15.8664 7.36181C15.8547 7.38421 15.8462 7.41514 15.8462 7.43114C15.8462 7.44714 15.8376 7.47487 15.828 7.49301C15.811 7.52607 15.8003 7.57727 15.7822 7.72554C15.7768 7.77141 15.7683 7.81407 15.7651 7.82047C15.7608 7.82687 15.7566 7.95487 15.7544 8.10527C15.7512 8.41461 15.7715 8.72181 15.7982 8.76021C15.8067 8.77301 15.8142 8.80501 15.8142 8.83274C15.8142 8.86367 15.8206 8.88714 15.8302 8.89567C15.8398 8.90314 15.8462 8.92661 15.8462 8.95114C15.8462 8.97354 15.8526 9.00341 15.8611 9.01621C15.8696 9.02901 15.8835 9.07061 15.8931 9.10901C15.9016 9.14741 15.924 9.21141 15.9422 9.25301C15.9614 9.29354 15.9923 9.36501 16.0115 9.40981C16.1438 9.72021 16.4723 10.1479 16.7571 10.3783C16.7955 10.4093 16.8275 10.4413 16.8275 10.4487C16.8275 10.4562 16.7902 10.4839 16.7454 10.5106C16.5747 10.6119 16.4168 10.7197 16.4072 10.741C16.3987 10.7602 16.403 10.7687 16.4286 10.7901C16.4456 10.8039 16.4851 10.8274 16.516 10.8423C16.5854 10.8765 16.8062 11.0194 16.8264 11.0429C16.8339 11.0535 16.8499 11.061 16.8606 11.061C16.8712 11.061 16.8958 11.0749 16.915 11.0919C16.9342 11.109 16.9672 11.1293 16.9886 11.1389C17.0099 11.1474 17.0494 11.1719 17.0771 11.1933C17.1411 11.2423 17.1859 11.2445 17.235 11.2007C17.2542 11.1837 17.364 11.1111 17.4782 11.0397C17.5923 10.9671 17.7352 10.8775 17.796 10.8391C17.8558 10.8007 17.9198 10.7527 17.9368 10.7314C17.955 10.7101 17.9784 10.6813 17.9902 10.6674C18.0019 10.6535 18.0115 10.6333 18.0115 10.6226C18.0115 10.6119 18.0158 10.6002 18.0222 10.597C18.0275 10.5938 18.0424 10.5565 18.0552 10.5149L18.0776 10.4391L18.0531 10.3634C17.9912 10.1661 17.9464 10.1181 17.7256 10.0082C17.3779 9.83647 17.1827 9.67327 16.9566 9.36501C16.9192 9.31594 16.8776 9.25087 16.8627 9.22101C16.8478 9.19221 16.8264 9.15807 16.8158 9.14634C16.7784 9.10474 16.6622 8.79434 16.6504 8.70261C16.6462 8.67381 16.6366 8.64501 16.6291 8.63861C16.6195 8.63007 16.6142 8.60234 16.6142 8.55434C16.6142 8.50314 16.6099 8.47861 16.5982 8.46901C16.5843 8.45834 16.5822 8.41674 16.5822 8.21941C16.5822 8.01567 16.5854 7.97301 16.6035 7.90901C16.6152 7.86847 16.6248 7.81727 16.6248 7.79594C16.6248 7.77461 16.6344 7.73621 16.6462 7.71061C16.6579 7.68501 16.6675 7.64874 16.6675 7.62954C16.6675 7.61034 16.6771 7.57087 16.6888 7.54101C16.7006 7.51114 16.7102 7.47701 16.7102 7.46634C16.7102 7.45461 16.7144 7.44501 16.7198 7.44501C16.7251 7.44501 16.7347 7.42901 16.7422 7.40981C16.7795 7.31061 16.7998 7.27007 16.8638 7.16341C17.0142 6.91594 17.2062 6.70474 17.412 6.55967C17.5326 6.47434 17.779 6.33781 17.8302 6.32821C17.8504 6.32501 17.8803 6.31221 17.8952 6.30154C17.9294 6.27594 18.0488 6.24074 18.1256 6.23221C18.1566 6.22901 18.1875 6.21941 18.1939 6.21194C18.2024 6.20127 18.2302 6.19701 18.2824 6.19701C18.3336 6.19701 18.3667 6.19167 18.3806 6.18101C18.3966 6.16927 18.4414 6.16607 18.6035 6.16607C18.7656 6.16607 18.8104 6.16927 18.8264 6.18101C18.8392 6.19061 18.8712 6.19701 18.9086 6.19701C18.9416 6.19701 18.9896 6.20447 19.0142 6.21301C19.0387 6.22154 19.0803 6.22901 19.1059 6.22901C19.1304 6.22901 19.155 6.23327 19.1582 6.23967C19.1614 6.24501 19.1987 6.25994 19.2403 6.27274C19.283 6.28447 19.3416 6.30901 19.3715 6.32607C19.4014 6.34314 19.4334 6.35701 19.4419 6.35701C19.4654 6.35701 19.7416 6.52021 19.8312 6.58634C20.0072 6.71754 20.1726 6.89674 20.308 7.10794C20.3752 7.21141 20.4755 7.40981 20.4755 7.43967C20.4755 7.44501 20.4883 7.47487 20.5043 7.50367C20.5395 7.57087 20.5822 7.73194 20.5822 7.80341C20.5822 7.84287 20.5864 7.86101 20.5982 7.86527C20.612 7.87061 20.6142 7.91541 20.6142 8.18421C20.6142 8.45087 20.612 8.49994 20.5982 8.51167C20.5875 8.52021 20.5822 8.54474 20.5822 8.58634C20.5822 8.62047 20.5758 8.66634 20.5672 8.68874C20.5598 8.71221 20.5502 8.75274 20.5459 8.77941C20.5416 8.80607 20.5267 8.84447 20.5128 8.86474C20.4979 8.88394 20.4862 8.90634 20.4862 8.91487C20.4862 8.94367 20.3891 9.14527 20.3283 9.24234C20.2472 9.37141 20.1224 9.53567 20.0414 9.61674C19.9134 9.74794 19.5294 10.0071 19.395 10.0551C19.3299 10.0775 19.2158 10.1789 19.1816 10.2439C19.1624 10.2813 19.1592 10.3069 19.1592 10.4263C19.1582 10.5607 19.1592 10.5671 19.1902 10.6226C19.2307 10.6962 19.3406 10.7965 19.4526 10.8637C19.5016 10.8925 19.5774 10.9415 19.6211 10.9725C19.6648 11.0034 19.7043 11.029 19.7096 11.029C19.715 11.029 19.764 11.0589 19.8184 11.0951C19.9614 11.1922 20.164 11.3223 20.3955 11.4653C20.5075 11.5346 20.611 11.6029 20.6259 11.6167C20.6483 11.6381 20.6568 11.6615 20.6718 11.749C20.6824 11.8077 20.6942 11.8791 20.7006 11.9069C20.7059 11.9357 20.7102 11.9794 20.7102 12.005C20.7102 12.0317 20.7176 12.0754 20.7272 12.1031C20.7379 12.1309 20.7486 12.1853 20.7539 12.2237C20.7656 12.3293 20.7848 12.4477 20.7966 12.501C20.8104 12.5565 20.8254 12.6621 20.8371 12.7837C20.8414 12.8306 20.851 12.8797 20.8574 12.8925C20.8648 12.9053 20.8702 12.9383 20.8702 12.9671C20.8702 12.9949 20.8755 13.0354 20.8819 13.0557C20.8894 13.0759 20.8979 13.1261 20.9032 13.1677C20.9182 13.2957 20.9331 13.3991 20.9448 13.4535C20.9502 13.4813 20.9555 13.5303 20.9555 13.5613C20.9555 13.6039 20.9598 13.6199 20.9726 13.6253C20.9864 13.6306 20.9896 13.6445 20.9854 13.7042C20.9811 13.7597 20.9843 13.7842 21.0003 13.8151C21.0131 13.8418 21.0195 13.8781 21.0195 13.9282C21.0195 13.9815 21.0238 14.0061 21.0355 14.0157C21.0462 14.0242 21.0515 14.0487 21.0515 14.0839C21.0515 14.1138 21.059 14.1789 21.0675 14.229C21.0771 14.2791 21.0814 14.3325 21.0782 14.3474C21.0739 14.3655 21.0782 14.3794 21.0888 14.389C21.1006 14.3986 21.1048 14.4231 21.1048 14.4829C21.1048 14.5426 21.1091 14.5682 21.1219 14.5821C21.1347 14.597 21.139 14.6226 21.139 14.6791C21.139 14.7335 21.1443 14.7623 21.156 14.7751C21.1656 14.7879 21.1731 14.821 21.1752 14.8701C21.1774 14.9117 21.1838 14.9629 21.1902 14.9853C21.1955 15.0066 21.2008 15.0503 21.2008 15.0834C21.2008 15.125 21.2062 15.1485 21.2168 15.157C21.2296 15.1677 21.2328 15.1901 21.2318 15.2477C21.2307 15.3042 21.235 15.3319 21.2478 15.3501C21.2595 15.3682 21.2648 15.3981 21.2648 15.4535C21.2648 15.509 21.2691 15.5367 21.2808 15.5474C21.2926 15.5591 21.2968 15.5869 21.2968 15.6434C21.2968 15.6903 21.3032 15.7351 21.3118 15.7522C21.3267 15.7821 21.3523 15.9559 21.3544 16.0487C21.3544 16.0786 21.3619 16.1106 21.3704 16.1213C21.38 16.1319 21.3854 16.1682 21.3864 16.2173C21.3875 16.2759 21.3928 16.3015 21.4067 16.3175C21.4174 16.3282 21.4248 16.3549 21.4248 16.3773V16.4178L21.3854 16.4093C21.363 16.405 17.1656 16.3997 12.0584 16.3975C4.49364 16.3954 2.75284 16.3965 2.66431 16.4082L2.55551 16.4221V16.3773C2.55551 16.3527 2.56297 16.3122 2.57151 16.2877C2.58111 16.261 2.58537 16.2269 2.58111 16.2066C2.57791 16.1863 2.58111 16.1586 2.59071 16.1362C2.61097 16.0925 2.64084 15.8951 2.64084 15.8098C2.64084 15.7629 2.64511 15.7447 2.65684 15.7394C2.66857 15.7351 2.67284 15.7159 2.67284 15.6605C2.67284 15.6189 2.68031 15.5698 2.68884 15.5485C2.69737 15.5261 2.70484 15.477 2.70484 15.4365C2.70484 15.3863 2.71017 15.3586 2.71977 15.3501C2.72831 15.3426 2.73684 15.3031 2.74111 15.2445C2.75924 15.0215 2.76351 14.9885 2.78271 14.9682C2.79337 14.9565 2.80084 14.9309 2.80084 14.9074C2.80084 14.8573 2.82857 14.6631 2.84884 14.5703C2.85737 14.5319 2.86697 14.4765 2.87124 14.4477C2.87444 14.4178 2.88617 14.3485 2.89791 14.2909C2.90857 14.2343 2.91817 14.1501 2.91817 14.1021C2.91817 14.037 2.92244 14.0146 2.93417 14.0082C2.94591 14.0018 2.95231 13.9741 2.95657 13.9154C2.95977 13.8706 2.96617 13.8205 2.97257 13.8066C2.97791 13.7917 2.98217 13.7522 2.98217 13.7191C2.98217 13.6786 2.98964 13.6445 3.00351 13.6178C3.01844 13.5911 3.02484 13.557 3.02484 13.5122C3.02591 13.4738 3.03231 13.4333 3.04084 13.4183C3.04937 13.4034 3.05577 13.3629 3.05684 13.3266C3.05684 13.2914 3.06324 13.2413 3.07177 13.2146C3.08031 13.189 3.08991 13.1218 3.09311 13.0663C3.09631 13.0109 3.10697 12.9309 3.11657 12.8903C3.12617 12.8487 3.13471 12.7911 3.13684 12.7623C3.13897 12.7325 3.14537 12.6919 3.15177 12.6717C3.15817 12.6514 3.16351 12.6023 3.16351 12.5639C3.16351 12.5138 3.16777 12.4893 3.17951 12.4797C3.19124 12.4701 3.19551 12.4445 3.19551 12.3879C3.19551 12.3282 3.20084 12.3015 3.21684 12.2749C3.23284 12.2493 3.23817 12.2205 3.23817 12.1682C3.23817 12.1223 3.24244 12.0957 3.25097 12.0935C3.26057 12.0903 3.26271 12.0626 3.26057 11.9986C3.25844 11.9261 3.26164 11.9047 3.27444 11.8941C3.28617 11.8845 3.29151 11.8621 3.29151 11.8247C3.29151 11.7949 3.30111 11.7362 3.31177 11.6957C3.32777 11.6338 3.33631 11.6178 3.36511 11.5997C3.38324 11.5879 3.43017 11.5559 3.46964 11.5271C3.50804 11.4994 3.54431 11.477 3.55071 11.477C3.55711 11.477 3.59337 11.4567 3.63177 11.4322C3.73737 11.365 4.11177 11.1197 4.16084 11.0855C4.18431 11.0685 4.23017 11.0407 4.26217 11.0226C4.35604 10.9703 4.55017 10.8498 4.62164 10.7986C4.82004 10.6567 4.87551 10.4637 4.77951 10.2514C4.75497 10.1991 4.64404 10.069 4.62377 10.069C4.61311 10.069 4.44991 9.98901 4.37737 9.94847C4.17684 9.83647 4.05951 9.74581 3.89311 9.57621C3.76617 9.44821 3.74377 9.41727 3.62004 9.20607C3.59124 9.15701 3.55924 9.10367 3.54857 9.08874C3.53791 9.07381 3.52191 9.03967 3.51231 9.01301C3.47284 8.89994 3.46004 8.86901 3.45151 8.85834C3.44617 8.85194 3.43657 8.81354 3.43017 8.77301C3.42377 8.73141 3.41097 8.68767 3.40244 8.67487C3.39391 8.65994 3.38751 8.62367 3.38751 8.57887C3.38644 8.53621 3.38004 8.49567 3.37151 8.47967C3.34804 8.43914 3.34804 7.87167 3.37151 7.87167C3.38431 7.87167 3.38751 7.85781 3.38751 7.80767C3.38751 7.77034 3.39391 7.73301 3.40244 7.71914C3.41097 7.70634 3.42057 7.67114 3.42484 7.64234C3.42911 7.61247 3.44404 7.56447 3.45791 7.53461C3.47177 7.50474 3.48351 7.47061 3.48351 7.45887C3.48351 7.44714 3.49311 7.42901 3.50377 7.41941C3.51444 7.40874 3.52937 7.38101 3.53577 7.35541C3.54217 7.33087 3.56244 7.28287 3.58164 7.25087C3.60084 7.21781 3.63177 7.16554 3.64884 7.13567C3.66697 7.10474 3.69364 7.05887 3.70857 7.03221C3.72351 7.00661 3.75764 6.96287 3.78324 6.93514C3.80991 6.90741 3.85471 6.85727 3.88244 6.82314C3.94111 6.75274 4.20351 6.52767 4.22697 6.52767C4.23551 6.52767 4.26111 6.50847 4.28457 6.48501C4.30804 6.46154 4.33577 6.44234 4.34751 6.44234C4.35817 6.44234 4.37097 6.43701 4.37417 6.43167C4.37737 6.42527 4.38804 6.42101 4.39764 6.42101C4.40724 6.42101 4.42537 6.40927 4.43924 6.39434C4.45311 6.37941 4.47444 6.36767 4.48831 6.36767C4.50217 6.36767 4.52884 6.35807 4.54804 6.34634C4.56724 6.33461 4.59391 6.32501 4.60777 6.32501C4.62164 6.32501 4.63551 6.31754 4.63977 6.30901C4.64297 6.29941 4.66004 6.29301 4.68351 6.29301C4.70697 6.29301 4.71977 6.28874 4.71871 6.28021C4.71551 6.26741 4.75284 6.25781 4.86804 6.24394C4.90751 6.23861 4.92777 6.23007 4.93524 6.21727C4.94377 6.20021 4.95871 6.19701 5.01737 6.19701C5.05684 6.19701 5.10911 6.18954 5.13364 6.18101C5.20084 6.15754 5.52937 6.15967 5.58377 6.18314C5.6083 6.19381 5.64564 6.19914 5.68831 6.19807C5.74057 6.19594 5.76297 6.20021 5.79071 6.21727C5.81097 6.22901 5.8579 6.24394 5.89524 6.24927C5.95497 6.25781 5.98804 6.26847 6.09151 6.31434C6.10324 6.31967 6.12884 6.32714 6.14804 6.33034C6.16617 6.33461 6.18217 6.34207 6.18217 6.34741C6.18217 6.35274 6.19284 6.35701 6.20671 6.35701C6.22057 6.35701 6.25364 6.37194 6.28137 6.38901C6.3091 6.40714 6.34964 6.42847 6.37097 6.43701C6.39337 6.44661 6.43497 6.47221 6.46377 6.49354C6.49364 6.51594 6.55444 6.56074 6.59817 6.59381C6.74964 6.70794 6.94591 6.92554 7.06111 7.10794C7.08351 7.14314 7.11444 7.19221 7.13044 7.21567C7.14537 7.23914 7.17097 7.29141 7.1859 7.33087C7.2019 7.37034 7.21897 7.40874 7.22537 7.41621C7.2307 7.42367 7.23817 7.44501 7.24244 7.46527C7.24564 7.48554 7.25524 7.50901 7.26164 7.51754C7.27871 7.53781 7.3011 7.62101 7.30217 7.66474C7.30217 7.68287 7.31177 7.71061 7.32457 7.72661C7.34377 7.75007 7.34591 7.76607 7.34271 7.83221C7.34057 7.89834 7.34271 7.90901 7.35871 7.91221C7.37577 7.91541 7.37684 7.93781 7.37684 8.18101C7.37684 8.39434 7.37364 8.45087 7.36084 8.47541C7.3523 8.49247 7.34484 8.53194 7.34484 8.56394C7.34484 8.60127 7.33737 8.63327 7.32457 8.65461C7.3139 8.67274 7.30111 8.71114 7.29684 8.74101C7.28937 8.79541 7.2307 8.96607 7.19444 9.03647C7.18377 9.05887 7.17417 9.08341 7.17417 9.09194C7.17417 9.10047 7.16244 9.12181 7.1475 9.13887C7.13257 9.15701 7.12084 9.17834 7.12084 9.18794C7.12084 9.20927 7.0259 9.34581 6.9459 9.43967C6.91284 9.47807 6.8627 9.53781 6.8339 9.57301C6.77524 9.64554 6.64404 9.75861 6.55337 9.81727C6.52031 9.83754 6.48937 9.86101 6.48617 9.86741C6.4819 9.87381 6.45737 9.88767 6.43177 9.89834C6.40617 9.91007 6.38484 9.92394 6.38484 9.93034C6.38484 9.93567 6.3795 9.94101 6.37204 9.94101C6.3411 9.94101 6.08937 10.0754 6.04777 10.1138C5.97631 10.1799 5.9155 10.277 5.9155 10.325C5.9155 10.3474 5.90804 10.3709 5.89951 10.3783C5.8803 10.3943 5.87817 10.4647 5.89524 10.4818C5.90271 10.4893 5.91124 10.5191 5.91657 10.549C5.92084 10.5789 5.93471 10.6162 5.9475 10.6322C5.95924 10.6482 5.98484 10.6823 6.00404 10.709C6.0435 10.7634 6.33044 10.9629 6.37097 10.9639C6.38377 10.965 6.39977 10.9746 6.40617 10.9863C6.41257 10.9981 6.43817 11.0183 6.46271 11.0301C6.48724 11.0429 6.54804 11.0813 6.59817 11.1143C6.78804 11.2423 6.81471 11.2509 6.87657 11.205C6.92884 11.1666 6.99177 11.1261 7.07284 11.077C7.20511 10.997 7.28617 10.9447 7.33417 10.9085C7.36084 10.8882 7.39924 10.8637 7.41951 10.853C7.43977 10.8434 7.46644 10.8263 7.47817 10.8157C7.4899 10.8061 7.51337 10.7943 7.52937 10.7901C7.54537 10.7858 7.56244 10.7751 7.56564 10.7666C7.5731 10.7463 7.54857 10.6983 7.53151 10.6983C7.52404 10.6983 7.49951 10.6845 7.47711 10.6685C7.45471 10.6525 7.3971 10.6151 7.35017 10.5874C7.30324 10.5586 7.26057 10.5298 7.25417 10.5234C7.24884 10.517 7.21791 10.4999 7.18804 10.485C7.1571 10.4701 7.13151 10.4551 7.13151 10.4509C7.13151 10.4466 7.15497 10.4242 7.18484 10.4007C7.32884 10.2866 7.57737 10.0327 7.6243 9.95061C7.63177 9.93674 7.64351 9.91967 7.65097 9.91221C7.65844 9.90367 7.69044 9.85781 7.72351 9.80981C7.75657 9.76181 7.79604 9.70314 7.81311 9.67967C7.87817 9.58794 7.94644 9.45461 7.97097 9.37034C7.97524 9.35861 7.98271 9.34581 7.98911 9.34154C7.99444 9.33727 8.0083 9.30634 8.0179 9.27221C8.04137 9.19221 8.06697 9.11754 8.0947 9.05034C8.10644 9.02047 8.11817 8.97781 8.12137 8.95434C8.12351 8.93087 8.1331 8.90314 8.1427 8.89247C8.15444 8.87967 8.1587 8.85834 8.15657 8.83061C8.1555 8.80501 8.16084 8.77727 8.17044 8.76234C8.18217 8.74421 8.1875 8.71114 8.1875 8.65994C8.1875 8.60554 8.19284 8.57781 8.20351 8.56501C8.22804 8.53834 8.23444 7.97514 8.21204 7.87914C8.20457 7.84287 8.19817 7.79807 8.19817 7.78101C8.2003 7.72981 8.15231 7.50474 8.13737 7.49514C8.1299 7.49087 8.12351 7.46847 8.12351 7.44714C8.12351 7.42581 8.1139 7.38421 8.10217 7.35434C8.09044 7.32554 8.0595 7.24341 8.03177 7.17301C7.96884 7.00767 7.8483 6.76234 7.78537 6.66954C7.75871 6.63007 7.71497 6.56607 7.69044 6.52874C7.61364 6.41461 7.4163 6.18421 7.32244 6.09994C7.20724 5.99541 7.00564 5.84074 6.9235 5.79381C6.88831 5.77354 6.84777 5.74581 6.83284 5.73194C6.8179 5.71807 6.74857 5.67754 6.67817 5.64127C6.60777 5.60501 6.53844 5.56661 6.52351 5.55701C6.49684 5.53887 6.46484 5.52821 6.39764 5.51754C6.37737 5.51434 6.35924 5.50474 6.35604 5.49727C6.35284 5.48874 6.33577 5.48234 6.31657 5.48234C6.29844 5.48127 6.27177 5.47487 6.25684 5.46634C6.24191 5.45781 6.21737 5.45141 6.20244 5.45034C6.18644 5.45034 6.16831 5.44287 6.16084 5.43434C6.15231 5.42474 6.12991 5.41834 6.10111 5.41834C6.07657 5.41834 6.04884 5.41194 6.04137 5.40447C6.0243 5.38847 5.82591 5.35434 5.74484 5.35434C5.70964 5.35327 5.67764 5.34687 5.6659 5.33834C5.63497 5.31487 5.09097 5.31594 5.05151 5.33834ZM3.11657 18.4743C3.31817 18.9821 3.48671 19.4055 3.49204 19.4162C3.49737 19.4311 3.53044 19.3586 3.61577 19.141L3.73097 18.8466L3.47391 18.2055C3.33311 17.8525 3.22004 17.5602 3.22324 17.5549C3.22644 17.5506 3.36724 17.5463 3.53577 17.5463C3.76937 17.5463 3.84617 17.5495 3.85364 17.5591C3.86004 17.5666 3.90377 17.6733 3.95284 17.797C4.00191 17.9197 4.04457 18.0242 4.04884 18.0295C4.05204 18.0338 4.09897 17.9282 4.15231 17.7949L4.24937 17.5517L4.56511 17.5485C4.77311 17.5474 4.88084 17.5495 4.88084 17.557C4.88084 17.5623 4.76777 17.8514 4.62804 18.1991C4.48937 18.5458 4.37631 18.8349 4.37631 18.8423C4.37631 18.8594 4.59711 19.4237 4.60457 19.4237C4.60777 19.4237 4.77524 19.0077 4.97684 18.4978C5.17844 17.989 5.34804 17.5666 5.35337 17.5591C5.36084 17.5495 5.43764 17.5463 5.67124 17.5463C5.83977 17.5463 5.98057 17.5495 5.98271 17.5538C5.98591 17.5591 5.75551 18.1447 5.47071 18.8562L4.95337 20.149L4.60137 20.1469L4.24937 20.1437L4.15231 19.9005C4.09897 19.7671 4.05311 19.6583 4.04991 19.6583C4.04671 19.6583 4.00084 19.7682 3.94751 19.9015L3.85151 20.1437L3.50377 20.1469C3.23284 20.149 3.15284 20.1458 3.14537 20.1362C3.12724 20.1127 2.10964 17.5581 2.11604 17.5517C2.11924 17.5485 2.26324 17.5474 2.43604 17.5485L2.75071 17.5517L3.11657 18.4743ZM8.4531 17.557C8.49044 17.5634 8.54057 17.5783 8.56404 17.5901C8.6291 17.6242 8.70697 17.7021 8.73897 17.7693L8.76884 17.829V18.8477V19.8663L8.73897 19.9261C8.70697 19.9933 8.62911 20.0711 8.56297 20.1053C8.48084 20.1469 8.40617 20.1501 7.61044 20.1469L6.84884 20.1437L6.78271 20.1127C6.69951 20.0743 6.60991 19.9837 6.58111 19.909C6.5619 19.8578 6.56084 19.8173 6.56084 18.8477C6.56084 17.6978 6.55337 17.7842 6.65577 17.6754C6.7187 17.6103 6.79337 17.5677 6.87017 17.557C6.9555 17.5442 8.37524 17.5453 8.4531 17.557ZM11.3438 17.557C11.3811 17.5634 11.4312 17.5783 11.4547 17.5901C11.5198 17.6242 11.5976 17.7021 11.6296 17.7693L11.6595 17.829V18.1277C11.6595 18.4125 11.6584 18.4285 11.636 18.4775C11.5934 18.5703 11.4963 18.6557 11.3928 18.693C11.3758 18.6983 11.3811 18.7037 11.4259 18.7207C11.5272 18.7591 11.6168 18.8573 11.6478 18.9661C11.6627 19.0173 11.6648 19.0983 11.6627 19.5837L11.6595 20.1437H11.3822H11.1048L11.1016 19.5538L11.0995 18.965H10.5555H10.0115L10.0094 19.5538L10.0062 20.1437H9.72884H9.4515L9.44831 18.8583C9.44724 18.1511 9.4483 17.5666 9.4515 17.5591C9.4579 17.5421 11.2371 17.5399 11.3438 17.557ZM12.9022 18.3495L12.9075 19.1474L13.4675 18.3762C13.7758 17.9527 14.0392 17.5922 14.052 17.5762L14.0776 17.5463H14.4232C14.6611 17.5463 14.7688 17.5495 14.7688 17.5581C14.7688 17.5645 14.5598 17.8567 14.3038 18.2087L13.8387 18.8477L14.3038 19.4866C14.5598 19.8386 14.7688 20.1309 14.7688 20.1373C14.7688 20.1458 14.6611 20.149 14.4222 20.149H14.0755L14.036 20.0978C14.0136 20.069 13.8803 19.8866 13.7395 19.6925C13.571 19.461 13.4803 19.3437 13.4728 19.3501C13.4675 19.3554 13.3352 19.5367 13.1795 19.7522L12.8968 20.1437H12.6195H12.3422L12.339 18.8583C12.3379 18.1511 12.339 17.5666 12.3422 17.5591C12.3454 17.5485 12.4072 17.5463 12.6216 17.5485L12.8968 17.5517L12.9022 18.3495ZM16.0115 18.8477V20.1437H15.7342H15.4568L15.4536 18.8583C15.4526 18.1511 15.4536 17.5666 15.4568 17.5591C15.46 17.5485 15.5219 17.5463 15.7363 17.5485L16.0115 17.5517V18.8477ZM18.7208 17.813V18.0743L17.988 18.0775L17.2542 18.0797V18.2557V18.4317L17.988 18.4338L18.7208 18.437V18.6983V18.9597L17.988 18.9629L17.2542 18.965L17.252 19.5549L17.2488 20.1437H16.9715H16.6942V18.9917C16.6942 17.6786 16.6867 17.7842 16.7891 17.6754C16.852 17.6103 16.9267 17.5677 17.0035 17.557C17.0323 17.5527 17.4312 17.5495 17.8888 17.5506L18.7208 17.5517V17.813ZM20.3891 17.9463C20.5491 18.1661 20.6835 18.3485 20.6867 18.3506C20.691 18.3527 20.8264 18.1725 20.9875 17.9506L21.2808 17.5463H21.6307C21.8248 17.5463 21.9795 17.5506 21.9795 17.5559C21.9795 17.5613 21.7544 17.8781 21.4782 18.2599L20.9768 18.9554L20.9747 19.5495L20.9715 20.1437H20.6942H20.4168L20.4136 19.5538L20.4115 18.9629L19.9059 18.2631C19.6275 17.8781 19.4024 17.5591 19.4046 17.5549C19.4078 17.5495 19.5646 17.5463 19.7544 17.5463H20.0979L20.3891 17.9463Z" fill="#8E8E93"/>
<path d="M7.12109 18.8477V19.6157H7.66509H8.20909V18.8477V18.0797H7.66509H7.12109V18.8477Z" fill="#8E8E93"/>
<path d="M10.0117 18.2558V18.4318H10.5557H11.0997V18.2558V18.0798H10.5557H10.0117V18.2558Z" fill="#8E8E93"/>
<path d="M11.9631 10.2653C11.9599 10.2675 11.9162 10.2749 11.865 10.2813C11.6239 10.3101 11.3957 10.4627 11.273 10.6781C11.2005 10.8061 11.161 10.9384 11.1557 11.0792C11.1503 11.1901 11.1525 11.2061 11.1834 11.3128C11.2271 11.4589 11.2847 11.5688 11.3658 11.6616C11.4127 11.7149 11.4287 11.7405 11.4255 11.7576C11.4223 11.7704 11.4127 11.8269 11.4031 11.8824C11.3935 11.9379 11.3807 11.9976 11.3743 12.0157C11.3594 12.0595 11.3434 12.1373 11.2751 12.4957C11.2538 12.6067 11.2111 12.8328 11.1791 12.9971C11.0661 13.5816 11.0255 13.7981 11.0138 13.8664C11.0063 13.9048 10.9871 14.0072 10.969 14.0957C10.9295 14.292 10.9306 14.3859 10.9743 14.4691C10.9946 14.5085 11.1119 14.6323 11.4159 14.9341C11.7637 15.2797 11.8362 15.3469 11.8725 15.3576C11.9002 15.3651 11.9514 15.3661 12.0186 15.3608C12.1061 15.3544 12.1285 15.348 12.1626 15.3245C12.2213 15.2829 12.9679 14.5309 13.0021 14.4787C13.0202 14.4499 13.033 14.4136 13.0373 14.3773C13.0437 14.3155 13.0159 14.1032 12.9935 14.0392C12.985 14.0168 12.9754 13.9731 12.9722 13.9411C12.9679 13.9091 12.9551 13.8365 12.9445 13.7811C12.9327 13.7256 12.9093 13.6008 12.8911 13.5037C12.873 13.4067 12.8495 13.284 12.8378 13.2317C12.8079 13.0899 12.7845 12.9715 12.7685 12.8723C12.761 12.8232 12.7471 12.7528 12.7386 12.7144C12.729 12.676 12.7119 12.5917 12.7002 12.5277C12.6767 12.4008 12.6223 12.1075 12.5978 11.9784C12.5893 11.9347 12.5765 11.8739 12.5701 11.8451C12.5434 11.7224 12.5413 11.732 12.6181 11.6477C12.7567 11.4973 12.8527 11.22 12.8282 11.044C12.7834 10.7336 12.6191 10.4883 12.3717 10.3635C12.3045 10.3304 12.1605 10.2877 12.0805 10.2781C12.0485 10.2739 12.0101 10.2685 11.9951 10.2653C11.9802 10.2621 11.9653 10.2621 11.9631 10.2653ZM12.105 10.8936C12.1914 10.9448 12.2309 11.012 12.2309 11.1091C12.2309 11.1784 12.2042 11.2349 12.1455 11.2883C12.0133 11.4077 11.7967 11.3384 11.7498 11.1592C11.721 11.0483 11.7957 10.916 11.9109 10.8723C11.9631 10.8531 12.0517 10.8627 12.105 10.8936ZM11.9951 12.1629C11.9951 12.1821 12.0026 12.2269 12.0122 12.2611C12.0218 12.2963 12.0335 12.3549 12.0389 12.3923C12.0442 12.4296 12.0559 12.4733 12.0645 12.4904C12.073 12.5075 12.0805 12.5395 12.0805 12.5619C12.0805 12.6173 12.1317 12.8861 12.1562 12.9629C12.1679 12.996 12.1765 13.0397 12.1765 13.06C12.1765 13.0803 12.185 13.1411 12.1967 13.1955C12.2074 13.2509 12.2202 13.3192 12.2245 13.3469C12.2277 13.3757 12.2383 13.4184 12.2469 13.4429C12.2554 13.4675 12.2671 13.5261 12.2735 13.5731C12.2853 13.6744 12.3087 13.7992 12.3354 13.9091C12.3578 13.9965 12.3749 14.0872 12.3855 14.1725L12.393 14.228L12.1967 14.4285C12.089 14.5384 12.0005 14.6291 11.9994 14.6291C11.9983 14.6291 11.9055 14.5395 11.7925 14.4296L11.5877 14.2301L11.593 14.1896C11.5962 14.1672 11.6047 14.1203 11.6111 14.0851C11.6453 13.9048 11.6655 13.7875 11.6805 13.6915C11.6901 13.6339 11.7071 13.5475 11.7178 13.4995C11.7295 13.4515 11.7391 13.4013 11.7391 13.3864C11.7391 13.3715 11.7466 13.3459 11.7551 13.3288C11.7637 13.3128 11.7711 13.284 11.7711 13.2648C11.7711 13.2467 11.7765 13.2104 11.7829 13.1837C11.7893 13.1571 11.801 13.0973 11.8095 13.0504C11.8181 13.0035 11.8298 12.9405 11.8351 12.9117C11.8405 12.8819 11.8522 12.8157 11.8607 12.7645C11.8693 12.7123 11.8842 12.6333 11.8927 12.5885C11.9013 12.5437 11.9109 12.4797 11.9151 12.4477C11.9183 12.4157 11.9269 12.3827 11.9343 12.3752C11.9461 12.3603 11.9578 12.2984 11.9695 12.1789C11.977 12.1149 11.9951 12.1032 11.9951 12.1629Z" fill="#8E8E93"/>
</svg>
