<svg width="14" height="14" viewBox="0 0 14 14" fill="none" xmlns="http://www.w3.org/2000/svg">
<path fill-rule="evenodd" clip-rule="evenodd" d="M7.0013 0.730469C3.53802 0.730469 0.730469 3.53802 0.730469 7.0013C0.730469 10.4646 3.53802 13.2721 7.0013 13.2721C10.4646 13.2721 13.2721 10.4646 13.2721 7.0013C13.2721 3.53802 10.4646 0.730469 7.0013 0.730469ZM7 4.23047C7.24162 4.23047 7.4375 4.42634 7.4375 4.66797V6.76716L8.99268 7.80395C9.19373 7.93798 9.24805 8.20961 9.11402 8.41065C8.97999 8.61169 8.70836 8.66602 8.50732 8.53199L6.75732 7.36532C6.63561 7.28418 6.5625 7.14758 6.5625 7.0013V4.66797C6.5625 4.42634 6.75838 4.23047 7 4.23047Z" fill="#8E8E93"/>
</svg>
