<svg width="22" height="23" viewBox="0 0 22 23" fill="none" xmlns="http://www.w3.org/2000/svg">
<path d="M9.85414 2.67271C10.4866 2.13188 11.5225 2.13188 12.1641 2.67271L13.6125 3.91948C13.8875 4.15781 14.4008 4.35029 14.7675 4.35029H16.3258C17.2975 4.35029 18.095 5.14772 18.095 6.11939V7.67779C18.095 8.03529 18.2875 8.5578 18.5258 8.8328L19.7725 10.2811C20.3133 10.9136 20.3133 11.9494 19.7725 12.5911L18.5258 14.0394C18.2875 14.3144 18.095 14.8277 18.095 15.1944V16.7528C18.095 17.7245 17.2975 18.5219 16.3258 18.5219H14.7675C14.41 18.5219 13.8875 18.7144 13.6125 18.9527L12.1641 20.1994C11.5316 20.7402 10.4958 20.7402 9.85414 20.1994L8.40582 18.9527C8.13082 18.7144 7.61748 18.5219 7.25081 18.5219H5.66497C4.6933 18.5219 3.89581 17.7245 3.89581 16.7528V15.1852C3.89581 14.8277 3.70331 14.3144 3.47415 14.0394L2.23664 12.5819C1.70497 11.9494 1.70497 10.9228 2.23664 10.2903L3.47415 8.8328C3.70331 8.5578 3.89581 8.04447 3.89581 7.68697V6.11939C3.89581 5.14772 4.6933 4.35029 5.66497 4.35029H7.25081C7.60831 4.35029 8.13082 4.15781 8.40582 3.91948L9.85414 2.67271Z" stroke="#292D32" stroke-width="1.375" stroke-linecap="round" stroke-linejoin="round"/>
<path d="M9.0662 14.0121L10.3954 15.0387C10.5695 15.2129 10.9545 15.2954 11.2112 15.2954H12.8337C13.347 15.2954 13.9062 14.9104 14.0345 14.3971L15.0612 11.2621C15.272 10.6662 14.887 10.1438 14.2454 10.1438H12.5312C12.2745 10.1438 12.0637 9.93299 12.1004 9.63049L12.3112 8.25549C12.3937 7.87049 12.137 7.43963 11.752 7.31129C11.4129 7.18296 10.982 7.35709 10.8079 7.61375L9.04785 10.2262" stroke="#292D32" stroke-width="1.375" stroke-miterlimit="10"/>
<path d="M6.875 14.0122V9.81389C6.875 9.20889 7.13167 8.99805 7.73667 8.99805H8.1675C8.76334 8.99805 9.02917 9.20889 9.02917 9.81389V14.0122C9.02917 14.608 8.7725 14.828 8.1675 14.828H7.73667C7.13167 14.828 6.875 14.6172 6.875 14.0122Z" stroke="#292D32" stroke-width="1.375" stroke-linecap="round" stroke-linejoin="round"/>
</svg>
