<svg width="183" height="141" viewBox="0 0 183 141" fill="none" xmlns="http://www.w3.org/2000/svg">
<path d="M177.343 104.645C179.848 106.193 181.593 108.36 182.493 111.175C182.831 112.216 183 113.286 183 114.355C183 119.393 183 124.431 183 129.497C183 134.479 179.454 139.629 173.402 140.783C172.952 140.868 172.502 140.896 172.052 140.924C171.46 140.952 170.869 140.952 170.307 140.952C117.759 140.952 65.2124 140.952 12.6653 140.952C11.4551 140.952 10.2448 140.952 9.0346 140.671C4.50322 139.601 0.985102 135.914 0.197037 131.327C0.056311 130.567 0 129.807 0 129.047C0 124.318 0 119.59 0 114.862C0.0281452 110.865 1.63244 107.628 4.84099 105.236C5.37575 104.842 5.60091 104.42 5.57276 103.772C5.51647 101.971 5.82607 100.198 6.13566 98.4531C6.55784 95.9763 6.89558 93.4995 7.26147 90.9946C7.26147 90.9101 7.26146 90.7976 7.28961 90.7131C7.82437 89.2777 7.71177 87.7016 8.04952 86.238C8.24653 85.3655 8.24653 84.4649 8.61242 83.6205C8.58427 82.354 9.00646 81.1438 9.14719 79.8772C9.23162 79.1173 9.45679 78.4137 9.54122 77.6538C9.62566 76.9501 9.68196 76.2465 9.90713 75.5429C10.1604 74.7548 10.0197 73.8542 10.2167 73.0098C10.3856 72.1654 10.47 71.3211 10.6108 70.4767C10.9485 68.5347 11.2581 66.5927 11.5958 64.6507C11.821 63.2716 12.1306 61.9206 12.2995 60.5415C12.412 59.669 12.8061 59.0216 13.4253 58.4587C13.8756 58.0366 14.4103 57.6988 14.9169 57.3611C16.4086 56.3479 18.0411 55.5879 19.4483 54.4621C19.9549 54.0681 20.5741 53.7585 21.1089 53.4208C21.137 53.0549 20.8556 52.9141 20.6586 52.7453C20.2083 52.3231 19.7016 51.9291 19.2513 51.4787C17.2249 49.5367 15.5924 47.3132 14.4666 44.7239C13.9882 43.6262 13.4252 42.5567 13.1156 41.3746C12.6935 39.6296 12.2431 37.9128 12.2713 36.0833C12.2994 34.5916 12.1869 33.1281 12.2995 31.6364C12.3558 30.8483 12.412 30.0602 12.6935 29.2722C12.9186 28.6248 12.9749 27.8649 13.2001 27.1894C14.1289 24.4031 15.5362 21.87 17.3374 19.5621C19.4202 16.8883 22.0658 14.89 24.9648 13.2294C25.9217 12.6947 26.935 12.1881 28.0326 11.9347C28.8488 11.7377 29.6369 11.4281 30.4531 11.1748C30.622 11.1185 30.7908 11.0622 30.9597 11.0341C33.2958 10.5838 35.6881 10.3868 38.0523 10.5838C39.9099 10.7527 41.7675 11.1467 43.5688 11.7377C47.8187 13.1731 51.3087 15.6499 54.2358 19.0273C56.4592 21.5885 57.8946 24.5719 58.9642 27.7523C59.3019 28.7937 59.4708 29.9195 59.6678 31.0172C60.0337 32.9029 59.893 34.7886 59.8367 36.6744C59.8085 38.1661 59.4708 39.6578 58.9923 41.0932C58.6264 42.2471 58.1761 43.3729 57.7258 44.4987C56.9659 46.4408 55.6712 48.0732 54.4328 49.7337C53.4759 51.0003 52.35 52.0698 51.0835 53.0549C50.8583 53.2237 50.8865 53.4489 51.1117 53.5896C52.0123 54.1525 52.9411 54.7436 53.8418 55.3065C54.0669 55.4472 54.3202 55.5879 54.3765 55.9538C53.1944 56.7137 52.0123 57.5018 50.8021 58.2617C50.1266 58.7121 49.423 59.1061 48.7756 59.5845C48.3534 59.8941 47.9594 59.9223 47.5372 59.669C47.3402 59.5564 47.1432 59.4438 46.9462 59.3312C45.4545 58.4025 43.9909 57.4737 42.4992 56.5167C41.8519 56.0946 41.3171 55.5598 40.895 54.8843C40.5854 54.3777 40.4165 53.7585 40.3883 53.2519C40.3602 52.689 40.5572 52.0416 40.895 51.4787C41.3734 50.747 41.9926 50.1841 42.7807 49.8182C44.4412 49.0864 45.9892 48.1858 47.3121 46.9474C49.62 44.7802 51.365 42.2753 52.0967 39.1511C52.2656 38.4194 52.5189 37.7157 52.6315 36.9558C52.7159 36.4774 52.8004 35.9989 52.8004 35.4923C52.8004 35.0982 52.8285 34.6761 52.8004 34.282C52.7441 33.5784 52.9129 32.8748 52.6315 32.143C52.4063 31.4957 52.4345 30.7639 52.2093 30.0884C51.9842 29.4129 51.7871 28.7093 51.5057 28.0619C50.0984 24.6845 47.8187 22.0107 44.7227 20.0687C43.3154 19.1962 41.7393 18.6615 40.135 18.2111C39.2625 17.9578 38.39 17.8452 37.5457 17.7045C36.5043 17.5356 35.3785 17.5356 34.309 17.6764C32.5921 17.9015 30.9034 18.3237 29.2991 19.0273C27.0475 19.9843 25.1337 21.4197 23.4731 23.221C21.897 24.9378 20.7993 26.9361 20.0394 29.1033C19.5328 30.4824 19.195 31.9178 19.2232 33.4095C19.2513 34.0006 19.2232 34.5916 19.2232 35.1545C19.2513 37.4061 19.6454 39.6015 20.6304 41.6561C22.1503 44.8083 24.3737 47.3414 27.4978 49.0583C28.0889 49.3679 28.68 49.7056 29.2991 49.9589C30.9034 50.6625 31.6352 52.3512 31.4382 53.8148C31.2974 54.8562 30.6783 55.6442 29.8339 56.2071C28.9895 56.7982 28.0889 57.3329 27.2164 57.8677C26.0906 58.5995 24.9366 59.3031 23.8108 60.0349C22.4036 60.9355 21.0245 61.8643 19.6172 62.7087C19.195 62.962 18.9417 63.2997 18.8573 63.75C18.7165 64.4818 18.5195 65.2417 18.4633 65.9735C18.3507 66.9586 18.2099 67.8874 17.9848 68.8443C17.7033 69.9983 17.6189 71.2085 17.4219 72.3906C17.056 74.4171 16.9716 76.4998 16.4931 78.4981C16.1835 79.8491 16.1835 81.2563 15.8176 82.5792C15.5361 83.6768 15.6206 84.8026 15.311 85.9003C15.0295 86.9698 14.8607 88.0956 14.7481 89.2214C14.5792 90.7694 13.9882 92.2611 14.0726 93.8372C13.5097 95.8074 13.369 97.862 13.0594 99.8885C12.9186 100.733 12.7498 101.549 12.5809 102.393C12.5246 102.759 12.6372 102.928 12.9749 102.928C13.4252 102.956 13.8756 102.928 14.3259 102.928C65.6909 102.928 117.084 102.928 168.449 102.928C168.956 102.928 169.434 102.928 169.941 102.928C170.391 102.928 170.841 102.956 171.263 102.956C173.543 102.956 175.542 103.491 177.343 104.645ZM18.3507 112.751C18.3225 113.426 18.604 113.792 18.7728 114.214C19.9268 117.085 21.0526 119.984 22.2347 122.855C22.4036 123.305 22.4599 123.671 22.2629 124.15C21.7562 125.36 21.3059 126.57 20.8274 127.78C20.7711 127.949 20.6867 128.118 20.3771 128.034C18.3788 122.996 16.3242 117.93 14.3259 112.863C12.7779 112.723 10.1604 112.751 9.0346 112.948C11.9054 120.097 14.7199 127.217 17.6189 134.338C19.4483 134.338 21.1933 134.338 22.9665 134.338C23.3324 134.338 23.5575 134.169 23.6701 133.86C24.0641 132.903 24.4582 131.946 24.8241 130.989C24.9085 130.792 24.9648 130.539 25.3025 130.567C25.7247 131.636 26.175 132.706 26.5972 133.775C26.7661 134.226 27.0475 134.366 27.526 134.366C28.7081 134.338 29.8621 134.366 31.0442 134.366C31.4382 134.366 31.8604 134.338 32.2544 134.366C32.564 134.394 32.761 134.226 32.8736 133.972C32.958 133.803 33.0143 133.635 33.0706 133.466C35.6881 126.908 38.3337 120.378 40.9512 113.82C41.0638 113.539 41.2327 113.257 41.1483 112.92C40.0506 112.779 37.2079 112.751 36.0821 112.92C36.054 112.948 36.0258 113.004 36.0258 113.032C34.0275 118.042 32.0011 123.052 30.0028 128.034C29.9746 128.062 29.9746 128.118 29.9183 128.146C29.8902 128.174 29.8339 128.146 29.8058 128.146C29.6087 128.062 29.5525 127.893 29.4962 127.724C29.074 126.626 28.6799 125.529 28.2015 124.459C27.8919 123.784 27.9482 123.193 28.2296 122.545C29.3836 119.759 30.5094 116.973 31.6071 114.158C31.7759 113.764 32.0855 113.37 31.9166 112.779C30.4531 112.779 28.9896 112.807 27.526 112.779C27.0475 112.779 26.7942 112.948 26.6254 113.398C26.4002 113.989 26.175 114.58 25.9499 115.143C25.7528 115.622 25.5558 116.1 25.3588 116.55C24.9929 116.466 24.9929 116.213 24.9085 116.016C24.5426 115.087 24.1767 114.186 23.8108 113.257C23.6701 112.948 23.4731 112.751 23.1072 112.779C21.4748 112.779 19.9549 112.751 18.3507 112.751ZM64.5651 123.587C64.5651 121.082 64.5088 118.549 64.5932 116.044C64.6213 114.243 63.0734 112.751 61.3847 112.751C57.3318 112.807 53.2788 112.751 49.2541 112.779C47.4528 112.779 46.2425 113.989 46.0737 115.79C46.0455 116.016 46.0737 116.241 46.0737 116.466C46.0737 121.194 46.0737 125.923 46.0737 130.623C46.0737 130.933 46.0737 131.242 46.13 131.552C46.327 132.987 47.3121 134 48.7475 134.254C49.0852 134.31 49.4511 134.31 49.817 134.31C53.504 134.31 57.191 134.31 60.878 134.31C61.3284 134.31 61.7787 134.31 62.229 134.197C63.3548 133.888 64.0866 133.184 64.4806 132.058C64.6214 131.608 64.6214 131.186 64.6214 130.736C64.5651 128.343 64.5651 125.951 64.5651 123.587ZM86.5183 122.32C86.9123 122.067 87.2219 121.898 87.5034 121.673C88.207 121.11 88.6855 120.406 88.6855 119.506C88.7136 118.211 88.6855 116.888 88.6855 115.593C88.6855 114.834 88.3477 114.214 87.813 113.68C87.1656 113.032 86.4057 112.751 85.5051 112.751C80.636 112.751 75.795 112.751 70.9259 112.751C70.7851 112.751 70.6444 112.723 70.5318 112.779C70.4193 112.835 70.3067 112.948 70.2785 113.032C70.2222 113.286 70.2504 113.567 70.2504 113.848C70.2504 120.294 70.2504 126.711 70.2504 133.156C70.2504 133.438 70.2504 133.691 70.2785 133.972C70.3067 134.169 70.4193 134.31 70.6163 134.31C71.911 134.31 73.2338 134.31 74.5285 134.31C74.7255 134.31 74.8662 134.169 74.8662 133.972C74.8943 133.663 74.8943 133.353 74.8943 133.043C74.8943 130.623 74.8943 128.174 74.8943 125.754C74.8943 125.444 74.8943 125.135 74.9225 124.825C74.9225 124.628 75.0632 124.516 75.2602 124.487C75.4291 124.459 75.6261 124.459 75.795 124.459C78.2718 124.459 80.7485 124.459 83.2253 124.459C83.3942 124.459 83.5912 124.431 83.7601 124.487C83.8727 124.516 83.9852 124.656 84.0134 124.741C84.0697 125.05 84.0697 125.36 84.0697 125.669C84.0697 128.09 84.0697 130.539 84.0697 132.959C84.0697 133.269 84.0697 133.578 84.0697 133.916C84.0697 134.169 84.2385 134.338 84.4919 134.338C85.7584 134.338 86.9968 134.338 88.2633 134.338C88.5448 134.338 88.6573 134.169 88.6855 133.916C88.7136 133.606 88.6855 133.297 88.6855 132.959C88.6855 131.073 88.6855 129.188 88.6855 127.302C88.6855 126.626 88.6855 125.951 88.6855 125.275C88.6855 124.234 88.207 123.474 87.3908 122.883C87.1656 122.658 86.8842 122.517 86.5183 122.32ZM114.523 134.282C114.438 133.775 114.129 133.494 113.904 133.184C111.877 130.37 109.823 127.583 107.796 124.769C107.599 124.516 107.43 124.262 107.233 124.009C106.895 123.502 106.895 123.502 107.205 123.052C107.346 122.827 107.515 122.602 107.683 122.405C109.766 119.562 111.821 116.747 113.904 113.905C114.129 113.595 114.41 113.286 114.579 112.807C114.213 112.807 113.96 112.779 113.707 112.779C112.524 112.779 111.37 112.835 110.188 112.751C109.175 112.666 108.584 113.004 107.965 113.848C105.263 117.676 102.477 121.42 99.6902 125.191C99.5495 125.388 99.4932 125.726 99.1273 125.641C98.9022 125.304 99.0148 124.938 99.0148 124.6C99.0148 121.138 99.0148 117.676 99.0148 114.214C99.0148 113.848 99.0148 113.483 98.9866 113.145C98.9866 112.948 98.874 112.807 98.6489 112.807C97.3542 112.807 96.0314 112.807 94.7367 112.807C94.4834 112.807 94.3427 112.976 94.3145 113.229C94.3145 113.539 94.3145 113.848 94.3145 114.186C94.3145 120.434 94.3145 126.711 94.3145 132.959C94.3145 133.184 94.3145 133.409 94.3145 133.635C94.3427 134.282 94.3708 134.366 94.99 134.366C96.0314 134.366 97.0727 134.338 98.086 134.394C98.677 134.423 99.0992 134.226 99.437 133.719C100.45 132.227 101.548 130.792 102.589 129.328C102.983 128.794 103.377 128.231 103.771 127.696C104.165 127.893 104.334 128.231 104.531 128.512C105.713 130.145 106.895 131.805 108.106 133.438C108.894 134.507 108.697 134.338 109.851 134.366C110.892 134.366 111.933 134.366 112.947 134.366C113.481 134.31 113.96 134.338 114.523 134.282ZM130.706 124.6C130.706 127.33 130.706 130.088 130.706 132.818C130.706 133.184 130.706 133.55 130.734 133.888C130.763 134.141 130.903 134.282 131.185 134.282C132.451 134.282 133.69 134.282 134.956 134.282C135.238 134.282 135.35 134.113 135.378 133.86C135.378 133.55 135.378 133.241 135.378 132.903C135.378 130.51 135.378 128.146 135.378 125.754C135.378 125.444 135.378 125.135 135.406 124.797C135.406 124.544 135.575 124.403 135.829 124.403C136.195 124.403 136.56 124.403 136.898 124.403C139.994 124.403 143.118 124.403 146.214 124.403C146.524 124.403 146.833 124.403 147.171 124.403C147.509 124.403 147.678 124.262 147.678 123.924C147.678 123.024 147.678 122.123 147.678 121.223C147.678 119.984 147.65 120.069 146.468 120.069C143.231 120.069 139.994 120.069 136.757 120.069C136.392 120.069 136.026 120.069 135.688 120.04C135.604 120.04 135.435 119.872 135.435 119.787C135.406 118.971 135.406 118.183 135.435 117.367C135.435 117.17 135.632 117.085 135.801 117.085C136.166 117.085 136.532 117.085 136.87 117.085C139.966 117.085 143.09 117.085 146.186 117.085C146.496 117.085 146.805 117.085 147.143 117.085C147.453 117.085 147.678 116.973 147.678 116.635C147.678 115.453 147.678 114.299 147.678 113.117C147.678 112.92 147.537 112.779 147.34 112.779C147.059 112.751 146.805 112.751 146.524 112.751C142.471 112.751 138.418 112.751 134.393 112.751C134.112 112.751 133.859 112.751 133.577 112.751C132.17 112.807 130.791 114.158 130.763 115.537C130.763 115.903 130.734 116.269 130.734 116.607C130.706 119.28 130.706 121.954 130.706 124.6ZM174.866 112.751C172.952 112.751 171.292 112.779 169.631 112.751C169.124 112.751 168.815 112.948 168.533 113.37C167.323 115.059 166.113 116.719 164.875 118.38C164.649 118.689 164.452 119.083 164.115 119.28C163.692 119.055 163.495 118.633 163.242 118.267C162.004 116.607 160.793 114.946 159.583 113.257C159.33 112.892 159.02 112.751 158.57 112.751C156.994 112.779 155.418 112.751 153.842 112.779C153.729 112.779 153.56 112.779 153.532 113.004C153.616 113.37 153.926 113.651 154.151 113.961C156.431 117.141 158.711 120.322 161.047 123.446C161.582 124.178 161.807 124.91 161.807 125.81C161.75 128.203 161.779 130.567 161.779 132.959C161.779 133.269 161.779 133.578 161.779 133.916C161.807 134.169 161.947 134.338 162.201 134.338C163.467 134.338 164.706 134.338 165.972 134.338C166.028 134.338 166.085 134.338 166.113 134.31C166.197 134.226 166.366 134.141 166.366 134.057C166.422 133.747 166.423 133.438 166.423 133.128C166.423 130.567 166.451 128.005 166.423 125.444C166.423 124.769 166.591 124.234 166.985 123.699C169.321 120.519 171.629 117.31 173.965 114.102C174.219 113.708 174.472 113.342 174.866 112.751ZM125.049 123.53C125.049 121.025 125.049 118.492 125.049 115.988C125.049 115.143 125.049 114.271 125.049 113.426C125.049 112.863 124.965 112.779 124.458 112.779C123.473 112.779 122.488 112.779 121.503 112.779C120.321 112.779 120.349 112.751 120.349 113.989C120.349 120.378 120.349 126.739 120.349 133.128C120.349 133.409 120.349 133.663 120.377 133.944C120.405 134.197 120.574 134.338 120.827 134.338C122.038 134.338 123.248 134.338 124.458 134.338C124.908 134.338 125.021 134.226 125.049 133.803C125.077 133.494 125.049 133.184 125.049 132.846C125.049 129.722 125.049 126.626 125.049 123.53Z" fill="#020202"/>
<path d="M60.2029 66.255C60.2874 66.9305 60.3718 67.6622 60.4563 68.3659C60.8503 72.5876 61.2443 76.7813 61.6383 81.003C61.7791 82.354 61.9198 83.6768 62.0324 85.0278C62.2294 87.392 61.7791 89.5873 60.597 91.6419C58.3172 95.6104 53.8421 97.6368 49.6204 96.9895C45.0046 96.2859 41.3738 92.9085 40.3887 88.4615C40.248 87.8142 40.1917 87.1105 40.1917 86.4632C40.1636 80.9749 40.1917 75.4866 40.1636 69.9701C40.1636 68.4503 40.7828 67.3808 42.0212 66.6208C43.935 65.4106 45.8208 64.2285 47.7346 63.0183C57.5292 56.7982 67.3237 50.5499 77.1182 44.3017C77.4841 44.0484 77.85 43.7951 78.244 43.5418C78.1596 43.0915 77.7655 42.9789 77.5122 42.7819C72.5024 39.0949 69.322 34.1976 68.1962 28.0901C65.9727 15.7906 73.0934 5.57395 82.7754 1.71805C84.0701 1.21144 85.3929 0.78926 86.772 0.535954C87.2505 0.451518 87.7571 0.451521 88.2074 0.17007C88.4607 0.00119845 88.7422 0.0574905 88.9955 0.0574905C89.7272 0.0574905 90.4309 0.0293436 91.1627 0.0293436C92.2885 0.0574888 93.4143 -0.111384 94.5119 0.141923C97.8612 0.901843 101.126 1.80249 104.025 3.74451C105.995 5.03919 107.768 6.55903 109.288 8.36032C113.172 13.0043 115.058 18.3519 114.861 24.4312C114.664 30.7639 112.243 36.1115 107.796 40.5866C107.008 41.3746 106.108 42.0782 105.207 42.7537C104.278 43.4292 104.306 43.4292 105.292 44.0766C105.517 44.2173 105.742 44.358 105.967 44.4987C116.775 51.3943 127.611 58.2617 138.418 65.1573C139.15 65.6076 139.882 66.058 140.586 66.5083C141.12 66.846 141.599 67.2682 141.965 67.7748C142.246 68.197 142.415 68.6473 142.499 69.1539C142.528 69.3228 142.528 69.5198 142.528 69.6887C142.499 75.374 142.499 81.0312 142.471 86.7165C142.443 92.2048 137.236 97.5524 130.763 97.0458C124.796 96.5673 120.321 91.5293 120.631 85.5063C120.715 83.8457 120.912 82.1851 121.081 80.5246C121.306 77.9634 121.559 75.4303 121.813 72.8691C122.01 70.7582 122.207 68.6473 122.404 66.5646C122.432 66.2268 122.657 66.1142 122.967 66.3113C124.712 67.4089 126.457 68.5347 128.202 69.6324C128.596 69.8857 128.736 70.1672 128.68 70.6456C128.202 75.5147 127.751 80.412 127.273 85.2811C127.104 87.0824 127.554 88.5741 129.046 89.6718C131.664 91.5856 135.463 89.9251 135.829 86.7165C135.885 86.3225 135.857 85.9003 135.857 85.5063C135.857 81.2282 135.857 76.9501 135.857 72.6721C135.857 72.3906 135.857 72.1373 135.857 71.8559C135.857 71.5463 135.716 71.3492 135.491 71.1804C135.21 70.9834 134.9 70.7863 134.591 70.5893C121.982 62.568 109.373 54.5466 96.7917 46.5252C96.3414 46.2437 95.891 45.9341 95.4407 45.6245C93.5831 44.2736 93.752 41.1776 95.9192 40.1081C96.3695 39.8829 96.8198 39.7141 97.2983 39.5452C103.321 37.1528 106.952 32.7622 108.05 26.4014C109.007 20.8005 107.402 15.8751 103.406 11.794C99.8595 8.19144 95.5252 6.58717 90.4872 6.72789C83.7042 6.89677 76.1613 12.0192 74.6133 20.6879C73.1216 29.0189 77.7374 36.3085 84.5204 39.2074C85.1114 39.4608 85.7025 39.6578 86.2935 39.8829C87.5319 40.3614 88.32 41.2339 88.4607 42.5567C88.6296 43.9358 88.0948 45.0054 86.9409 45.7934C86.6031 46.0186 86.2654 46.2437 85.9277 46.4689C73.2905 54.5184 60.6533 62.5679 48.0161 70.6175C46.6651 71.49 46.7496 71.293 46.7496 72.8409C46.7496 77.0346 46.7496 81.2282 46.7496 85.3937C46.7496 86.1255 46.8058 86.8291 47.0029 87.5327C47.5939 89.4466 49.6485 90.7131 51.6468 90.4317C53.7014 90.1502 55.3057 88.4334 55.3901 86.4351C55.4183 85.9003 55.3901 85.3655 55.3338 84.8026C54.9117 80.4683 54.4613 76.1058 54.0673 71.7714C53.8703 69.5198 53.6733 70.0827 55.5027 68.9006C56.7411 68.0844 58.0076 67.2963 59.246 66.5083C59.5556 66.3957 59.7808 66.1424 60.2029 66.255Z" fill="#020202"/>
<path d="M177.343 104.645C175.513 103.519 173.543 102.984 171.404 103.041C170.954 103.041 170.503 103.041 170.081 103.013C170.166 102.337 169.912 101.69 169.8 101.042C169.547 99.4945 169.406 97.9465 169.068 96.4266C168.899 95.6386 169.012 94.8224 168.59 94.0906C168.533 92.8803 168.252 91.6982 168.055 90.5162C167.914 89.5592 167.717 88.6023 167.576 87.6453C167.436 86.6884 167.267 85.7033 167.154 84.7464C166.985 83.508 166.732 82.2978 166.507 81.0594C166.254 79.5114 166.057 77.9634 165.831 76.4154C165.522 74.389 165.184 72.3344 164.846 70.3079C164.565 68.4503 164.283 66.5927 163.974 64.7352C163.946 64.51 163.889 64.2848 163.861 64.0597C163.777 63.4405 163.467 63.0183 162.904 62.6806C160.681 61.3014 158.514 59.866 156.318 58.4588C155.418 57.8677 154.489 57.333 153.588 56.7419C153.25 56.5168 152.913 56.2916 152.603 56.0383C151.562 55.2221 151.14 54.2089 151.196 52.8579C151.252 51.5069 151.956 50.6344 153.053 50.1278C154.404 49.4805 155.643 48.6924 156.853 47.8481C159.133 46.2438 160.681 44.0766 161.863 41.628C162.398 40.5022 162.989 39.3482 163.101 38.0817C163.158 37.378 163.495 36.7026 163.411 35.9708C163.355 35.2953 163.355 34.6198 163.411 33.9443C163.467 32.6778 163.298 31.4394 162.932 30.2292C161.778 26.1481 159.527 22.7988 155.924 20.4909C154.601 19.6466 153.222 18.8867 151.702 18.4363C150.858 18.183 149.957 18.0423 149.085 17.8453C148.156 17.6483 147.227 17.5638 146.299 17.6201C144.3 17.7608 142.33 18.0423 140.444 18.8585C139.403 19.3088 138.418 19.7873 137.461 20.3783C135.519 21.5604 133.943 23.1647 132.676 25.0504C131.353 27.0206 130.594 29.1597 130.087 31.4676C129.777 32.903 129.806 34.3384 129.777 35.7456C129.777 36.5337 129.974 37.3217 130.143 38.1098C130.256 38.6727 130.453 39.2356 130.622 39.7985C132.057 43.964 134.618 47.2007 138.587 49.2553C139.15 49.5368 139.713 49.8182 140.276 50.0997C141.486 50.7189 142.415 52.5201 142.133 53.7304C141.88 54.7999 141.345 55.7287 140.36 56.3479C139.178 57.0797 137.996 57.8396 136.814 58.5995C136.335 58.9091 135.829 59.2468 135.35 59.5564C134.731 59.9786 134.534 60.0068 133.887 59.6127C132.901 58.9935 131.945 58.3462 130.959 57.727C130.312 57.333 129.637 56.9671 128.989 56.5731C128.201 56.1227 128.032 55.8131 128.905 55.2502C129.749 54.7436 130.565 54.1807 131.41 53.646C131.748 53.4208 131.776 53.2519 131.494 53.0268C131.353 52.9142 131.213 52.8016 131.072 52.6609C128.736 50.6907 126.878 48.3265 125.443 45.6527C124.43 43.7951 123.782 41.7968 123.276 39.7422C122.854 38.0254 122.769 36.2804 122.854 34.5354C122.91 33.3814 122.797 32.1993 122.966 31.0454C123.135 29.9196 123.388 28.8501 123.698 27.7805C125.359 22.2078 128.708 17.8734 133.408 14.5804C134.646 13.7079 136.026 13.0325 137.433 12.4414C140.332 11.2312 143.315 10.6401 146.467 10.6683C148.184 10.6964 149.901 10.6964 151.562 11.0904C158.148 12.6947 163.411 16.1847 166.957 22.0108C168.308 24.2342 169.349 26.5984 169.884 29.1878C170.194 30.5951 170.475 31.9742 170.419 33.4096C170.419 34.0288 170.391 34.6761 170.447 35.2953C170.532 37.1247 170.166 38.8416 169.687 40.5866C169.096 42.8101 168.167 44.9209 167.013 46.8911C165.859 48.8894 164.368 50.6344 162.651 52.1824C162.369 52.4357 162.088 52.6327 161.835 52.886C161.413 53.2801 161.413 53.3927 161.891 53.7023C163.523 54.7436 165.156 55.785 166.788 56.7982C167.323 57.136 167.858 57.4737 168.393 57.7833C169.575 58.5151 170.222 59.5846 170.419 60.9637C170.729 63.1309 171.094 65.2981 171.432 67.4652C171.883 70.2516 172.361 73.038 172.811 75.8244C173.121 77.8227 173.374 79.821 173.74 81.7911C174.19 84.2116 174.556 86.6321 174.894 89.0526C175.063 90.3473 175.26 91.642 175.57 92.9085C175.879 94.2313 175.935 95.5823 176.189 96.9051C176.583 98.9879 176.921 101.071 177.23 103.153C177.343 103.632 177.315 104.138 177.343 104.645Z" fill="#036B03"/>
<path d="M91.3876 94.372C90.5432 94.569 89.9522 94.1468 89.4456 93.6402C88.2916 92.4863 87.1658 91.3605 86.0118 90.2065C85.2519 89.4466 84.492 88.6585 83.7039 87.9268C82.8877 87.1668 82.55 86.2381 82.6907 85.1404C82.7189 84.9152 82.7189 84.6901 82.7751 84.4649C83.5069 80.6653 84.2387 76.8657 84.9705 73.0661C85.3082 71.2648 85.646 69.4354 86.0118 67.6341C86.2089 66.7053 86.4059 65.8046 86.631 64.8759C86.7436 64.3692 86.7155 63.9471 86.2933 63.5249C85.1393 62.3991 84.7172 60.9355 84.4357 59.4157C84.2387 58.3462 84.5764 57.3611 84.9142 56.376C85.7022 54.2088 87.2221 52.7171 89.4456 52.0979C93.02 51.1129 96.8196 52.9141 98.0861 56.6575C98.9305 59.1624 98.3394 61.3577 96.7351 63.3279C96.2848 63.8908 96.1722 64.313 96.313 65.0166C96.7914 67.2682 97.1573 69.5198 97.5795 71.7714C98.0298 74.1919 98.5365 76.6124 99.0149 79.0329C99.3808 80.9186 99.7467 82.8325 100.084 84.7182C100.141 85.0278 100.169 85.3374 100.197 85.647C100.253 86.2662 100.084 86.801 99.6623 87.2513C99.3808 87.5609 99.1275 87.8423 98.846 88.1519C97.0729 89.9251 95.2716 91.7263 93.4985 93.4995C92.9074 94.1187 92.2601 94.5409 91.3876 94.372ZM91.5002 68.1126C91.2468 68.3377 91.1906 68.5347 91.1343 68.7599C90.881 70.1671 90.6558 71.5744 90.3743 72.9817C89.7551 76.2465 89.0797 79.4832 88.4605 82.7481C88.3197 83.3954 88.0946 84.099 88.2072 84.7182C88.3479 85.4218 89.1078 85.8159 89.5863 86.3225C90.2055 86.9417 90.7965 87.6172 91.3876 88.0956C92.4852 87.0824 93.4985 86.1255 94.5117 85.1685C94.765 84.9434 94.7931 84.6619 94.7368 84.296C94.4273 82.4385 94.0332 80.5809 93.6673 78.7514C93.3014 76.9501 93.0481 75.1207 92.5978 73.3476C92.1756 71.6588 92.0068 69.8857 91.5002 68.1126ZM91.4157 60.8229C92.4852 60.8229 93.414 59.9504 93.4422 58.8809C93.4703 57.7833 92.5415 56.7982 91.4157 56.7982C90.2899 56.7982 89.3893 57.727 89.3893 58.8809C89.4456 59.9504 90.3462 60.8229 91.4157 60.8229Z" fill="#036B03"/>
<path d="M59.8928 123.559C59.8928 125.275 59.8928 126.964 59.8928 128.681C59.8928 128.991 59.8928 129.3 59.8646 129.61C59.8646 129.807 59.7239 129.919 59.5269 129.948C59.3862 129.976 59.2454 129.976 59.1329 129.976C56.5717 129.976 54.0104 129.976 51.4492 129.976C50.83 129.976 50.7456 129.891 50.7456 129.272C50.7456 125.416 50.7456 121.532 50.7456 117.676C50.7456 117.113 50.7737 117.057 51.3648 117.057C53.9823 117.057 56.5717 117.057 59.1892 117.057C59.2455 117.057 59.2736 117.057 59.3299 117.057C59.7802 117.085 59.8928 117.17 59.8928 117.592C59.9209 118.211 59.8928 118.858 59.8928 119.478C59.8928 120.857 59.8928 122.208 59.8928 123.559Z" fill="#020202"/>
<path d="M79.5665 120.097C78.1874 120.097 76.7802 120.097 75.401 120.097C75.0915 120.097 74.8944 119.984 74.8944 119.618C74.8944 119.534 74.8944 119.449 74.8944 119.337C74.9507 118.633 74.7537 117.901 75.007 117.226C75.6825 116.888 76.4143 117.085 77.1179 117.085C79.2288 117.057 81.3397 117.057 83.4506 117.085C84.0416 117.085 84.0979 117.113 84.0698 117.676C84.0416 118.436 84.1823 119.196 83.9853 119.928C83.2536 120.237 82.4936 120.04 81.7619 120.069C81.0019 120.125 80.2983 120.097 79.5665 120.097Z" fill="#020202"/>
</svg>
