<svg width="209" height="209" viewBox="0 0 209 209" fill="none" xmlns="http://www.w3.org/2000/svg">
<path d="M104.5 199.607C152.707 199.607 191.786 177.045 191.786 149.213C191.786 121.382 152.707 98.8193 104.5 98.8193C56.2925 98.8193 17.2129 121.382 17.2129 149.213C17.2129 177.045 56.2925 199.607 104.5 199.607Z" fill="#EBEBEB"/>
<path d="M108.388 136.707L57.8974 165.863C56.4762 166.699 53.9974 166.582 52.3547 165.633L34.4309 155.283C32.7923 154.338 32.6126 152.905 34.0129 152.085L84.5031 122.93C85.9243 122.094 88.403 122.211 90.0458 123.16L107.97 133.509C109.629 134.454 109.809 135.888 108.388 136.707Z" fill="#E0E0E0"/>
<path d="M162.752 146.885L166.732 149.197C166.732 149.197 164.725 142.793 165.837 136.348C166.106 134.83 166.654 133.376 167.455 132.059C167.768 131.407 170.168 127.39 168.057 125.534C165.946 123.678 160.993 127.369 161.214 137.292C161.32 140.542 161.837 143.765 162.752 146.885Z" fill="black"/>
<path opacity="0.5" d="M162.752 146.885L166.732 149.197C166.732 149.197 164.725 142.793 165.837 136.348C166.106 134.83 166.654 133.376 167.455 132.059C167.768 131.407 170.168 127.39 168.057 125.534C165.946 123.678 160.993 127.369 161.214 137.292C161.32 140.542 161.837 143.765 162.752 146.885Z" fill="black"/>
<path d="M164.605 148.143C164.567 148.143 164.53 148.131 164.5 148.109C164.469 148.088 164.446 148.057 164.433 148.022C164.433 147.98 162.916 143.804 162.995 137.108C163.075 130.412 166.615 126.775 166.653 126.742C166.669 126.725 166.689 126.712 166.71 126.703C166.732 126.694 166.755 126.689 166.778 126.689C166.801 126.689 166.825 126.694 166.846 126.703C166.868 126.712 166.887 126.725 166.904 126.742C166.92 126.758 166.934 126.778 166.943 126.8C166.952 126.822 166.957 126.845 166.957 126.869C166.957 126.893 166.952 126.916 166.943 126.938C166.934 126.96 166.92 126.98 166.904 126.997C166.87 127.03 163.434 130.529 163.355 137.112C163.275 143.696 164.759 147.859 164.772 147.901C164.78 147.923 164.785 147.946 164.784 147.97C164.783 147.993 164.778 148.016 164.768 148.038C164.758 148.059 164.745 148.079 164.727 148.095C164.71 148.111 164.689 148.123 164.667 148.131L164.605 148.143Z" fill="white"/>
<path d="M165.838 148.691L172.409 152.57C172.409 152.57 175.418 152.127 175.193 149.293C174.967 146.459 173.742 145.794 175.264 144.549C176.785 143.303 177.178 143.223 177.103 142.003C177.028 140.782 176.213 140.252 175.824 139.771C175.435 139.29 174.365 138.27 175.122 136.803C175.878 135.336 176.902 133.91 175.381 133.233C174.47 132.815 172.94 133.338 171.928 134.412C170.917 135.486 170.076 136.264 169.119 136.502C168.162 136.74 166.156 136.77 166.222 138.425C166.289 140.08 166.72 140.653 166.319 141.384C165.562 142.768 162.331 143.516 165.838 148.691Z" fill="black"/>
<path opacity="0.2" d="M165.838 148.691L172.409 152.57C172.409 152.57 175.418 152.127 175.193 149.293C174.967 146.459 173.742 145.794 175.264 144.549C176.785 143.303 177.178 143.223 177.103 142.003C177.028 140.782 176.213 140.252 175.824 139.771C175.435 139.29 174.365 138.27 175.122 136.803C175.878 135.336 176.902 133.91 175.381 133.233C174.47 132.815 172.94 133.338 171.928 134.412C170.917 135.486 170.076 136.264 169.119 136.502C168.162 136.74 166.156 136.77 166.222 138.425C166.289 140.08 166.72 140.653 166.319 141.384C165.562 142.768 162.331 143.516 165.838 148.691Z" fill="black"/>
<path d="M168.513 150.447C168.468 150.447 168.424 150.43 168.39 150.399C168.357 150.368 168.337 150.325 168.333 150.28C168.333 150.183 167.614 140.386 174.419 133.953C174.454 133.92 174.501 133.902 174.549 133.904C174.597 133.905 174.642 133.926 174.674 133.961C174.707 133.996 174.725 134.042 174.723 134.09C174.722 134.138 174.701 134.183 174.666 134.216C167.978 140.528 168.689 150.154 168.697 150.25C168.701 150.298 168.685 150.346 168.654 150.383C168.622 150.42 168.578 150.443 168.53 150.447H168.513Z" fill="white"/>
<path d="M169.708 142.049C169.663 142.049 169.619 142.032 169.585 142.001C169.552 141.97 169.532 141.927 169.529 141.882C169.478 141.13 169.274 140.396 168.931 139.724C168.587 139.053 168.111 138.459 167.53 137.978C167.511 137.964 167.495 137.946 167.483 137.926C167.47 137.905 167.462 137.883 167.458 137.859C167.455 137.836 167.456 137.812 167.461 137.789C167.467 137.766 167.477 137.744 167.491 137.725C167.505 137.706 167.522 137.689 167.543 137.677C167.563 137.665 167.586 137.656 167.609 137.653C167.632 137.649 167.656 137.65 167.68 137.655C167.703 137.661 167.724 137.671 167.744 137.685C168.37 138.196 168.885 138.831 169.254 139.55C169.623 140.27 169.839 141.058 169.888 141.865C169.891 141.912 169.876 141.959 169.846 141.995C169.815 142.031 169.772 142.053 169.725 142.057L169.708 142.049Z" fill="white"/>
<path d="M169.207 143.721C169.162 143.722 169.119 143.705 169.086 143.675C169.053 143.641 169.034 143.595 169.034 143.548C169.034 143.5 169.053 143.454 169.086 143.42C169.157 143.341 170.87 141.489 174.833 142.032C174.88 142.041 174.922 142.066 174.951 142.104C174.979 142.142 174.993 142.19 174.988 142.237C174.98 142.285 174.955 142.327 174.917 142.356C174.878 142.385 174.83 142.398 174.783 142.392C171.021 141.878 169.37 143.646 169.349 143.646C169.333 143.669 169.312 143.688 169.287 143.702C169.263 143.715 169.235 143.721 169.207 143.721Z" fill="white"/>
<path d="M42.2684 141.259L40.308 145.418C40.308 145.418 38.3225 139.006 33.7496 134.329C32.6705 133.23 31.3943 132.344 29.9876 131.716C29.3647 131.357 25.1095 129.409 25.8076 126.7C26.5056 123.992 32.6628 124.192 38.1135 132.498C39.8623 135.232 41.2583 138.175 42.2684 141.259Z" fill="black"/>
<path opacity="0.5" d="M42.2684 141.259L40.308 145.418C40.308 145.418 38.3225 139.006 33.7496 134.329C32.6705 133.23 31.3943 132.344 29.9876 131.716C29.3647 131.357 25.1095 129.409 25.8076 126.7C26.5056 123.992 32.6628 124.192 38.1135 132.498C39.8623 135.232 41.2583 138.175 42.2684 141.259Z" fill="black"/>
<path d="M41.3575 143.374C41.3177 143.374 41.2791 143.36 41.2474 143.336C41.2158 143.312 41.1928 143.278 41.182 143.24C41.182 143.198 40.0534 138.964 36.2287 133.551C32.404 128.138 27.6179 127.243 27.5886 127.235C27.5652 127.231 27.5429 127.222 27.5229 127.21C27.5029 127.197 27.4855 127.18 27.4719 127.161C27.4583 127.141 27.4487 127.12 27.4436 127.096C27.4385 127.073 27.4381 127.049 27.4423 127.026C27.4515 126.979 27.4783 126.938 27.5173 126.911C27.5563 126.883 27.6043 126.872 27.6513 126.88C27.7015 126.88 32.6673 127.841 36.5463 133.342C40.4254 138.843 41.5623 143.106 41.5623 143.148C41.5739 143.195 41.5668 143.244 41.5426 143.285C41.5184 143.327 41.479 143.357 41.4328 143.37L41.3575 143.374Z" fill="white"/>
<path d="M40.7553 144.499L37.5367 151.408C37.5367 151.408 34.8072 152.75 33.3902 150.288C31.9732 147.826 32.596 146.584 30.6397 146.421C28.6835 146.258 28.3073 146.421 27.6761 145.372C27.0449 144.323 27.417 143.42 27.4629 142.806C27.5089 142.191 27.8182 140.741 26.3594 139.959C24.9006 139.177 23.2495 138.592 24.1231 137.171C24.6414 136.335 26.188 135.871 27.6343 136.185C29.0806 136.498 30.205 136.657 31.1372 136.318C32.0693 135.98 33.7288 134.859 34.6149 136.26C35.5011 137.66 35.4509 138.375 36.2159 138.768C37.6203 139.462 40.7052 138.241 40.7553 144.499Z" fill="black"/>
<path opacity="0.2" d="M40.7553 144.499L37.5367 151.408C37.5367 151.408 34.8072 152.75 33.3902 150.288C31.9732 147.826 32.596 146.584 30.6397 146.421C28.6835 146.258 28.3073 146.421 27.6761 145.372C27.0449 144.323 27.417 143.42 27.4629 142.806C27.5089 142.191 27.8182 140.741 26.3594 139.959C24.9006 139.177 23.2495 138.592 24.1231 137.171C24.6414 136.335 26.188 135.871 27.6343 136.185C29.0806 136.498 30.205 136.657 31.1372 136.318C32.0693 135.98 33.7288 134.859 34.6149 136.26C35.5011 137.66 35.4509 138.375 36.2159 138.768C37.6203 139.462 40.7052 138.241 40.7553 144.499Z" fill="black"/>
<path d="M39.4426 147.491C39.4109 147.491 39.3798 147.483 39.3525 147.467C39.3253 147.451 39.303 147.427 39.2879 147.399C39.2377 147.316 34.3513 138.993 25.2724 137.585C25.2486 137.581 25.2258 137.573 25.2053 137.561C25.1848 137.548 25.167 137.532 25.153 137.512C25.139 137.493 25.129 137.471 25.1237 137.447C25.1183 137.424 25.1177 137.399 25.1219 137.376C25.1249 137.352 25.1327 137.33 25.1447 137.309C25.1568 137.289 25.1729 137.271 25.1921 137.257C25.2112 137.243 25.233 137.233 25.2562 137.227C25.2793 137.222 25.3033 137.221 25.3267 137.225C34.5812 138.663 39.5387 147.136 39.6014 147.22C39.6165 147.248 39.6242 147.279 39.6237 147.31C39.6232 147.342 39.6145 147.373 39.5986 147.4C39.5826 147.428 39.5598 147.45 39.5325 147.466C39.5052 147.482 39.4742 147.491 39.4426 147.491Z" fill="white"/>
<path d="M33.7117 141.246C33.6795 141.246 33.6478 141.238 33.62 141.222C33.5921 141.205 33.5689 141.182 33.5528 141.154C33.1377 140.462 32.8703 139.691 32.7674 138.891C32.6646 138.09 32.7285 137.277 32.9551 136.502C32.963 136.48 32.9753 136.459 32.9912 136.442C33.007 136.424 33.0262 136.41 33.0475 136.4C33.0689 136.39 33.092 136.384 33.1156 136.383C33.1392 136.382 33.1628 136.385 33.185 136.393C33.2072 136.401 33.2277 136.414 33.2452 136.429C33.2627 136.445 33.2768 136.464 33.2869 136.486C33.297 136.507 33.3028 136.53 33.304 136.554C33.3051 136.577 33.3016 136.601 33.2937 136.623C33.0893 137.349 33.0339 138.109 33.1309 138.857C33.2279 139.604 33.4752 140.325 33.858 140.975C33.8699 140.995 33.8776 141.018 33.8807 141.041C33.8838 141.065 33.8822 141.089 33.876 141.112C33.8698 141.135 33.8591 141.156 33.8445 141.175C33.8299 141.194 33.8118 141.21 33.7911 141.221C33.7672 141.236 33.7399 141.245 33.7117 141.246Z" fill="white"/>
<path d="M29.7034 144.423C29.6783 144.423 29.6536 144.418 29.6306 144.408C29.6076 144.398 29.5869 144.383 29.5696 144.365C29.5528 144.348 29.5395 144.328 29.5304 144.306C29.5213 144.285 29.5166 144.261 29.5166 144.237C29.5166 144.214 29.5213 144.19 29.5304 144.168C29.5395 144.146 29.5528 144.127 29.5696 144.11C32.5207 141.414 35.0036 141.966 35.0872 141.991C35.1103 141.996 35.1322 142.006 35.1514 142.02C35.1707 142.034 35.187 142.051 35.1994 142.071C35.2118 142.092 35.2201 142.114 35.2239 142.138C35.2276 142.161 35.2266 142.185 35.221 142.208C35.2161 142.231 35.2065 142.253 35.1928 142.273C35.1791 142.293 35.1615 142.309 35.1411 142.322C35.1208 142.334 35.0981 142.342 35.0745 142.346C35.0508 142.349 35.0267 142.348 35.0036 142.342C34.9786 142.342 32.6127 141.819 29.8121 144.377C29.7816 144.404 29.7436 144.42 29.7034 144.423Z" fill="white"/>
<path d="M40.8012 57.0568C40.8016 55.8398 41.122 54.6442 41.7302 53.5899C42.3383 52.5357 43.213 51.6598 44.2664 51.0502L88.3737 25.5856C88.668 25.416 88.9965 25.3144 89.3352 25.2884C89.6739 25.2623 90.0141 25.3125 90.3308 25.4352C90.6476 25.5579 90.9328 25.7499 91.1656 25.9973C91.3983 26.2447 91.5727 26.5411 91.6759 26.8647C91.5575 26.3462 91.3359 25.8569 91.0242 25.426C90.7125 24.9951 90.3172 24.6314 89.8618 24.3567L89.703 24.2647C88.6053 23.6117 87.352 23.2666 86.0747 23.2657C85.6665 23.2619 85.2649 23.3688 84.9127 23.575L40.8053 49.0521C39.7503 49.6603 38.8741 50.5357 38.2651 51.5902C37.656 52.6447 37.3355 53.8411 37.3359 55.0588V150.442C37.3364 150.841 37.4417 151.232 37.6411 151.577C37.8405 151.922 38.127 152.209 38.4721 152.408C38.8171 152.608 39.2085 152.713 39.607 152.713C40.0055 152.714 40.3971 152.61 40.7426 152.411L40.8012 152.378V57.0568Z" fill="#37474F"/>
<path d="M88.3148 128.944L44.2075 154.409C43.8625 154.609 43.4709 154.714 43.0723 154.714C42.6737 154.714 42.282 154.61 41.9366 154.411C41.5913 154.211 41.3045 153.925 41.1051 153.58C40.9057 153.235 40.8008 152.843 40.8008 152.444V57.0567C40.8012 55.8396 41.1216 54.644 41.7298 53.5897C42.338 52.5355 43.2126 51.6596 44.266 51.05L88.3734 25.5854C88.7189 25.3869 89.1105 25.2827 89.509 25.2832C89.9075 25.2837 90.2989 25.3889 90.6439 25.5883C90.989 25.7877 91.2755 26.0743 91.4749 26.4193C91.6743 26.7644 91.7796 27.1557 91.7801 27.5542V122.938C91.7805 124.155 91.4604 125.351 90.8522 126.405C90.2439 127.46 89.3688 128.335 88.3148 128.944Z" fill="#455A64"/>
<path d="M40.8012 152.445V57.0571C40.8016 56.0179 41.0359 54.9921 41.4867 54.0558L38.0758 51.9658C37.59 52.9321 37.3367 53.9984 37.3359 55.0799V151.262C37.336 151.64 37.4343 152.012 37.6211 152.341C37.808 152.67 38.077 152.945 38.4018 153.139L40.1616 154.184C40.7707 154.547 41.4669 154.739 42.1764 154.739H43.0542C42.7556 154.737 42.4604 154.675 42.1856 154.558C41.9107 154.442 41.6616 154.272 41.4524 154.059C41.2432 153.846 41.078 153.593 40.9662 153.316C40.8545 153.04 40.7984 152.743 40.8012 152.445Z" fill="#263238"/>
<path d="M86.7981 34.7563V114.95C86.7972 116.025 86.5137 117.081 85.9759 118.012C85.4382 118.943 84.6651 119.716 83.7342 120.254L44.7849 142.738C44.4913 142.909 44.1588 143.001 43.8193 143.006C43.9317 143.266 44.0978 143.499 44.3067 143.69C44.5157 143.881 44.7627 144.026 45.0316 144.115C45.3005 144.204 45.5851 144.235 45.8668 144.206C46.1485 144.176 46.4208 144.088 46.6659 143.946L85.6152 121.458C86.5459 120.92 87.3186 120.147 87.8557 119.216C88.3928 118.285 88.6753 117.228 88.6749 116.153V36.7544C88.6759 36.2448 88.4821 35.7542 88.1332 35.3827C87.7843 35.0113 87.3067 34.7873 86.7981 34.7563Z" fill="#37474F"/>
<path d="M43.8193 142.985C44.1587 142.98 44.4912 142.888 44.7849 142.717L83.7341 120.233C84.6619 119.697 85.4331 118.927 85.9707 118C86.5083 117.073 86.7935 116.021 86.798 114.95V34.7563C86.407 34.7596 86.0215 34.8496 85.6694 35.0197L46.7202 57.5039C45.7887 58.0412 45.0151 58.8143 44.4773 59.7455C43.9394 60.6766 43.6563 61.733 43.6563 62.8083V142.187C43.6558 142.465 43.7128 142.741 43.8234 142.997L43.8193 142.985Z" fill="black"/>
<g opacity="0.5">
<path d="M43.8193 142.985C44.1587 142.98 44.4912 142.888 44.7849 142.717L83.7341 120.233C84.6619 119.697 85.4331 118.927 85.9707 118C86.5083 117.073 86.7935 116.021 86.798 114.95V34.7563C86.407 34.7596 86.0215 34.8496 85.6694 35.0197L46.7202 57.5039C45.7887 58.0412 45.0151 58.8143 44.4773 59.7455C43.9394 60.6766 43.6563 61.733 43.6563 62.8083V142.187C43.6558 142.465 43.7128 142.741 43.8234 142.997L43.8193 142.985Z" fill="white"/>
</g>
<path d="M60.1171 45.7539C60.1038 45.997 60.0338 46.2337 59.9126 46.445C59.7913 46.6562 59.6223 46.8361 59.419 46.9702C59.0303 47.1918 58.7168 47.012 58.7168 46.5522C58.7302 46.3086 58.8008 46.0716 58.9228 45.8602C59.0447 45.6489 59.2148 45.4693 59.419 45.3359C59.8036 45.1436 60.1171 45.3066 60.1171 45.7539Z" fill="#263238"/>
<path d="M62.7297 44.2494C62.7156 44.4929 62.6448 44.7297 62.5228 44.9409C62.4009 45.1521 62.2313 45.3319 62.0274 45.4658C61.6387 45.6873 61.3252 45.5076 61.3252 45.0478C61.3386 44.8042 61.4092 44.5671 61.5312 44.3558C61.6531 44.1445 61.8232 43.9649 62.0274 43.8314C62.412 43.6224 62.7297 43.8022 62.7297 44.2494Z" fill="#263238"/>
<path d="M73.2586 38.9784L64.79 43.8899C64.4514 44.0822 64.1797 43.8899 64.1797 43.4301C64.1832 43.2021 64.2403 42.9782 64.3463 42.7763C64.4523 42.5745 64.6043 42.4004 64.79 42.2681L73.2712 37.3733C73.6056 37.1768 73.8773 37.3733 73.8773 37.8289C73.8705 38.0554 73.8111 38.2772 73.7037 38.4767C73.5963 38.6762 73.444 38.848 73.2586 38.9784Z" fill="#263238"/>
<path d="M71.8247 131.954C72.3305 131.954 72.6607 132.493 72.6607 133.325C72.6607 134.629 71.8456 136.205 70.8759 136.765L66.8171 139.11C66.6357 139.223 66.4286 139.288 66.2152 139.298C65.7094 139.298 65.3792 138.759 65.3792 137.927C65.3792 136.619 66.2152 135.043 67.164 134.487L71.2228 132.142C71.4054 132.028 71.6141 131.964 71.8289 131.954M71.8289 131.607C71.5531 131.615 71.2845 131.697 71.0514 131.845L66.9926 134.186C65.91 134.809 65.0322 136.485 65.0322 137.948C65.0322 139.022 65.5213 139.666 66.2152 139.666C66.491 139.658 66.7596 139.575 66.9926 139.428L71.0514 137.087C72.1299 136.464 73.0077 134.788 73.0077 133.325C73.0077 132.251 72.5228 131.607 71.8289 131.607Z" fill="#263238"/>
<path d="M49.4033 68.4304V158.3C49.4033 159.931 50.0011 161.022 50.9123 161.381H50.9374L54.8248 163.509L54.7997 160.056L54.3817 66.8712L50.2811 64.7812C49.7308 65.9208 49.4315 67.1652 49.4033 68.4304Z" fill="#E6E6E6"/>
<path d="M55.038 163.856L50.8329 161.553C49.7921 161.135 49.1943 159.91 49.1943 158.28V68.4096C49.2165 67.1061 49.5203 65.8228 50.0847 64.6476L50.1766 64.4512L54.5824 66.7042V66.8296L55.0004 160.014L55.038 163.856ZM51.0461 161.193L54.6158 163.149V160.048L54.1978 66.9884L50.4065 65.0489C49.9269 66.1087 49.6681 67.255 49.6458 68.418V158.288C49.6458 159.759 50.1599 160.838 51.0252 161.176L51.0753 161.201L51.0461 161.193Z" fill="#E6E6E6"/>
<path d="M50.2725 64.7899L54.373 66.8799L98.263 41.3443L101.189 39.6388L97.1386 37.3566L97.0258 37.2897C96.3779 36.9009 95.5335 36.926 94.6014 37.4652L53.0605 61.4459C51.8197 62.259 50.8491 63.4231 50.2725 64.7899Z" fill="#E0E0E0"/>
<path d="M54.3729 67.0847C54.3393 67.0844 54.3063 67.0757 54.2768 67.0596L50.1762 64.9696C50.1521 64.958 50.1306 64.9418 50.1129 64.9218C50.0952 64.9018 50.0817 64.8784 50.0731 64.8531C50.0645 64.8278 50.0611 64.801 50.063 64.7744C50.0649 64.7477 50.0722 64.7217 50.0843 64.6979C50.6818 63.2967 51.681 62.104 52.9559 61.2703L94.5051 37.2813C95.4665 36.7295 96.4028 36.6668 97.1385 37.1099H97.172L97.2556 37.1601L101.302 39.4382C101.333 39.4574 101.36 39.4844 101.378 39.5166C101.396 39.5488 101.406 39.5851 101.406 39.6221C101.407 39.6587 101.398 39.6949 101.379 39.7266C101.361 39.7582 101.334 39.7843 101.302 39.8018L54.4858 67.0429C54.4529 67.0672 54.4137 67.0817 54.3729 67.0847ZM50.5482 64.6812L54.3688 66.6374L100.767 39.6388L96.917 37.4652L96.8877 37.4401C96.29 37.0974 95.5167 37.1684 94.7058 37.6366L53.1566 61.6256C52.0146 62.3758 51.1099 63.4356 50.5482 64.6812Z" fill="#E0E0E0"/>
<path d="M53.4248 70.688V160.14C53.4248 161.549 53.8762 162.56 54.591 163.037L54.8293 163.166C55.4521 163.459 56.2338 163.396 57.0823 162.903L77.1672 151.316L98.6482 138.4C99.7483 137.712 100.659 136.76 101.299 135.631C101.938 134.502 102.286 133.231 102.31 131.933V42.4813C102.31 41.1186 101.892 40.1322 101.215 39.6347C101.1 39.5491 100.975 39.4788 100.843 39.4257C100.48 39.2976 100.093 39.2566 99.7116 39.3059C99.3303 39.3553 98.9661 39.4937 98.6482 39.71L57.099 64.1045C55.9268 64.718 54.9787 65.6866 54.3904 66.8716C53.7873 68.0556 53.4573 69.3597 53.4248 70.688Z" fill="#FAFAFA"/>
<path d="M98.6474 138.399C90.0993 143.499 67.8576 156.771 56.8474 163.404C56.519 163.601 56.1443 163.707 55.7615 163.711C55.3788 163.716 55.0016 163.619 54.6685 163.43C54.3355 163.242 54.0583 162.968 53.8654 162.637C53.6725 162.307 53.5707 161.931 53.5703 161.548V69.5632C53.5703 68.5161 53.8442 67.4871 54.3648 66.5786C54.8854 65.6701 55.6347 64.9136 56.5381 64.3842L98.8314 39.5884C99.1599 39.3967 99.5332 39.295 99.9136 39.2935C100.294 39.2919 100.668 39.3906 100.998 39.5796C101.328 39.7686 101.603 40.0413 101.794 40.3701C101.985 40.6989 102.087 41.0723 102.088 41.4527V132.309C102.088 133.535 101.772 134.74 101.169 135.807C100.566 136.874 99.6974 137.767 98.6474 138.399Z" fill="#FAFAFA"/>
<path d="M98.5268 138.216C91.8137 142.212 85.1034 146.219 78.3959 150.237L66.4829 157.364L61.0489 160.625L58.6705 162.054C57.939 162.493 57.1615 163.12 56.3506 163.4C55.0088 163.868 53.8008 162.794 53.7673 161.469C53.7673 161.256 53.7673 161.051 53.7673 160.83V76.4939C53.7673 74.2492 53.7673 72.0004 53.7673 69.7557C53.752 68.693 54.0205 67.6453 54.5451 66.721C55.0697 65.7966 55.8315 65.029 56.7518 64.4973C57.7216 63.9246 58.6955 63.3603 59.6778 62.7918L73.3297 54.7579L89.5272 45.2651C92.5995 43.4677 95.6635 41.6536 98.7232 39.8645C99.6763 39.3128 100.876 39.3671 101.541 40.3661C101.776 40.765 101.886 41.2249 101.858 41.687V131.958C101.9 133.205 101.613 134.441 101.026 135.541C100.439 136.642 99.5729 137.569 98.5142 138.228C98.2843 138.37 98.4933 138.734 98.7232 138.592C99.8366 137.903 100.751 136.935 101.375 135.784C102 134.633 102.313 133.339 102.285 132.029V48.1158C102.285 45.9339 102.305 43.7477 102.285 41.5616C102.295 41.124 102.187 40.6917 101.97 40.311C101.754 39.9304 101.438 39.6159 101.057 39.4011C100.675 39.1863 100.243 39.0794 99.805 39.0918C99.3674 39.1042 98.9414 39.2355 98.5727 39.4716C97.5528 40.061 96.5413 40.6629 95.5297 41.2565L81.51 49.5036L65.1662 59.0842C62.282 60.7771 59.356 62.4574 56.4843 64.1629C55.5176 64.7317 54.7182 65.5458 54.167 66.5227C53.6157 67.4997 53.3322 68.6048 53.3451 69.7264C53.3451 70.4788 53.3451 71.2313 53.3451 71.9837V161.114C53.3451 161.256 53.3451 161.402 53.3451 161.532C53.3497 161.906 53.4415 162.273 53.6132 162.605C53.785 162.937 54.032 163.225 54.3345 163.444C54.637 163.664 54.9866 163.81 55.3555 163.87C55.7244 163.931 56.1024 163.905 56.4592 163.793C57.2493 163.53 57.9933 162.936 58.7039 162.51L61.1283 161.051L66.5623 157.799C74.4653 153.062 82.3752 148.333 90.2922 143.612L98.7483 138.567C98.9657 138.441 98.7567 138.078 98.5268 138.216Z" fill="#EBEBEB"/>
<path d="M56.5217 64.3716L98.8316 39.5884C99.1602 39.3967 99.5335 39.295 99.9139 39.2935C100.294 39.2919 100.668 39.3906 100.998 39.5796C101.329 39.7686 101.603 40.0413 101.794 40.3701C101.986 40.6989 102.087 41.0723 102.088 41.4527V45.4446L53.5664 73.4506V69.5548C53.5644 68.5082 53.836 67.4792 54.3544 66.57C54.8728 65.6608 55.62 64.9029 56.5217 64.3716Z" fill="#EBEBEB"/>
<path d="M85.5897 86.1315C89.8801 78.7002 89.8801 70.6679 85.5897 68.1909C81.2993 65.7138 74.3431 69.73 70.0527 77.1612C65.7623 84.5925 65.7623 92.6248 70.0527 95.1018C74.3431 97.5789 81.2992 93.5628 85.5897 86.1315Z" fill="black"/>
<path opacity="0.5" d="M85.5897 86.1315C89.8801 78.7002 89.8801 70.6679 85.5897 68.1909C81.2993 65.7138 74.3431 69.73 70.0527 77.1612C65.7623 84.5925 65.7623 92.6248 70.0527 95.1018C74.3431 97.5789 81.2992 93.5628 85.5897 86.1315Z" fill="white"/>
<path d="M75.8507 81.6936C75.7859 81.6936 75.7218 81.6809 75.6619 81.6561C75.6021 81.6313 75.5477 81.595 75.5019 81.5492C75.4561 81.5034 75.4198 81.449 75.395 81.3891C75.3702 81.3293 75.3574 81.2652 75.3574 81.2004V77.9525C75.3936 77.182 75.6135 76.4312 75.9989 75.7629C76.3843 75.0947 76.9239 74.5283 77.5728 74.1111C77.8355 73.8947 78.1579 73.7636 78.4971 73.7353C78.8363 73.707 79.176 73.7829 79.4709 73.9528C79.7658 74.1228 80.0018 74.3786 80.1474 74.6863C80.293 74.9939 80.3412 75.3386 80.2856 75.6744V78.9265C80.2856 79.0573 80.2337 79.1827 80.1412 79.2752C80.0487 79.3677 79.9232 79.4197 79.7924 79.4197C79.6616 79.4197 79.5361 79.3677 79.4436 79.2752C79.3511 79.1827 79.2992 79.0573 79.2992 78.9265V75.6577C79.3644 75.4944 79.3683 75.3129 79.3101 75.1469C79.2518 74.981 79.1354 74.8417 78.9824 74.755C78.8293 74.6683 78.6501 74.6399 78.4777 74.6753C78.3054 74.7106 78.1517 74.8072 78.0452 74.9471C77.5477 75.2794 77.1335 75.7219 76.8349 76.2402C76.5362 76.7586 76.361 77.3388 76.323 77.9358V81.1837C76.3275 81.3138 76.2804 81.4405 76.1919 81.536C76.1034 81.6315 75.9808 81.6882 75.8507 81.6936Z" fill="#37474F"/>
<path d="M81.8022 76.8323C81.6867 76.7844 81.561 76.7666 81.4367 76.7805C81.3124 76.7943 81.1937 76.8395 81.0916 76.9117L74.5207 80.7071C74.2324 80.888 73.9939 81.1381 73.8268 81.4345C73.5639 81.8612 73.4196 82.3504 73.4088 82.8515V88.5405C73.394 88.7 73.4157 88.8607 73.4722 89.0106C73.5287 89.1605 73.6185 89.2956 73.7348 89.4057C73.7704 89.4335 73.8098 89.4561 73.8519 89.4726C73.9632 89.514 74.0828 89.5281 74.2007 89.5135C74.3185 89.499 74.4311 89.4563 74.529 89.389L81.0916 85.5894C81.434 85.3451 81.7141 85.0237 81.9094 84.6512C82.1047 84.2788 82.2098 83.8656 82.216 83.445V77.7477C82.2392 77.5717 82.2127 77.3928 82.1395 77.231C82.0664 77.0693 81.9496 76.9312 81.8022 76.8323Z" fill="black"/>
<path d="M78.5838 82.7638L79.2192 84.5862L76.9912 85.8695L77.5472 83.6207L77.6266 83.303C77.2504 83.303 76.9912 83.0229 76.9912 82.5129C76.9941 82.3053 77.0293 82.0994 77.0957 81.9027C77.2693 81.3595 77.6251 80.8929 78.1031 80.5818C78.7176 80.2265 79.2192 80.5149 79.2192 81.2255C79.1886 81.7956 78.9645 82.3383 78.5838 82.7638Z" fill="#455A64"/>
<path d="M77.5306 83.5998L77.61 83.2821C77.2338 83.2821 76.9746 83.0021 76.9746 82.4921C76.9775 82.2845 77.0127 82.0786 77.0791 81.8818L78.5839 82.7638L79.2193 84.5863L77.5306 83.5998Z" fill="#37474F"/>
<path d="M94.05 102.686L61.6131 121.4C60.2714 122.173 59.1846 121.35 59.1846 119.565V114.653C59.1846 112.864 60.2714 110.787 61.6131 110.013L94.05 91.2995C95.3917 90.5262 96.4785 91.3455 96.4785 93.1346V98.0461C96.4576 99.8351 95.3708 101.908 94.05 102.686Z" fill="black"/>
<path d="M67.4444 109.57H66.8174V114.766H67.4444V109.57Z" fill="#FAFAFA"/>
<path d="M69.4978 111.055L64.9775 113.653L65.291 114.198L69.8113 111.6L69.4978 111.055Z" fill="#FAFAFA"/>
<path d="M65.6934 110.984L65.3799 111.527L68.5618 113.364L68.8753 112.821L65.6934 110.984Z" fill="#FAFAFA"/>
<path d="M68.896 108.968L65.7129 114.506L66.2584 114.82L69.4414 109.281L68.896 108.968Z" fill="#FAFAFA"/>
<path d="M78.1329 103.751H77.5059V108.947H78.1329V103.751Z" fill="#FAFAFA"/>
<path d="M79.9088 104.788L75.4092 107.386L75.7227 107.929L80.2223 105.331L79.9088 104.788Z" fill="#FAFAFA"/>
<path d="M76.3858 105.164L76.0723 105.707L79.2542 107.544L79.5677 107.001L76.3858 105.164Z" fill="#FAFAFA"/>
<path d="M79.561 103.103L76.3779 108.641L76.9234 108.955L80.1065 103.416L79.561 103.103Z" fill="#FAFAFA"/>
<path d="M88.8204 97.9287H88.1934V103.124H88.8204V97.9287Z" fill="#FAFAFA"/>
<path d="M90.9607 99.3636L86.4404 101.961L86.7539 102.507L91.2742 99.909L90.9607 99.3636Z" fill="#FAFAFA"/>
<path d="M87.0752 99.3408L86.7617 99.8838L89.9437 101.721L90.2572 101.178L87.0752 99.3408Z" fill="#FAFAFA"/>
<path d="M89.8276 97.6083L86.6445 103.122L87.1875 103.435L90.3706 97.9218L89.8276 97.6083Z" fill="#FAFAFA"/>
<path d="M94.9905 109.449C95.4085 109.449 95.6216 110.097 95.6216 110.74V115.652C95.6216 117.144 94.6979 118.937 93.6111 119.569L61.1951 138.282C61.0306 138.387 60.8423 138.449 60.6476 138.462C60.2296 138.462 60.0206 137.814 60.0206 137.171V132.259C60.0206 130.767 60.9402 128.974 62.0311 128.342L94.468 109.629C94.631 109.524 94.818 109.462 95.0114 109.449M95.0114 108.613C94.6709 108.625 94.3396 108.726 94.05 108.905L61.6131 127.619C60.2714 128.393 59.1846 130.47 59.1846 132.259V137.171C59.1846 138.5 59.7865 139.298 60.6476 139.298C60.9894 139.286 61.3222 139.185 61.6131 139.006L94.05 120.292C95.3917 119.518 96.4785 117.441 96.4785 115.652V110.74C96.4785 109.411 95.8724 108.613 95.0114 108.613Z" fill="black"/>
<path d="M71.3221 129.333C71.0524 129.488 70.8164 129.565 70.6141 129.565C70.4146 129.559 70.2587 129.487 70.1463 129.347C70.0367 129.203 69.982 128.999 69.982 128.737C69.982 128.475 70.0353 128.211 70.1421 127.945C70.2517 127.675 70.402 127.428 70.593 127.205C70.7841 126.978 70.999 126.796 71.2378 126.659C71.4626 126.53 71.6677 126.466 71.8531 126.466C72.0385 126.463 72.186 126.532 72.2956 126.673C72.4052 126.815 72.46 127.031 72.46 127.323C72.46 127.355 72.4586 127.393 72.4558 127.437C72.4529 127.481 72.4501 127.521 72.4473 127.558L70.6394 128.597V128.111L72.0217 127.317L71.7183 127.627C71.7211 127.506 71.7014 127.413 71.6593 127.35C71.6199 127.285 71.5637 127.25 71.4907 127.243C71.4204 127.235 71.3376 127.258 71.242 127.313C71.1465 127.368 71.0622 127.441 70.9892 127.531C70.9189 127.62 70.8641 127.721 70.8248 127.835C70.7855 127.945 70.7658 128.06 70.7658 128.18V128.321C70.7658 128.45 70.7883 128.549 70.8332 128.617C70.881 128.684 70.9484 128.718 71.0355 128.72C71.1226 128.718 71.2266 128.683 71.3474 128.613C71.4598 128.549 71.5553 128.476 71.634 128.395C71.7154 128.309 71.7955 128.205 71.8742 128.082L72.2956 128.345C72.186 128.548 72.0512 128.732 71.891 128.899C71.7309 129.062 71.5412 129.207 71.3221 129.333ZM74.3168 124.89C74.4938 124.788 74.654 124.738 74.7972 124.74C74.9405 124.738 75.0529 124.8 75.1344 124.925C75.2187 125.049 75.2608 125.246 75.2608 125.518V127.025L74.4601 127.485V126.129C74.4601 125.941 74.4264 125.825 74.359 125.779C74.2943 125.729 74.203 125.738 74.085 125.805C74.0007 125.854 73.9235 125.921 73.8532 126.007C73.783 126.089 73.7282 126.187 73.6889 126.3C73.6495 126.414 73.6299 126.543 73.6299 126.689V127.963L72.8292 128.423V125.788L73.5919 125.35V126.098L73.4444 125.964C73.5315 125.723 73.6509 125.512 73.8027 125.331C73.9544 125.146 74.1258 124.999 74.3168 124.89ZM76.7812 126.195C76.4895 126.363 76.2623 126.411 76.0997 126.339C75.937 126.265 75.8557 126.059 75.8557 125.723V123.466L76.655 123.007V125.254C76.655 125.347 76.6774 125.409 76.7223 125.438C76.7672 125.464 76.8247 125.457 76.8948 125.417C76.9902 125.362 77.0715 125.288 77.1388 125.194L77.3365 125.726C77.2692 125.816 77.1865 125.901 77.0883 125.98C76.9902 126.062 76.8878 126.134 76.7812 126.195ZM75.5233 125.031V124.341L77.1767 123.391V124.08L75.5233 125.031ZM78.7739 125.05C78.5046 125.205 78.269 125.282 78.0671 125.281C77.8679 125.276 77.7123 125.204 77.6001 125.065C77.4907 124.92 77.436 124.717 77.436 124.455C77.436 124.193 77.4893 123.93 77.5959 123.665C77.7053 123.395 77.8553 123.148 78.046 122.926C78.2368 122.7 78.4513 122.518 78.6897 122.381C78.9141 122.252 79.1188 122.188 79.3039 122.188C79.4891 122.185 79.6363 122.254 79.7457 122.395C79.8551 122.536 79.9098 122.752 79.9098 123.043C79.9098 123.076 79.9084 123.114 79.9056 123.157C79.9028 123.201 79.9 123.241 79.8971 123.279L78.0923 124.316V123.831L79.4722 123.038L79.1693 123.348C79.1721 123.226 79.1525 123.134 79.1104 123.071C79.0712 123.006 79.0151 122.97 78.9421 122.964C78.872 122.956 78.7893 122.979 78.6939 123.034C78.5986 123.088 78.5144 123.161 78.4415 123.252C78.3714 123.34 78.3167 123.441 78.2774 123.554C78.2382 123.664 78.2185 123.779 78.2185 123.899V124.04C78.2185 124.169 78.241 124.268 78.2858 124.336C78.3335 124.402 78.4008 124.436 78.4878 124.438C78.5747 124.437 78.6785 124.401 78.7991 124.332C78.9113 124.267 79.0066 124.195 79.0852 124.114C79.1665 124.029 79.2465 123.924 79.325 123.802L79.7457 124.064C79.6363 124.266 79.5017 124.451 79.3418 124.617C79.1819 124.78 78.9926 124.924 78.7739 125.05ZM80.2783 124.142V121.512L81.0398 121.074V121.841L80.9262 121.688C80.9935 121.452 81.1029 121.242 81.2544 121.057C81.4058 120.87 81.5895 120.714 81.8055 120.59V121.42C81.769 121.435 81.7368 121.45 81.7087 121.466C81.6835 121.477 81.6554 121.492 81.6246 121.509C81.4619 121.603 81.3301 121.73 81.2291 121.892C81.1281 122.05 81.0777 122.244 81.0777 122.474V123.682L80.2783 124.142Z" fill="black"/>
<path d="M142.701 53.6337C142.72 53.9645 142.818 54.2859 142.986 54.5715C143.154 54.8572 143.387 55.0988 143.667 55.2765C144.202 55.5774 144.632 55.3308 144.632 54.7289C144.613 54.3981 144.516 54.0767 144.348 53.7911C144.18 53.5055 143.946 53.2638 143.667 53.0862C143.136 52.7852 142.701 53.0276 142.701 53.6337Z" fill="#455A64"/>
<path d="M129.756 57.5254C128.906 57.4971 128.078 57.2494 127.352 56.8064L124.288 55.0717C124.263 55.0592 124.24 55.0415 124.222 55.0199C124.203 54.9983 124.19 54.9732 124.181 54.946C124.173 54.9189 124.17 54.8903 124.173 54.8621C124.176 54.8338 124.185 54.8065 124.199 54.7817C124.213 54.757 124.232 54.7353 124.254 54.7181C124.277 54.7009 124.303 54.6884 124.33 54.6815C124.358 54.6746 124.386 54.6734 124.414 54.678C124.442 54.6826 124.469 54.6928 124.493 54.7081L127.557 56.4428C128.882 57.191 130.107 57.3122 131.014 56.7855C131.921 56.2589 132.393 55.1762 132.393 53.7091C132.393 52.0914 132.958 50.8708 133.978 50.2731C134.998 49.6754 136.398 49.7882 137.853 50.6117L142.806 53.4165C142.853 53.4444 142.888 53.4896 142.903 53.5426C142.917 53.5956 142.911 53.6522 142.885 53.7007C142.858 53.7489 142.813 53.7843 142.76 53.7992C142.706 53.814 142.649 53.8072 142.601 53.7801L137.648 50.9962C136.327 50.248 135.098 50.1268 134.191 50.6577C133.284 51.1885 132.811 52.267 132.811 53.73C132.811 55.3518 132.247 56.5724 131.227 57.1659C130.777 57.4143 130.27 57.5384 129.756 57.5254Z" fill="#455A64"/>
<path d="M123.021 54.1351C123.036 54.4024 123.115 54.6623 123.251 54.8929C123.387 55.1235 123.576 55.318 123.803 55.4602C124.221 55.7068 124.585 55.5061 124.585 55.0171C124.57 54.7498 124.491 54.4899 124.355 54.2593C124.219 54.0287 124.03 53.8342 123.803 53.692C123.373 53.4454 123.021 53.646 123.021 54.1351Z" fill="#455A64"/>
<path d="M172.463 49.6919L151.981 38.0966C151.766 37.9387 151.506 37.8535 151.239 37.8535C150.972 37.8535 150.712 37.9387 150.497 38.0966L148.725 39.3171L149.933 40.8094V62.3907C149.933 63.8997 150.852 65.6511 151.981 66.3074L171.949 77.5934L172.041 79.1985L173.905 77.9194C174.12 77.7191 174.286 77.472 174.39 77.1974C174.495 76.9227 174.535 76.6277 174.507 76.3352V53.6085C174.515 52.0996 173.596 50.3481 172.463 49.6919Z" fill="black"/>
<path opacity="0.3" d="M172.463 49.6919L151.981 38.0966C151.766 37.9387 151.506 37.8535 151.239 37.8535C150.972 37.8535 150.712 37.9387 150.497 38.0966L148.725 39.3171L149.933 40.8094V62.3907C149.933 63.8997 150.852 65.6511 151.981 66.3074L171.949 77.5934L172.041 79.1985L173.905 77.9194C174.12 77.7191 174.286 77.472 174.39 77.1974C174.495 76.9227 174.535 76.6277 174.507 76.3352V53.6085C174.515 52.0996 173.596 50.3481 172.463 49.6919Z" fill="black"/>
<path d="M170.724 79.0983L150.242 67.5029C149.109 66.8509 148.193 65.0952 148.193 63.5863V40.8471C148.193 39.3339 149.109 38.64 150.242 39.2963L170.724 50.8916C171.856 51.5437 172.772 53.2993 172.772 54.8083V77.5517C172.772 79.0606 171.856 79.7545 170.724 79.0983Z" fill="black"/>
<path d="M166.423 59.4186C166.376 59.4192 166.331 59.4044 166.294 59.3764C166.257 59.3484 166.23 59.3088 166.218 59.2639C165.781 57.6512 165.107 56.1127 164.216 54.6993C164.186 54.6528 164.176 54.5962 164.187 54.5422C164.199 54.4881 164.232 54.4409 164.278 54.4109C164.302 54.3958 164.327 54.3855 164.355 54.3806C164.382 54.3758 164.41 54.3765 164.437 54.3827C164.464 54.389 164.489 54.4006 164.512 54.417C164.534 54.4333 164.553 54.454 164.567 54.4778C165.482 55.9257 166.175 57.5023 166.623 59.1552C166.636 59.2089 166.629 59.2656 166.601 59.3138C166.574 59.3619 166.53 59.3979 166.477 59.4144L166.423 59.4186Z" fill="white"/>
<path d="M166.891 63.67C166.835 63.6657 166.783 63.6397 166.746 63.5974C166.71 63.5552 166.691 63.5002 166.694 63.4443C166.694 63.2228 166.719 62.9887 166.719 62.7504C166.717 62.0358 166.654 61.3226 166.531 60.6186C166.522 60.5632 166.535 60.5063 166.567 60.4604C166.6 60.4146 166.649 60.3835 166.705 60.3741C166.76 60.3647 166.817 60.3777 166.863 60.4102C166.909 60.4427 166.94 60.4921 166.949 60.5476C167.077 61.275 167.143 62.0119 167.146 62.7504C167.146 62.997 167.146 63.2395 167.121 63.4736C167.119 63.5016 167.111 63.5289 167.098 63.554C167.086 63.5791 167.068 63.6014 167.047 63.6196C167.025 63.6379 167 63.6517 166.974 63.6604C166.947 63.669 166.919 63.6723 166.891 63.67Z" fill="white"/>
<path d="M154.104 56.731C154.052 56.7312 154.002 56.7119 153.964 56.6771C153.926 56.6422 153.903 56.5943 153.899 56.5429C153.865 56.1793 153.849 55.8156 153.849 55.4645C153.849 53.4372 154.396 51.7652 155.391 50.7495C155.41 50.73 155.433 50.7145 155.458 50.704C155.483 50.6934 155.51 50.688 155.537 50.688C155.565 50.688 155.592 50.6934 155.617 50.704C155.642 50.7145 155.665 50.73 155.684 50.7495C155.703 50.7689 155.719 50.792 155.729 50.8175C155.74 50.8429 155.745 50.8703 155.745 50.8979C155.745 50.9254 155.74 50.9528 155.729 50.9782C155.719 51.0037 155.703 51.0268 155.684 51.0462C154.768 51.9826 154.262 53.5542 154.262 55.4687C154.262 55.8073 154.262 56.1584 154.308 56.5095C154.311 56.5367 154.309 56.5643 154.301 56.5905C154.293 56.6167 154.28 56.6411 154.262 56.6621C154.245 56.6832 154.223 56.7005 154.199 56.713C154.174 56.7256 154.148 56.7331 154.12 56.7352L154.104 56.731Z" fill="white"/>
<path d="M163.351 53.3494C163.319 53.3498 163.289 53.3432 163.261 53.3302C163.232 53.3172 163.207 53.298 163.187 53.2742C162.413 52.288 161.462 51.4545 160.383 50.8163C158.995 50.0305 157.691 49.88 156.621 50.3983C156.571 50.4212 156.514 50.4235 156.462 50.4048C156.411 50.386 156.368 50.3476 156.345 50.298C156.333 50.2731 156.326 50.246 156.325 50.2183C156.323 50.1907 156.327 50.1631 156.336 50.137C156.346 50.111 156.36 50.087 156.379 50.0666C156.398 50.0461 156.42 50.0296 156.445 50.018C157.649 49.462 159.083 49.5999 160.596 50.4736C161.72 51.1389 162.712 52.0062 163.522 53.0317C163.557 53.0745 163.573 53.1293 163.567 53.184C163.562 53.2388 163.535 53.2892 163.493 53.3243C163.45 53.3493 163.399 53.3582 163.351 53.3494Z" fill="white"/>
<path d="M155.546 56.8939C155.492 56.8939 155.44 56.873 155.401 56.8356C155.362 56.7982 155.339 56.7472 155.337 56.6932C155.337 56.5637 155.337 56.4341 155.337 56.3045C155.337 54.8206 155.701 53.6084 156.39 52.8016C156.408 52.7805 156.429 52.763 156.453 52.7502C156.477 52.7374 156.504 52.7296 156.531 52.7273C156.559 52.725 156.586 52.7281 156.612 52.7366C156.638 52.745 156.662 52.7586 156.683 52.7766C156.725 52.813 156.751 52.8644 156.756 52.9199C156.761 52.9753 156.743 53.0304 156.708 53.0733C156.085 53.8048 155.755 54.9209 155.755 56.3045C155.755 56.4257 155.755 56.5511 155.755 56.6723C155.756 56.6998 155.752 56.7272 155.742 56.753C155.733 56.7788 155.718 56.8024 155.7 56.8226C155.681 56.8428 155.659 56.8591 155.634 56.8706C155.609 56.8821 155.582 56.8886 155.554 56.8897L155.546 56.8939Z" fill="white"/>
<path d="M157.168 52.5888C157.122 52.5892 157.077 52.5745 157.041 52.5469C157.004 52.5193 156.977 52.4803 156.965 52.4361C156.952 52.3918 156.955 52.3447 156.972 52.302C156.989 52.2593 157.02 52.2235 157.059 52.2C157.595 51.8816 158.222 51.7521 158.84 51.8322C158.895 51.8375 158.945 51.8642 158.98 51.9064C159.016 51.9487 159.033 52.0031 159.028 52.0579C159.022 52.113 158.994 52.1635 158.951 52.1986C158.908 52.2337 158.854 52.2507 158.798 52.246C158.272 52.1833 157.739 52.298 157.285 52.5721C157.248 52.5876 157.208 52.5933 157.168 52.5888Z" fill="white"/>
<path d="M166.422 66.3576C166.38 66.3577 166.339 66.3454 166.304 66.3224C166.269 66.2993 166.242 66.2665 166.226 66.228L165.983 65.6219C165.497 64.4499 165.24 63.1955 165.227 61.9268C165.227 58.3822 163.053 54.2816 160.382 52.7684C160.358 52.755 160.337 52.7369 160.32 52.7152C160.303 52.6936 160.291 52.6687 160.284 52.6422C160.277 52.6157 160.276 52.5881 160.279 52.5609C160.283 52.5338 160.293 52.5077 160.307 52.4842C160.32 52.4599 160.338 52.4386 160.359 52.4213C160.381 52.4041 160.405 52.3914 160.432 52.384C160.458 52.3766 160.486 52.3746 160.514 52.3782C160.541 52.3818 160.567 52.3908 160.591 52.4048C163.375 53.9848 165.645 58.2568 165.645 61.9101C165.655 63.1303 165.902 64.3369 166.372 65.4631L166.614 66.0692C166.625 66.0944 166.631 66.1215 166.631 66.149C166.631 66.1764 166.626 66.2036 166.615 66.2289C166.605 66.2543 166.589 66.2773 166.57 66.2965C166.55 66.3157 166.527 66.3308 166.501 66.3409C166.476 66.3521 166.449 66.3578 166.422 66.3576Z" fill="white"/>
<path d="M156.825 63.9538C156.782 63.9538 156.74 63.9406 156.705 63.9159C156.67 63.8912 156.643 63.8563 156.629 63.8159C155.954 61.8408 155.517 59.7919 155.329 57.7131C155.327 57.6853 155.33 57.6573 155.339 57.6308C155.347 57.6043 155.361 57.5798 155.379 57.5588C155.398 57.5378 155.42 57.5206 155.445 57.5084C155.47 57.4961 155.497 57.4889 155.525 57.4874C155.58 57.4861 155.634 57.5056 155.675 57.542C155.716 57.5785 155.742 57.6291 155.747 57.6838C155.925 59.7233 156.346 61.7341 157.001 63.6738C157.011 63.6995 157.015 63.727 157.014 63.7546C157.013 63.7822 157.007 63.8093 156.995 63.8342C156.983 63.8592 156.967 63.8816 156.946 63.9C156.926 63.9184 156.902 63.9324 156.875 63.9413C156.859 63.9477 156.842 63.9519 156.825 63.9538Z" fill="white"/>
<path d="M165.193 67.7661C165.151 67.767 165.109 67.7546 165.074 67.7306C165.038 67.7066 165.012 67.6723 164.997 67.6323L164.437 66.1275C163.872 64.6588 163.568 63.1028 163.538 61.5295V59.8868C163.538 57.9347 162.138 55.5563 160.415 54.5823C159.613 54.1267 158.869 54.0473 158.325 54.365C157.782 54.6827 157.489 55.3389 157.489 56.2293V57.6839C157.535 60.0469 158.008 62.3821 158.886 64.5767L159.575 66.3741C159.585 66.3999 159.59 66.4274 159.59 66.4551C159.589 66.4828 159.583 66.51 159.571 66.5353C159.56 66.5606 159.544 66.5834 159.524 66.6023C159.504 66.6213 159.48 66.6361 159.454 66.6458C159.402 66.6649 159.345 66.6628 159.295 66.6401C159.245 66.6174 159.206 66.5759 159.187 66.5246L158.497 64.7272C157.606 62.4835 157.127 60.0975 157.084 57.6839V56.2334C157.084 55.1884 157.448 54.3984 158.116 54.0097C158.785 53.6209 159.684 53.692 160.624 54.2229C162.459 55.2637 163.968 57.8051 163.968 59.8909V61.5337C163.997 63.0572 164.293 64.5639 164.842 65.9854L165.398 67.486C165.408 67.5115 165.413 67.5387 165.412 67.5661C165.411 67.5935 165.405 67.6204 165.394 67.6454C165.383 67.6703 165.366 67.6927 165.346 67.7113C165.326 67.7299 165.303 67.7442 165.277 67.7535L165.193 67.7661Z" fill="white"/>
<path d="M163.35 68.3641C163.306 68.3643 163.262 68.3503 163.226 68.3239C163.19 68.2976 163.163 68.2604 163.15 68.2178L162.857 67.2313C162.324 65.4998 162.043 63.7008 162.021 61.8892V59.3562C161.989 58.7824 161.82 58.2246 161.529 57.7288C161.239 57.2331 160.834 56.8137 160.349 56.5054C160.198 56.3946 160.02 56.3255 159.834 56.3049C159.648 56.2844 159.459 56.3132 159.287 56.3884C159.141 56.4949 159.025 56.6385 158.951 56.8044C158.878 56.9703 158.85 57.1527 158.869 57.333C158.869 60.1587 159.73 63.4149 161.29 66.504L161.879 67.6702C161.891 67.6949 161.899 67.7218 161.901 67.7493C161.903 67.7769 161.899 67.8045 161.89 67.8307C161.882 67.8569 161.868 67.8812 161.85 67.902C161.832 67.9229 161.81 67.94 161.785 67.9523C161.76 67.9647 161.733 67.972 161.706 67.974C161.678 67.976 161.651 67.9725 161.624 67.9637C161.598 67.955 161.574 67.9412 161.553 67.9231C161.532 67.905 161.515 67.883 161.503 67.8583L160.918 66.6921C159.325 63.5445 158.451 60.2214 158.451 57.333C158.428 57.0795 158.473 56.8244 158.582 56.5942C158.691 56.3641 158.859 56.1674 159.07 56.0247C159.304 55.9117 159.564 55.8629 159.824 55.8835C160.083 55.9041 160.332 55.9932 160.546 56.1417C161.094 56.4889 161.551 56.9614 161.88 57.5204C162.21 58.0793 162.401 58.7086 162.439 59.3562V61.8976C162.458 63.6694 162.733 65.4292 163.254 67.1226L163.547 68.1049C163.555 68.1312 163.558 68.159 163.555 68.1864C163.553 68.2139 163.544 68.2406 163.531 68.2648C163.518 68.289 163.5 68.3102 163.478 68.3273C163.456 68.3444 163.431 68.3569 163.405 68.3641C163.387 68.3675 163.368 68.3675 163.35 68.3641Z" fill="white"/>
<path d="M161.005 63.9538C160.958 63.9533 160.912 63.937 160.875 63.9075C160.838 63.878 160.811 63.8369 160.8 63.7908L160.608 62.8963C160.424 62.0362 160.332 61.1591 160.332 60.2796V57.9263C160.332 57.8709 160.354 57.8177 160.393 57.7785C160.432 57.7393 160.486 57.7173 160.541 57.7173C160.596 57.7173 160.65 57.7393 160.689 57.7785C160.728 57.8177 160.75 57.8709 160.75 57.9263V60.2796C160.753 61.1226 160.842 61.9631 161.018 62.7876L161.21 63.6821C161.216 63.7088 161.217 63.7364 161.212 63.7633C161.207 63.7903 161.197 63.816 161.182 63.8389C161.168 63.8619 161.148 63.8817 161.126 63.8971C161.103 63.9126 161.078 63.9233 161.051 63.9288L161.005 63.9538Z" fill="white"/>
<path d="M154.56 59.419C154.508 59.4183 154.458 59.3989 154.42 59.3643C154.381 59.3297 154.357 59.2823 154.351 59.2309L154.229 58.0103C154.225 57.9551 154.242 57.9001 154.277 57.8572C154.312 57.8143 154.362 57.7867 154.417 57.7804C154.445 57.7769 154.473 57.7791 154.5 57.7868C154.526 57.7945 154.551 57.8075 154.573 57.8251C154.594 57.8427 154.612 57.8645 154.625 57.8891C154.638 57.9138 154.645 57.9408 154.647 57.9685L154.769 59.1891C154.771 59.2166 154.769 59.2443 154.761 59.2708C154.753 59.2973 154.74 59.3219 154.722 59.3433C154.705 59.3646 154.683 59.3823 154.659 59.3953C154.635 59.4083 154.608 59.4164 154.58 59.419H154.56Z" fill="white"/>
<path d="M172.463 88.4241L151.981 76.8246C151.766 76.6667 151.506 76.5815 151.239 76.5815C150.972 76.5815 150.712 76.6667 150.497 76.8246L148.725 78.0452L149.933 79.5374V101.119C149.933 102.628 150.852 104.379 151.981 105.035L171.949 116.321L172.041 117.927L173.905 116.652C174.12 116.45 174.286 116.203 174.39 115.927C174.495 115.652 174.535 115.356 174.507 115.063V92.324C174.515 90.8276 173.596 89.0762 172.463 88.4241Z" fill="black"/>
<path opacity="0.3" d="M172.463 88.4241L151.981 76.8246C151.766 76.6667 151.506 76.5815 151.239 76.5815C150.972 76.5815 150.712 76.6667 150.497 76.8246L148.725 78.0452L149.933 79.5374V101.119C149.933 102.628 150.852 104.379 151.981 105.035L171.949 116.321L172.041 117.927L173.905 116.652C174.12 116.45 174.286 116.203 174.39 115.927C174.495 115.652 174.535 115.356 174.507 115.063V92.324C174.515 90.8276 173.596 89.0762 172.463 88.4241Z" fill="black"/>
<path d="M170.724 117.826L150.242 106.231C149.109 105.578 148.193 103.827 148.193 102.314V79.5747C148.193 78.0657 149.109 77.3718 150.242 78.0239L170.724 89.6192C171.856 90.2755 172.772 92.0269 172.772 93.5359V116.279C172.772 117.788 171.856 118.482 170.724 117.826Z" fill="black"/>
<path d="M152.758 85.92C152.702 85.92 152.649 85.898 152.61 85.8588C152.571 85.8196 152.549 85.7664 152.549 85.711V84.3023C152.548 84.1624 152.584 84.0247 152.654 83.9035C152.723 83.7822 152.824 83.6818 152.946 83.6126C153.072 83.5367 153.217 83.4966 153.364 83.4966C153.511 83.4966 153.656 83.5367 153.782 83.6126L155.257 84.4486C155.306 84.4758 155.342 84.5212 155.358 84.5749C155.373 84.6286 155.366 84.6862 155.339 84.7349C155.312 84.7837 155.266 84.8197 155.213 84.835C155.159 84.8503 155.101 84.8436 155.053 84.8165L153.573 83.9805C153.509 83.9438 153.437 83.9245 153.364 83.9245C153.291 83.9245 153.218 83.9438 153.155 83.9805C153.097 84.0128 153.049 84.0602 153.016 84.1176C152.983 84.175 152.966 84.2402 152.967 84.3065V85.7152C152.966 85.7699 152.943 85.8219 152.904 85.8602C152.865 85.8985 152.813 85.92 152.758 85.92Z" fill="white"/>
<path d="M155.133 105.303C155.098 105.303 155.063 105.294 155.032 105.278L153.653 104.496C153.323 104.306 153.05 104.033 152.859 103.703C152.669 103.374 152.57 103 152.57 102.619V101.319C152.57 101.264 152.592 101.211 152.632 101.172C152.671 101.132 152.724 101.11 152.779 101.11C152.835 101.11 152.888 101.132 152.927 101.172C152.966 101.211 152.988 101.264 152.988 101.319V102.619C152.99 102.928 153.073 103.23 153.229 103.496C153.385 103.762 153.61 103.982 153.879 104.132L155.258 104.914C155.297 104.937 155.328 104.973 155.345 105.015C155.362 105.057 155.365 105.104 155.353 105.148C155.341 105.192 155.315 105.231 155.279 105.259C155.243 105.287 155.199 105.302 155.154 105.303H155.133Z" fill="white"/>
<path d="M167.618 112.288C167.471 112.29 167.327 112.253 167.2 112.179L165.724 111.343C165.676 111.316 165.641 111.271 165.626 111.217C165.611 111.164 165.618 111.107 165.645 111.059C165.673 111.011 165.718 110.977 165.771 110.962C165.824 110.947 165.881 110.953 165.929 110.979L167.409 111.815C167.472 111.852 167.544 111.871 167.618 111.871C167.691 111.871 167.763 111.852 167.827 111.815C167.885 111.783 167.933 111.736 167.966 111.678C167.999 111.621 168.016 111.555 168.015 111.489V110.081C168.015 110.025 168.037 109.972 168.076 109.933C168.115 109.894 168.169 109.872 168.224 109.872C168.279 109.872 168.333 109.894 168.372 109.933C168.411 109.972 168.433 110.025 168.433 110.081V111.489C168.434 111.629 168.398 111.766 168.328 111.886C168.258 112.007 168.157 112.106 168.036 112.175C167.909 112.25 167.765 112.289 167.618 112.288Z" fill="white"/>
<path d="M168.216 94.677C168.161 94.677 168.107 94.655 168.068 94.6158C168.029 94.5766 168.007 94.5234 168.007 94.468V93.168C168.006 92.8601 167.923 92.558 167.766 92.2929C167.61 92.0277 167.386 91.8089 167.117 91.659L165.737 90.8774C165.689 90.8493 165.653 90.8034 165.639 90.7494C165.624 90.6955 165.631 90.6378 165.658 90.589C165.671 90.565 165.689 90.5441 165.711 90.5273C165.733 90.5105 165.758 90.4982 165.784 90.4912C165.811 90.4842 165.838 90.4826 165.865 90.4864C165.893 90.4903 165.919 90.4996 165.942 90.5137L167.322 91.2954C167.654 91.4822 167.932 91.7539 168.126 92.0829C168.32 92.4118 168.423 92.7862 168.425 93.168V94.468C168.425 94.5234 168.403 94.5766 168.364 94.6158C168.325 94.655 168.271 94.677 168.216 94.677Z" fill="white"/>
<path d="M154.61 92.9507C154.657 95.3243 154.996 97.683 155.622 99.9731C157.21 105.967 163.476 109.65 165.198 105.591C166.007 103.594 166.404 101.454 166.364 99.3002C166.364 95.6218 163.731 91.1492 160.487 89.31C157.168 87.4331 154.564 89.1762 154.61 92.9507Z" fill="white"/>
<path d="M160.278 96.2988V100.236L158.568 98.9573L160.278 96.2988Z" fill="#E0E0E0"/>
<path d="M157.097 93.9457C157.108 94.1387 157.164 94.3263 157.262 94.4934C157.359 94.6604 157.494 94.8022 157.657 94.9071C157.97 95.0826 158.221 94.9405 158.221 94.5852C158.21 94.3922 158.153 94.2046 158.055 94.0381C157.957 93.8716 157.82 93.731 157.657 93.628C157.347 93.4524 157.097 93.5945 157.097 93.9457Z" fill="#E0E0E0"/>
<path d="M162.33 96.9468C162.342 97.1395 162.399 97.3267 162.497 97.4931C162.595 97.6594 162.732 97.8003 162.894 97.904C163.208 98.0796 163.459 97.9375 163.459 97.5863C163.448 97.3928 163.391 97.2046 163.293 97.0375C163.195 96.8703 163.058 96.7289 162.894 96.6249C162.602 96.4494 162.33 96.5915 162.33 96.9468Z" fill="#E0E0E0"/>
<path d="M159.714 102.164L161.624 101.842C161.624 101.842 161.219 103.882 159.714 102.164Z" fill="#E0E0E0"/>
<path d="M142.701 90.1712C142.721 90.5012 142.819 90.8218 142.987 91.1067C143.155 91.3915 143.388 91.6325 143.667 91.8098C144.202 92.1149 144.632 91.8683 144.632 91.2664C144.613 90.9356 144.516 90.6142 144.348 90.3286C144.18 90.0429 143.946 89.8013 143.667 89.6236C143.136 89.3185 142.701 89.5651 142.701 90.1712Z" fill="#455A64"/>
<path d="M142.738 90.6269C142.702 90.6266 142.666 90.618 142.634 90.6018L137.685 87.7803C134.788 86.1417 132.43 82.1331 132.43 78.8518C132.43 75.7001 130.169 71.8587 127.389 70.2828L124.288 68.5272C124.24 68.5 124.204 68.4548 124.189 68.4015C124.174 68.3482 124.181 68.2912 124.208 68.243C124.221 68.2187 124.239 68.1973 124.261 68.1801C124.282 68.1629 124.307 68.1502 124.334 68.1428C124.36 68.1354 124.388 68.1334 124.415 68.137C124.443 68.1405 124.469 68.1496 124.493 68.1636L127.594 69.9192C130.491 71.5619 132.848 75.5663 132.848 78.8518C132.848 81.9994 135.11 85.8408 137.89 87.4166L142.843 90.2256C142.891 90.2528 142.926 90.298 142.941 90.3513C142.956 90.4046 142.949 90.4616 142.922 90.5098C142.905 90.5438 142.878 90.5725 142.846 90.5931C142.814 90.6136 142.777 90.6253 142.738 90.6269Z" fill="#455A64"/>
<path d="M123.021 67.5239C123.038 67.7914 123.117 68.0514 123.253 68.2824C123.388 68.5135 123.577 68.709 123.803 68.8531C124.221 69.0956 124.585 68.8991 124.585 68.4101C124.569 68.1425 124.49 67.8826 124.354 67.6515C124.218 67.4205 124.029 67.2249 123.803 67.0808C123.373 66.8384 123.021 67.0348 123.021 67.5239Z" fill="#455A64"/>
</svg>
