<svg width="22" height="23" viewBox="0 0 22 23" fill="none" xmlns="http://www.w3.org/2000/svg">
<path d="M18.6291 11.5171C18.6288 10.9468 18.5631 10.3785 18.4333 9.82313L18.4289 9.80553C18.0278 8.14333 17.078 6.66492 15.7328 5.60923C14.3877 4.55354 12.7259 3.98223 11.016 3.98763L11.0072 3.98653H10.9863C9.27434 3.97404 7.60877 4.54282 6.26201 5.59985C4.91524 6.65688 3.967 8.1396 3.57234 9.80553L3.56794 9.82313C3.25515 11.1738 3.31985 12.5845 3.75494 13.9008C3.82164 14.1046 3.9292 14.2926 4.07105 14.4534C4.21291 14.6141 4.38607 14.7443 4.57994 14.8358C4.80279 14.944 5.04721 15.0004 5.29494 15.0008C5.47324 15.0008 5.65038 14.9722 5.81964 14.9161L6.46974 14.6917C6.82399 14.5754 7.12723 14.3403 7.32824 14.0263C7.52925 13.7122 7.61572 13.3384 7.57304 12.968L7.33544 10.944C7.28621 10.569 7.11005 10.2221 6.83627 9.96117C6.56248 9.7002 6.20759 9.54084 5.83064 9.50963L4.82084 9.43923C5.25995 8.17185 6.08202 7.07223 7.17335 6.29245C8.26469 5.51268 9.57135 5.09127 10.9126 5.08653H11.0072C12.3647 5.06464 13.6941 5.47436 14.8038 6.25663C15.9134 7.0389 16.746 8.15331 17.1815 9.43923L16.164 9.51073C15.7872 9.54338 15.433 9.70405 15.1602 9.96602C14.8874 10.228 14.7126 10.5755 14.6647 10.9506L14.4282 12.9746C14.3864 13.3434 14.4727 13.7152 14.6726 14.0279C14.8725 14.3406 15.1738 14.5749 15.526 14.6917L16.1893 14.9205C16.2902 14.9469 16.3933 14.9635 16.4973 14.97C15.9951 15.7625 15.3244 16.4346 14.5329 16.9385C13.7414 17.4423 12.8486 17.7655 11.918 17.885C11.824 17.7517 11.6997 17.6425 11.5553 17.5664C11.411 17.4903 11.2507 17.4495 11.0875 17.4472C10.8997 17.4446 10.7146 17.4923 10.5515 17.5853C10.3883 17.6783 10.253 17.8133 10.1596 17.9762C10.0661 18.1391 10.018 18.3241 10.0202 18.5119C10.0223 18.6997 10.0747 18.8835 10.1718 19.0443C10.269 19.205 10.4074 19.3369 10.5726 19.4261C10.7379 19.5154 10.924 19.5588 11.1117 19.5518C11.2994 19.5449 11.4818 19.4878 11.6401 19.3866C11.7983 19.2854 11.9265 19.1437 12.0115 18.9762C13.3997 18.8089 14.7133 18.256 15.8034 17.3804C16.8935 16.5047 17.7165 15.3413 18.1792 14.0218C18.1968 13.9811 18.2309 13.9503 18.2452 13.9074C18.5029 13.1373 18.6325 12.3303 18.6291 11.5182V11.5171ZM5.74594 10.6041C5.87042 10.6145 5.98764 10.667 6.07824 10.753C6.16884 10.839 6.2274 10.9534 6.24424 11.0771L6.47964 13.0901C6.4931 13.2112 6.46432 13.3331 6.39817 13.4354C6.33202 13.5376 6.23256 13.6138 6.11664 13.6511L5.46984 13.8733C5.33349 13.9171 5.1856 13.9072 5.05624 13.8458C4.99549 13.8175 4.9412 13.777 4.89674 13.7269C4.85227 13.6768 4.81858 13.618 4.79774 13.5543C4.47599 12.5773 4.39153 11.5378 4.55134 10.5216L5.74594 10.6041ZM16.9439 13.8458C16.8178 13.907 16.6731 13.918 16.5391 13.8766L15.8791 13.6489C15.7651 13.6116 15.6673 13.5363 15.6021 13.4356C15.5368 13.335 15.508 13.215 15.5205 13.0956L15.757 11.0815C15.7727 10.9581 15.83 10.8437 15.9193 10.7571C16.0087 10.6705 16.1249 10.617 16.2487 10.6052L17.4499 10.5216C17.6061 11.5089 17.5285 12.519 17.2233 13.4707C17.22 13.4784 17.2134 13.4839 17.2112 13.4927C17.1914 13.5532 17.1606 13.6071 17.1386 13.6687C17.0912 13.7438 17.0243 13.8047 16.945 13.8447L16.9439 13.8458ZM11.0006 8.64393C10.8571 8.64479 10.719 8.58953 10.6156 8.48993C10.5634 8.43808 10.5219 8.3764 10.4935 8.30843C10.4652 8.24046 10.4506 8.16756 10.4506 8.09393C10.4492 8.02182 10.4642 7.95033 10.4946 7.88493C10.5204 7.81748 10.5619 7.75715 10.6156 7.70893C10.7198 7.61069 10.8575 7.55597 11.0006 7.55597C11.1438 7.55597 11.2815 7.61069 11.3856 7.70893C11.4386 7.75795 11.4806 7.81756 11.5091 7.88389C11.5375 7.95022 11.5517 8.02178 11.5506 8.09393C11.5506 8.16755 11.536 8.24044 11.5077 8.30839C11.4793 8.37635 11.4379 8.43805 11.3856 8.48993C11.2823 8.58953 11.1441 8.64479 11.0006 8.64393ZM9.18564 7.70893C9.23859 7.75795 9.28064 7.81756 9.30906 7.88389C9.33749 7.95022 9.35165 8.02178 9.35064 8.09393C9.35058 8.16755 9.33597 8.24044 9.30765 8.30839C9.27934 8.37635 9.23787 8.43805 9.18564 8.48993C9.08231 8.58953 8.94415 8.64479 8.80064 8.64393C8.72842 8.64665 8.65663 8.63154 8.59164 8.59993C8.52563 8.57658 8.46555 8.53903 8.41564 8.48993C8.36336 8.43808 8.32186 8.3764 8.29354 8.30843C8.26522 8.24046 8.25064 8.16756 8.25064 8.09393C8.24962 8.02178 8.26379 7.95022 8.29221 7.88389C8.32064 7.81756 8.36269 7.75795 8.41564 7.70893C8.51976 7.61069 8.65749 7.55597 8.80064 7.55597C8.94379 7.55597 9.08152 7.61069 9.18564 7.70893ZM12.8156 8.48993C12.7593 8.43954 12.7175 8.37497 12.6946 8.30293C12.663 8.23793 12.6479 8.16615 12.6506 8.09393C12.6496 8.02178 12.6638 7.95022 12.6922 7.88389C12.7206 7.81756 12.7627 7.75795 12.8156 7.70893C12.9184 7.60815 13.0567 7.55171 13.2006 7.55171C13.3446 7.55171 13.4828 7.60815 13.5856 7.70893C13.6386 7.75795 13.6806 7.81756 13.7091 7.88389C13.7375 7.95022 13.7517 8.02178 13.7506 8.09393C13.7531 8.16613 13.738 8.23785 13.7066 8.30293C13.6837 8.37494 13.6419 8.43951 13.5856 8.48993C13.4818 8.58866 13.3439 8.64372 13.2006 8.64372C13.0573 8.64372 12.9195 8.58866 12.8156 8.48993Z" fill="black"/>
</svg>
