<svg width="20" height="21" viewBox="0 0 20 21" fill="none" xmlns="http://www.w3.org/2000/svg">
<path d="M17.5 5.48307C14.725 5.20807 11.9333 5.06641 9.15 5.06641C7.5 5.06641 5.85 5.14974 4.2 5.31641L2.5 5.48307" stroke="#C32B43" stroke-width="1.25" stroke-linecap="round" stroke-linejoin="round"/>
<path d="M7.08301 4.6415L7.26634 3.54984C7.39967 2.75817 7.49967 2.1665 8.90801 2.1665H11.0913C12.4997 2.1665 12.608 2.7915 12.733 3.55817L12.9163 4.6415" stroke="#C32B43" stroke-width="1.25" stroke-linecap="round" stroke-linejoin="round"/>
<path d="M15.7087 8.1167L15.167 16.5084C15.0753 17.8167 15.0003 18.8334 12.6753 18.8334H7.32533C5.00033 18.8334 4.92533 17.8167 4.83366 16.5084L4.29199 8.1167" stroke="#C32B43" stroke-width="1.25" stroke-linecap="round" stroke-linejoin="round"/>
<path d="M8.6084 14.25H11.3834" stroke="#C32B43" stroke-width="1.25" stroke-linecap="round" stroke-linejoin="round"/>
<path d="M7.91699 10.9165H12.0837" stroke="#C32B43" stroke-width="1.25" stroke-linecap="round" stroke-linejoin="round"/>
</svg>
