<svg width="22" height="23" viewBox="0 0 22 23" fill="none" xmlns="http://www.w3.org/2000/svg">
<path d="M11.0003 11.0856C13.5316 11.0856 15.5837 9.03358 15.5837 6.50228C15.5837 3.97097 13.5316 1.91895 11.0003 1.91895C8.46902 1.91895 6.41699 3.97097 6.41699 6.50228C6.41699 9.03358 8.46902 11.0856 11.0003 11.0856Z" stroke="black" stroke-width="1.375" stroke-linecap="round" stroke-linejoin="round"/>
<path d="M17.6098 14.514L14.3648 17.7591C14.2364 17.8874 14.1173 18.1257 14.0898 18.2999L13.9156 19.5374C13.8514 19.9865 14.1631 20.2982 14.6123 20.234L15.8498 20.0599C16.0239 20.0324 16.2714 19.9132 16.3906 19.7849L19.6356 16.5399C20.1948 15.9807 20.4606 15.3299 19.6356 14.5049C18.8198 13.689 18.169 13.9549 17.6098 14.514Z" stroke="black" stroke-width="1.375" stroke-miterlimit="10" stroke-linecap="round" stroke-linejoin="round"/>
<path d="M17.1426 14.9814C17.4176 15.9714 18.1876 16.7414 19.1776 17.0164" stroke="black" stroke-width="1.375" stroke-miterlimit="10" stroke-linecap="round" stroke-linejoin="round"/>
<path d="M3.12598 20.2521C3.12598 16.7046 6.65517 13.8354 11.0002 13.8354C11.9535 13.8354 12.8701 13.9729 13.7226 14.2296" stroke="black" stroke-width="1.375" stroke-linecap="round" stroke-linejoin="round"/>
</svg>
