<svg width="19" height="18" viewBox="0 0 19 18" fill="none" xmlns="http://www.w3.org/2000/svg">
<path d="M16.4771 6.43503V11.565C16.4771 12.405 16.0271 13.185 15.2996 13.6125L10.8446 16.185C10.1171 16.605 9.21711 16.605 8.48211 16.185L4.02711 13.6125C3.29961 13.1925 2.84961 12.4125 2.84961 11.565V6.43503C2.84961 5.59503 3.29961 4.81499 4.02711 4.38749L8.48211 1.815C9.20961 1.395 10.1096 1.395 10.8446 1.815L15.2996 4.38749C16.0271 4.81499 16.4771 5.58753 16.4771 6.43503Z" stroke="#006900" stroke-width="1.125" stroke-linecap="round" stroke-linejoin="round"/>
<path d="M9.66742 8.24998C10.6325 8.24998 11.4149 7.46759 11.4149 6.50247C11.4149 5.53735 10.6325 4.755 9.66742 4.755C8.7023 4.755 7.91992 5.53735 7.91992 6.50247C7.91992 7.46759 8.7023 8.24998 9.66742 8.24998Z" stroke="#006900" stroke-width="1.125" stroke-linecap="round" stroke-linejoin="round"/>
<path d="M12.667 12.495C12.667 11.145 11.3245 10.05 9.66699 10.05C8.00949 10.05 6.66699 11.145 6.66699 12.495" stroke="#006900" stroke-width="1.125" stroke-linecap="round" stroke-linejoin="round"/>
</svg>
