<svg width="83" height="83" viewBox="0 0 83 83" fill="none" xmlns="http://www.w3.org/2000/svg">
<path d="M40.1192 12.3799C40.1192 12.4389 40.0934 12.4463 39.6175 12.5275C38.2563 12.7562 36.7402 13.4349 35.497 14.3793C35.2905 14.5379 34.8626 14.9216 34.549 15.2388C33.0107 16.7734 32.1512 18.4518 31.775 20.6467C31.6643 21.2996 31.6532 22.7936 31.7565 23.5204C32.0516 25.5824 33.0144 27.5265 34.4752 28.9947C34.8884 29.4115 35.4122 29.8542 35.77 30.094C35.9102 30.1862 36.0246 30.2821 36.0246 30.3042C36.0246 30.3411 28.0787 35.4207 22.5232 38.9325C20.6603 40.113 20.4648 40.2642 20.3136 40.6737L20.2324 40.884L20.2435 44.8384L20.2546 48.7892L20.3542 49.1471C20.7009 50.405 21.6822 51.5817 22.822 52.1056C24.3345 52.7991 26.0682 52.6441 27.411 51.6924C28.0713 51.2276 28.6652 50.4603 28.9788 49.6783C29.3366 48.7892 29.3735 48.0957 29.1632 46.2439C29.1226 45.8972 29.0673 45.3106 29.0341 44.9344C29.0046 44.5581 28.9124 43.5953 28.8312 42.7948C28.7501 41.9943 28.6505 40.9836 28.6136 40.5483C28.573 40.1167 28.525 39.7441 28.5029 39.722C28.4586 39.6777 28.4623 39.6777 27.0606 40.5704L25.9723 41.2639L25.9613 41.4188C25.9539 41.5037 26.0018 42.0755 26.0609 42.6915C26.1236 43.3076 26.2416 44.5544 26.3228 45.4692C26.4039 46.3804 26.4888 47.2178 26.5072 47.3284C26.5662 47.6457 26.5515 48.2876 26.4851 48.5163C26.2711 49.2393 25.5297 49.8037 24.7919 49.8037C24.139 49.8 23.4381 49.3868 23.1762 48.8446C22.9696 48.4204 22.9659 48.3982 22.9659 45.0561V41.9832L23.0692 41.8763C23.1688 41.773 23.8623 41.3266 26.5626 39.6224C27.3151 39.1465 28.4181 38.4456 29.0157 38.062C29.6133 37.6746 30.8527 36.8889 31.7639 36.3097C32.6787 35.7306 33.9957 34.8895 34.6966 34.4395C35.3974 33.9894 36.8066 33.0893 37.8321 32.4401C38.8576 31.7872 39.7651 31.1932 39.8499 31.1195C40.1746 30.8428 40.3258 30.3264 40.2299 29.8394C40.1709 29.5406 40.1229 29.4447 39.8868 29.2049C39.6692 28.9799 39.6065 28.943 39.1011 28.7549C37.9797 28.338 37.1128 27.7773 36.3344 26.9584C34.9658 25.5197 34.2686 23.5683 34.4346 21.6169C34.5084 20.6984 34.7261 19.872 35.0802 19.138C35.925 17.3894 37.3821 16.0909 39.2118 15.4638C40.6172 14.9769 42.2293 14.9806 43.6569 15.4638C44.2766 15.6741 45.0439 16.0688 45.5603 16.4377C46.0842 16.814 46.1026 16.8287 46.619 17.3968C47.5191 18.378 48.1094 19.5474 48.3454 20.8127C48.4487 21.3587 48.4856 22.3916 48.4192 22.9412C48.2016 24.782 47.2277 26.5268 45.789 27.6482C45.1693 28.1278 44.6529 28.4155 43.8671 28.7069C43.1699 28.9652 42.8822 29.1865 42.7162 29.5849C42.5723 29.928 42.5908 30.4407 42.7531 30.7616C42.9043 31.0531 43.1552 31.2486 44.3614 32.0122C46.6301 33.4508 49.1164 35.0334 53.0303 37.5271C55.2105 38.9178 57.6267 40.456 58.3977 40.9467C59.1687 41.4373 59.8216 41.8652 59.8474 41.8984C59.9175 41.9943 59.9101 48.1953 59.84 48.4646C59.7515 48.7929 59.6298 48.9995 59.3789 49.254C58.7998 49.8332 57.955 49.966 57.2578 49.5897C56.9848 49.4422 56.6381 49.0844 56.5053 48.804C56.2987 48.3835 56.2913 48.2138 56.4204 46.8526C56.4831 46.1923 56.5569 45.3623 56.5901 45.0081C56.6233 44.654 56.6639 44.2224 56.686 44.049C56.7082 43.8756 56.7377 43.5436 56.7561 43.3112C56.8041 42.7173 56.8963 41.6992 56.9258 41.5221C56.9406 41.4078 56.9295 41.3524 56.8778 41.2934C56.8041 41.2086 54.4911 39.733 54.3915 39.7072C54.3399 39.6924 54.3288 39.7404 54.3067 40.0355C54.2919 40.2236 54.2329 40.8692 54.1739 41.4668C54.1149 42.0644 54.0227 43.0272 53.971 43.6064C53.9194 44.1855 53.8087 45.3217 53.7275 46.1332C53.5099 48.2654 53.5394 48.7782 53.9267 49.7373C54.2034 50.4197 54.6645 51.0395 55.2437 51.508C55.7933 51.9543 56.3208 52.2199 57.0475 52.4154C57.3722 52.504 57.4644 52.5113 58.121 52.5113C58.7813 52.5113 58.8699 52.504 59.1982 52.4154C60.0946 52.172 60.6221 51.8695 61.2787 51.2239C61.9427 50.5673 62.3042 49.9771 62.496 49.2208C62.6399 48.6601 62.662 47.9814 62.651 44.2335L62.6399 40.8212L62.5403 40.6036C62.3964 40.2974 62.0976 40.0318 61.4373 39.6187C60.3417 38.9325 57.4939 37.1287 55.8708 36.0884C54.967 35.5092 52.8938 34.1849 51.2597 33.1484C49.6255 32.1118 47.9692 31.0568 47.5782 30.8059C47.0986 30.4997 46.8699 30.3337 46.8773 30.2968C46.8846 30.2673 47.0433 30.1308 47.2314 29.9944C49.1386 28.6258 50.5108 26.4825 50.9978 24.129C51.1711 23.2769 51.197 22.9781 51.1748 21.9452C51.1564 20.9713 51.0937 20.4549 50.8871 19.6507C50.0645 16.434 47.5044 13.7559 44.3246 12.7931C43.8708 12.6529 43.0593 12.4721 42.9006 12.4721C42.8379 12.4721 42.7974 12.4463 42.7863 12.3984C42.7678 12.3246 42.7346 12.3246 41.4435 12.3246C40.3 12.3246 40.1192 12.332 40.1192 12.3799Z" fill="white"/>
<path d="M17.4697 16.7328C17.418 16.7623 17.2778 16.7882 17.1561 16.7882C16.9016 16.7882 16.2708 16.9099 16.197 16.9726C16.1712 16.9947 16.0494 17.0279 15.924 17.0501C15.8023 17.0685 15.6215 17.1275 15.5256 17.1792C15.4076 17.2419 15.3154 17.2677 15.249 17.2529C15.1715 17.2382 15.1457 17.2493 15.1457 17.2862C15.1457 17.323 15.1051 17.3415 15.0202 17.3415C14.9502 17.3415 14.8801 17.3562 14.869 17.3784C14.8579 17.3968 14.8063 17.4153 14.7546 17.4153C14.7067 17.4153 14.6366 17.4485 14.6034 17.489C14.5665 17.5296 14.5149 17.5628 14.4817 17.5628C14.4522 17.5628 14.3599 17.6034 14.2788 17.655C14.1976 17.703 14.087 17.7473 14.0353 17.7473C13.9726 17.7473 13.932 17.7731 13.9173 17.8173C13.9099 17.8542 13.8546 17.8948 13.7992 17.9096C13.7439 17.9243 13.6554 17.9649 13.6 18.0018C13.5484 18.0387 13.3492 18.1715 13.161 18.2969C12.3569 18.8244 11.4125 19.6581 10.9625 20.2336C10.328 21.0525 9.87056 21.7313 9.87056 21.853C9.87056 21.8899 9.84105 21.9305 9.80047 21.9415C9.75251 21.9526 9.723 22.0042 9.70825 22.0965C9.69718 22.1739 9.65291 22.2809 9.61233 22.3326C9.57176 22.3842 9.53856 22.458 9.53856 22.4986C9.53856 22.5354 9.50536 22.5982 9.46478 22.635C9.4242 22.6719 9.391 22.7273 9.391 22.7568C9.391 22.79 9.33936 22.9191 9.27665 23.0445C9.21393 23.1736 9.17336 23.2954 9.18811 23.3138C9.19918 23.3359 9.18442 23.3913 9.15491 23.4355C9.1254 23.4835 9.06638 23.6532 9.0258 23.8155C8.98153 23.9778 8.93358 24.1143 8.91513 24.1217C8.89669 24.129 8.893 24.2065 8.90407 24.2987C8.91882 24.4278 8.90407 24.4869 8.84505 24.568C8.73069 24.7229 8.68273 25.3206 8.68273 26.5231C8.68642 27.7515 8.73807 28.493 8.83398 28.6295C8.87087 28.6811 8.91145 28.8029 8.9262 28.9062C8.93727 29.0058 8.9594 29.1644 8.97416 29.2566C8.98522 29.3488 9.01842 29.4374 9.04425 29.4521C9.07745 29.4706 9.09589 29.5443 9.09589 29.6402C9.09589 29.7509 9.11433 29.8099 9.15122 29.8247C9.18442 29.8358 9.20656 29.8911 9.20656 29.9686C9.20656 30.0386 9.23238 30.1161 9.26189 30.1419C9.2914 30.1678 9.31722 30.2157 9.31722 30.2489C9.31722 30.2821 9.34305 30.3411 9.37256 30.378C9.40207 30.4186 9.42789 30.4887 9.42789 30.533C9.42789 30.5772 9.45371 30.6215 9.47953 30.6326C9.50905 30.6436 9.56069 30.7358 9.5902 30.8354C9.61971 30.935 9.68242 31.0826 9.73038 31.1601C9.78202 31.2412 9.84105 31.3556 9.86318 31.422C9.88531 31.4884 9.9554 31.6101 10.0181 31.6986C10.2985 32.086 10.4977 32.4143 10.4792 32.4622C10.4682 32.4954 10.4792 32.5028 10.5161 32.4881C10.5493 32.477 10.5862 32.4991 10.612 32.5508C10.6378 32.595 10.7153 32.6983 10.7891 32.7795C10.8629 32.8643 10.9735 33.0082 11.0399 33.1004C11.1026 33.1963 11.4383 33.5246 11.7851 33.8382C12.1318 34.1481 12.4159 34.41 12.4159 34.421C12.4159 34.4321 12.3052 34.4985 12.1724 34.5686C12.0396 34.6387 11.9142 34.7272 11.8958 34.7604C11.8773 34.7973 11.8367 34.8158 11.8072 34.8047C11.7777 34.7936 11.7002 34.8379 11.6228 34.9154C11.5527 34.9891 11.4383 35.074 11.3719 35.1072C11.3092 35.1441 11.2133 35.1994 11.1617 35.2326C10.9957 35.3433 10.6674 35.5388 10.5198 35.6126C10.4386 35.6494 10.2542 35.7712 10.1103 35.8818C9.96278 35.9925 9.76727 36.1069 9.67136 36.1401C9.57913 36.1733 9.50167 36.2212 9.50167 36.2507C9.50167 36.2802 9.48691 36.3061 9.46478 36.3061C9.44633 36.3098 9.41682 36.3134 9.40207 36.3208C9.35042 36.3319 8.91145 36.7635 8.91145 36.8004C8.91145 36.8188 8.87087 36.8926 8.81922 36.9664C8.75282 37.0623 8.71593 37.184 8.69011 37.398C8.66798 37.564 8.6274 37.7595 8.59789 37.8296C8.56838 37.8997 8.54256 38.0472 8.54256 38.1542C8.54256 38.2612 8.51674 38.4161 8.48722 38.4973C8.45771 38.5784 8.43558 38.7334 8.43189 38.8403C8.43189 38.9473 8.41345 39.0727 8.38762 39.117C8.36549 39.1613 8.33229 39.3236 8.32122 39.4748C8.30647 39.6261 8.27696 39.8253 8.25482 39.9175C8.21056 40.0982 8.14416 40.5151 8.10358 40.8582C8.08882 40.9799 8.05931 41.1164 8.03349 41.1606C8.00767 41.2049 7.98922 41.3303 7.98922 41.441C7.98922 41.5517 7.9634 41.714 7.93389 41.7988C7.90438 41.8837 7.87856 42.0275 7.87856 42.1161C7.87856 42.2009 7.85642 42.3854 7.82691 42.5255C7.7974 42.662 7.76051 42.9682 7.74945 43.2006C7.731 43.5178 7.70887 43.647 7.65722 43.717C7.59451 43.8093 7.58713 43.883 7.52442 44.7389C7.50598 44.9897 7.49122 45.045 7.43958 45.045C7.38793 45.045 7.37687 45.0893 7.37318 45.2922C7.37318 45.4324 7.3326 45.7017 7.28833 45.8935C7.24407 46.0853 7.19611 46.4173 7.18136 46.6313C7.1666 46.9116 7.14816 47.0149 7.11496 47.0075C7.08176 47.0038 7.067 47.0629 7.067 47.2141C7.067 47.3322 7.04118 47.5166 7.01167 47.6273C6.97847 47.7379 6.93789 47.963 6.91576 48.1253C6.89731 48.2876 6.85673 48.5716 6.82722 48.7561C6.79771 48.9368 6.77189 49.2172 6.77189 49.3758C6.77189 49.6266 6.76451 49.6635 6.7018 49.682C6.64278 49.6967 6.62802 49.7447 6.60589 49.9808C6.59482 50.1394 6.569 50.3349 6.55056 50.4198C6.52842 50.5046 6.51367 50.6448 6.51367 50.7333C6.51367 50.8218 6.49522 50.9583 6.47678 51.0395C6.45465 51.1206 6.42513 51.294 6.40669 51.4268C6.38825 51.5596 6.35505 51.7625 6.33291 51.8769C6.24069 52.3675 6.21118 52.5298 6.18167 52.777C6.16322 52.9245 6.12265 53.1385 6.08945 53.2565C6.05625 53.3782 6.01936 53.666 6.00829 53.8984C5.99354 54.2009 5.9714 54.33 5.9382 54.3521C5.89762 54.3742 5.88656 54.5808 5.88656 55.4034V56.4253L5.53242 56.7757C4.45896 57.8381 3.85029 59.0554 3.65478 60.5347C3.57731 61.0917 3.57731 64.5593 3.65478 65.1163C3.8466 66.5808 4.46265 67.8239 5.50291 68.8458C6.52842 69.8528 7.72731 70.4394 9.16598 70.6275C9.7562 70.7086 73.2494 70.7086 73.8396 70.6275C75.02 70.4726 76.0381 70.0483 76.953 69.3364C77.2887 69.0708 77.8752 68.4806 78.1224 68.1559C78.7015 67.385 79.1258 66.4111 79.3176 65.4077C79.3729 65.1052 79.384 64.788 79.3987 63.0468C79.4135 60.9478 79.395 60.6232 79.2512 59.9518C79.0557 59.0407 78.613 58.1185 78.0006 57.3438C77.901 57.2184 77.6281 56.9306 77.392 56.7056C77.071 56.3958 76.9714 56.2814 77.0046 56.2482C77.06 56.1929 77.06 55.0714 77.0046 55.0161C76.9825 54.994 76.9493 54.828 76.9346 54.6509C76.9161 54.4702 76.8866 54.2636 76.8645 54.1935C76.8423 54.1234 76.8239 53.998 76.8239 53.9131C76.8239 53.8283 76.7981 53.6881 76.7686 53.6033C76.739 53.5184 76.7132 53.3672 76.7132 53.2713C76.7132 53.1754 76.6874 53.0167 76.6579 52.9171C76.6284 52.8175 76.6026 52.67 76.6026 52.5888C76.6026 52.5077 76.5841 52.3822 76.562 52.3122C76.5398 52.2421 76.5066 52.0576 76.4882 51.9064C76.4734 51.7551 76.4402 51.4969 76.4218 51.3346C76.4034 51.1723 76.3701 50.9989 76.348 50.9473C76.3259 50.8956 76.2927 50.7296 76.2742 50.5784C76.2115 50.0767 76.1562 49.7521 76.1009 49.5602C76.0714 49.457 76.0492 49.3057 76.0492 49.2246C76.0492 49.1434 76.016 48.8962 75.9754 48.6749C75.9349 48.4536 75.9017 48.1548 75.9017 48.0109C75.9017 47.808 75.8869 47.7416 75.8463 47.7232C75.8021 47.7084 75.791 47.6383 75.791 47.4133C75.791 47.2178 75.7725 47.1034 75.7357 47.0518C75.7025 47.0075 75.6803 46.8895 75.6803 46.7235C75.6803 46.5722 75.6545 46.4284 75.625 46.373C75.5955 46.3214 75.5733 46.1775 75.5697 46.0374C75.5697 45.9046 75.5512 45.7791 75.5254 45.7533C75.5033 45.7312 75.4737 45.5578 75.459 45.366C75.4442 45.1705 75.4073 44.975 75.3705 44.9086C75.3373 44.8422 75.3114 44.7094 75.3114 44.6134C75.3114 44.5175 75.2856 44.3552 75.2561 44.2556C75.2266 44.156 75.2008 44.0048 75.2008 43.9236C75.2008 43.8388 75.1786 43.6543 75.1491 43.5142C75.0532 43.0604 75.0163 42.8133 75.0163 42.6436C75.0126 42.555 74.9905 42.4149 74.961 42.3337C74.9315 42.2526 74.9057 42.1198 74.9057 42.0423C74.9057 41.9611 74.8835 41.8025 74.854 41.6918C74.8024 41.4926 74.7507 41.168 74.6843 40.6368C74.6659 40.493 74.6327 40.3122 74.6142 40.231C74.5921 40.1499 74.5737 40.0134 74.5737 39.9322C74.5737 39.8474 74.5478 39.7183 74.5183 39.6482C74.4888 39.5744 74.463 39.4342 74.463 39.3346C74.463 39.235 74.4372 39.0727 74.4077 38.9731C74.3782 38.8735 74.3523 38.726 74.3523 38.6448C74.3523 38.5637 74.3339 38.4382 74.3118 38.3682C74.2896 38.2981 74.249 38.0472 74.2195 37.8148C74.1347 37.1434 74.0462 36.911 73.7621 36.5827C73.633 36.4352 73.4227 36.295 72.4894 35.7232C71.6558 35.2105 70.5491 34.5059 70.4864 34.4432C70.4458 34.4026 70.479 34.3546 70.6856 34.1776C71.914 33.1078 72.6997 32.0712 73.3084 30.7137C73.5703 30.1235 73.799 29.5222 73.799 29.4115C73.799 29.3562 73.8322 29.2492 73.8728 29.1717C73.9134 29.0943 73.9466 28.9652 73.9466 28.873C73.9466 28.7697 73.9724 28.6811 74.0203 28.6184C74.0609 28.5668 74.0941 28.4782 74.0941 28.4192C74.0941 28.3639 74.1199 28.1647 74.1494 27.9839C74.1937 27.7331 74.2048 27.3642 74.2011 26.4641C74.1974 25.3759 74.19 25.2615 74.1273 25.1361C74.072 25.0291 74.0646 24.959 74.083 24.8041C74.1015 24.627 74.0941 24.5975 74.024 24.5496C73.9687 24.509 73.9466 24.4537 73.9466 24.3504C73.9466 24.2692 73.9134 24.0995 73.8765 23.9741C73.8359 23.845 73.7695 23.6237 73.7289 23.4835C73.6219 23.1146 73.5186 22.8342 73.4818 22.8047C73.4486 22.7826 73.3858 22.6387 73.2899 22.3584C73.2604 22.2662 73.2014 22.1555 73.1645 22.1112C73.1239 22.0706 73.0391 21.9231 72.969 21.794C72.3456 20.5471 71.1467 19.2413 69.815 18.3559C69.424 18.094 68.4981 17.5997 68.3985 17.5997C68.3653 17.5997 68.3284 17.5739 68.3173 17.5444C68.3062 17.5149 68.2288 17.4706 68.1513 17.4522C68.0738 17.43 68.0074 17.3968 68.0074 17.3821C68.0074 17.3636 67.9779 17.3562 67.9373 17.3673C67.9005 17.3784 67.7529 17.3341 67.6164 17.2751C67.4762 17.2124 67.2549 17.1349 67.1221 17.1017C66.9893 17.0685 66.8233 17.0132 66.7532 16.9837C66.6204 16.9246 66.4138 16.8841 65.9417 16.825C65.7904 16.8066 65.5654 16.7734 65.4437 16.7549C65.167 16.7033 63.9312 16.7033 63.341 16.7513C63.0975 16.7734 62.7729 16.8214 62.6217 16.8619C62.4704 16.9025 62.2712 16.9357 62.179 16.9357C62.0868 16.9357 61.9798 16.9615 61.9429 16.991C61.9023 17.0205 61.799 17.0464 61.7142 17.0464C61.6294 17.0464 61.5408 17.0685 61.5187 17.098C61.4966 17.1275 61.4154 17.1607 61.3379 17.1718C61.2642 17.1866 61.1424 17.205 61.0723 17.2161C61.0022 17.2308 60.9174 17.2603 60.8879 17.2862C60.7883 17.3673 60.6002 17.4522 60.5079 17.4522C60.46 17.4522 60.3899 17.4817 60.3567 17.5222C60.3235 17.5591 60.1981 17.6255 60.0837 17.6698C59.9693 17.7104 59.7665 17.8137 59.6337 17.8948C59.5009 17.976 59.3054 18.083 59.1947 18.1346C58.9254 18.2637 58.2098 18.8207 57.6343 19.3482C56.7084 20.1967 56.0407 21.082 55.5538 22.1002C55.48 22.2514 55.4025 22.41 55.3804 22.4506C55.2144 22.7457 55.0226 23.1921 54.9857 23.3765C54.9598 23.4945 54.9082 23.6569 54.8713 23.7306C54.8307 23.8081 54.8012 23.9151 54.8012 23.9704C54.8012 24.0257 54.7717 24.1217 54.7385 24.1844C54.6795 24.2987 54.6426 24.4758 54.5799 24.9886C54.5614 25.1472 54.5319 25.2947 54.5209 25.3169C54.5061 25.339 54.4914 25.7817 54.484 26.3018C54.4729 27.3716 54.543 28.434 54.6352 28.5668C54.6647 28.611 54.6906 28.7217 54.6906 28.8176C54.6906 28.9246 54.7127 29.0057 54.7459 29.0353C54.7791 29.0611 54.8012 29.1422 54.8012 29.2271C54.8012 29.3046 54.8234 29.4078 54.8529 29.4521C54.8824 29.4964 54.9303 29.6402 54.9635 29.773C54.993 29.9058 55.0705 30.1272 55.1332 30.271C55.1996 30.4112 55.3066 30.6584 55.373 30.8133C55.8304 31.8868 56.9666 33.366 57.9515 34.1628C58.0843 34.2698 58.195 34.3805 58.195 34.4063C58.195 34.4321 58.0659 34.528 57.9109 34.6202C57.3207 34.9707 56.7748 35.3433 56.7416 35.417C56.7121 35.4834 56.7268 35.513 56.8154 35.5867C56.8744 35.6347 57.0109 35.7158 57.1178 35.7675C57.3576 35.8855 58.1212 36.3798 58.1913 36.461C58.2171 36.4979 58.2725 36.5237 58.3094 36.5237C58.3462 36.5237 58.4311 36.5717 58.4975 36.6307C58.5639 36.6897 58.6782 36.7598 58.752 36.793C58.8258 36.8225 58.9623 36.9074 59.0582 36.9811C59.2795 37.1508 59.4345 37.1582 59.6042 37.007C59.6706 36.9479 60.0505 36.6971 60.4452 36.4499C60.8399 36.1991 61.3342 35.8892 61.5445 35.7564C61.7511 35.6236 61.9724 35.4576 62.0314 35.3838C62.0942 35.3101 62.1753 35.2105 62.2159 35.1625C62.2565 35.1146 62.2897 35.0445 62.2897 35.0076C62.2897 34.9707 62.3044 34.9301 62.3266 34.919C62.345 34.908 62.3966 34.7789 62.4409 34.635L62.5184 34.3731L62.4335 34.1112C62.2196 33.4287 62.0646 33.2627 61.301 32.8828C60.0985 32.2889 59.4234 31.7245 58.6413 30.6584C58.5122 30.4887 58.3684 30.2637 58.3167 30.1604C58.2651 30.0608 58.1913 29.9427 58.1544 29.9022C58.0253 29.7583 57.6232 28.6848 57.5826 28.3676C57.5679 28.268 57.5347 28.1684 57.5089 28.1462C57.4757 28.1167 57.4572 28.0208 57.4572 27.8548C57.4572 27.6777 57.4425 27.5929 57.4019 27.5597C57.3539 27.5228 57.3466 27.379 57.3466 26.6965C57.3466 25.9919 57.3576 25.8444 57.4203 25.623C57.4609 25.4829 57.4941 25.3058 57.4941 25.232C57.4941 25.1582 57.5273 25.0254 57.5679 24.9369C57.6085 24.8484 57.6417 24.7229 57.6417 24.6566C57.6417 24.5902 57.6749 24.4537 57.7154 24.3504C57.756 24.2471 57.7892 24.129 57.7892 24.0922C57.7892 24.0516 57.804 24.0184 57.8224 24.0184C57.8409 24.0184 57.8741 23.963 57.8999 23.8966C58.029 23.5536 58.0991 23.4134 58.3204 23.0445C58.8406 22.1887 59.5046 21.4583 60.2165 20.9566C60.6334 20.6615 61.4855 20.1893 61.6626 20.1561C61.7326 20.145 61.8359 20.1008 61.8876 20.0639C62.0056 19.9754 62.4188 19.8536 62.6844 19.8241C62.7914 19.813 62.8983 19.7798 62.9205 19.754C62.95 19.7171 63.0459 19.7024 63.2266 19.7024C63.4037 19.7024 63.5181 19.6839 63.566 19.647C63.6214 19.6065 63.7763 19.5954 64.337 19.5954C64.8977 19.5954 65.0526 19.6065 65.108 19.647C65.1522 19.6802 65.2629 19.7024 65.392 19.7024C65.5064 19.7024 65.6724 19.7282 65.7572 19.7577C65.8421 19.7872 65.9859 19.813 66.0745 19.813C66.1593 19.813 66.2442 19.8278 66.2552 19.8499C66.2663 19.8684 66.3954 19.92 66.5393 19.9643C66.6868 20.0049 66.8897 20.0897 66.993 20.1487C67.0963 20.2078 67.207 20.2557 67.2365 20.2557C67.3176 20.2557 68.273 20.8201 68.5829 21.0488C69.1916 21.5026 69.7634 22.1223 70.2318 22.8527C70.4642 23.2105 70.811 23.8966 70.811 23.9999C70.811 24.0184 70.8553 24.1217 70.9106 24.2213C71.0323 24.4537 71.1799 25.0107 71.1799 25.2578C71.1799 25.3943 71.1946 25.457 71.2352 25.4718C71.2832 25.4902 71.2906 25.6452 71.2906 26.5748C71.2906 27.497 71.2832 27.6667 71.2352 27.7073C71.1983 27.7368 71.1799 27.8216 71.1799 27.9655C71.1799 28.0835 71.1578 28.2422 71.1282 28.3196C71.1024 28.4008 71.0692 28.541 71.0545 28.6332C71.0397 28.7254 70.9881 28.8582 70.9401 28.9283C70.8885 28.9947 70.8479 29.0722 70.8479 29.1017C70.8479 29.2013 70.5122 29.8985 70.3019 30.2341C70.0216 30.6805 69.59 31.2486 69.3096 31.529C68.867 31.9827 67.5389 32.8791 67.0742 33.0451C66.8491 33.1226 66.4544 33.473 66.3364 33.698C66.27 33.8271 66.2589 33.9157 66.2589 34.3288C66.2552 34.7936 66.2589 34.8158 66.3659 35.0076C66.5061 35.2621 66.886 35.6089 67.2734 35.8413C67.443 35.9409 67.705 36.1106 67.8562 36.2175C68.0074 36.3245 68.1439 36.413 68.1624 36.413C68.1808 36.413 68.3505 36.5163 68.5386 36.6418C69.033 36.9774 69.7338 37.4275 70.5343 37.9218C70.9217 38.1616 71.2795 38.3977 71.3311 38.4456C71.4086 38.5194 71.4381 38.6006 71.4898 38.903C71.5266 39.1059 71.5672 39.3531 71.5893 39.449C71.6078 39.5486 71.6226 39.6998 71.6226 39.7884C71.6226 39.8806 71.6484 40.0318 71.6816 40.1278C71.7185 40.2237 71.7553 40.4118 71.7738 40.5446C71.8144 40.9098 71.8808 41.3193 71.9213 41.5037C71.9693 41.6955 72.021 42.0607 72.0615 42.4813C72.0763 42.6436 72.1095 42.8133 72.1316 42.8575C72.1574 42.9018 72.1759 43.0162 72.1759 43.1158C72.1759 43.2117 72.1943 43.3518 72.2165 43.4219C72.2423 43.492 72.2718 43.6654 72.2902 43.8093C72.3419 44.2519 72.3935 44.6098 72.4341 44.7979C72.4526 44.8938 72.471 45.0635 72.471 45.1705C72.471 45.318 72.4857 45.3734 72.53 45.3918C72.578 45.4102 72.589 45.4582 72.5743 45.6648C72.5595 45.8566 72.5706 45.9414 72.6259 46.0484C72.6702 46.1406 72.6923 46.2661 72.6923 46.4394C72.6923 46.6239 72.7071 46.7087 72.7477 46.7419C72.7845 46.7714 72.803 46.8563 72.803 46.978C72.803 47.0813 72.8288 47.3063 72.8583 47.4797C72.8915 47.6531 72.9063 47.8375 72.8952 47.8892C72.8805 47.9519 72.8952 47.9998 72.9321 48.033C72.9727 48.0662 72.9874 48.1511 72.9874 48.3577C72.9874 48.5642 73.0022 48.6528 73.0465 48.7007C73.0907 48.7524 73.1055 48.8409 73.1055 49.0364C73.1055 49.2246 73.1239 49.3242 73.1645 49.3684C73.1977 49.4127 73.2235 49.527 73.2309 49.6967C73.2383 49.8406 73.2604 50.0177 73.2826 50.0951C73.301 50.1689 73.3194 50.3202 73.3194 50.4345C73.3194 50.5784 73.3379 50.6595 73.3748 50.689C73.419 50.7259 73.4301 50.8034 73.4264 51.0026C73.4227 51.1981 73.4375 51.294 73.4818 51.3567C73.5223 51.4194 73.5408 51.5227 73.5408 51.7146C73.5408 51.9064 73.5555 52.0023 73.5961 52.0392C73.6367 52.0798 73.6514 52.1757 73.6514 52.3712C73.6514 52.5335 73.6736 52.6884 73.7031 52.7474C73.7547 52.8507 73.8433 53.452 73.8506 53.773C73.8506 53.8762 73.8765 53.9869 73.906 54.0238C73.9392 54.0607 73.9576 54.1861 73.9613 54.3558C73.965 54.5587 73.9834 54.6472 74.0314 54.7026C74.0683 54.7394 74.0941 54.8317 74.0941 54.9091V55.0493L73.9576 55.0198C73.8801 55.005 59.3644 54.9866 41.702 54.9792C15.5404 54.9718 9.52011 54.9755 9.21393 55.0161L8.83767 55.0641V54.9091C8.83767 54.8243 8.86349 54.6841 8.893 54.5993C8.9262 54.507 8.94096 54.389 8.9262 54.3189C8.91513 54.2488 8.9262 54.1529 8.9594 54.0754C9.02949 53.9242 9.13278 53.2418 9.13278 52.9466C9.13278 52.7843 9.14753 52.7216 9.18811 52.7032C9.22869 52.6884 9.24345 52.622 9.24345 52.4302C9.24345 52.2863 9.26927 52.1166 9.29878 52.0429C9.32829 51.9654 9.35411 51.7957 9.35411 51.6555C9.35411 51.4822 9.37256 51.3862 9.40576 51.3567C9.43527 51.3309 9.46478 51.1944 9.47953 50.9915C9.54225 50.2206 9.557 50.1062 9.6234 50.0361C9.66029 49.9955 9.68611 49.907 9.68611 49.8258C9.68611 49.6525 9.78202 48.9811 9.85211 48.6602C9.88162 48.5274 9.91482 48.3355 9.92958 48.2359C9.94065 48.1326 9.98122 47.8929 10.0218 47.6937C10.0587 47.4982 10.0919 47.2067 10.0919 47.0407C10.0919 46.8157 10.1066 46.7382 10.1472 46.7161C10.1878 46.694 10.2099 46.5981 10.2247 46.3952C10.2358 46.2402 10.2579 46.0669 10.28 46.0189C10.2985 45.9673 10.3132 45.8308 10.3132 45.7164C10.3132 45.5762 10.339 45.4582 10.387 45.366C10.4386 45.2738 10.4608 45.1557 10.4608 45.0008C10.4645 44.868 10.4866 44.7278 10.5161 44.6762C10.5456 44.6245 10.5678 44.4843 10.5714 44.3589C10.5714 44.2372 10.5936 44.0638 10.6231 43.9716C10.6526 43.883 10.6858 43.6506 10.6969 43.4588C10.7079 43.267 10.7448 42.9903 10.778 42.8502C10.8112 42.7063 10.8407 42.5071 10.8481 42.4075C10.8555 42.3042 10.8776 42.164 10.8998 42.0939C10.9219 42.0238 10.9403 41.8542 10.9403 41.7214C10.9403 41.548 10.9551 41.4631 10.9957 41.4299C11.0362 41.3967 11.051 41.3082 11.051 41.1127C11.051 40.9061 11.0694 40.8139 11.1248 40.7217C11.1801 40.6331 11.1986 40.5335 11.1986 40.3528C11.1986 40.1942 11.2133 40.1019 11.2428 40.0946C11.276 40.0835 11.2834 39.9876 11.276 39.7662C11.2686 39.5154 11.2797 39.4416 11.324 39.4047C11.3646 39.3715 11.383 39.2941 11.383 39.165C11.383 39.0617 11.4162 38.8588 11.4531 38.7186C11.5084 38.5046 11.5379 38.4493 11.6375 38.3866C11.7002 38.346 11.8626 38.2354 11.999 38.1357C12.1318 38.0398 12.2573 37.9624 12.2794 37.9624C12.3015 37.9624 12.427 37.8923 12.5598 37.8074C12.925 37.575 14.2198 36.7266 14.3894 36.6086C14.4706 36.5495 14.6292 36.4536 14.7399 36.3909C15.0645 36.2102 15.7359 35.7933 15.983 35.6162C16.6692 35.1256 16.861 34.4579 16.529 33.7238C16.4442 33.5431 16.0605 33.093 15.9904 33.093C15.9535 33.093 15.3891 32.8164 15.1383 32.6762C14.4448 32.2889 14.039 31.9753 13.4635 31.3888C13.0246 30.9461 12.9471 30.8391 12.5192 30.1087C12.4196 29.939 12.3089 29.7546 12.272 29.703C12.2351 29.6513 12.1798 29.5333 12.1466 29.441C12.0101 29.05 11.9658 28.943 11.9363 28.9062C11.9179 28.884 11.8847 28.7512 11.8626 28.611C11.8404 28.4672 11.7962 28.3159 11.7666 28.2717C11.7371 28.22 11.715 28.0946 11.715 27.9397C11.7113 27.7921 11.6892 27.6519 11.6597 27.5966C11.5785 27.4564 11.5785 25.4939 11.6597 25.4939C11.7039 25.4939 11.715 25.446 11.715 25.2726C11.715 25.1435 11.7371 25.0144 11.7666 24.9664C11.7962 24.9221 11.8294 24.8004 11.8441 24.7008C11.8589 24.5975 11.9105 24.4315 11.9585 24.3282C12.0064 24.225 12.047 24.1069 12.047 24.0663C12.047 24.0257 12.0802 23.963 12.1171 23.9298C12.154 23.893 12.2056 23.797 12.2278 23.7085C12.2499 23.6237 12.32 23.4577 12.3864 23.347C12.4528 23.2326 12.5598 23.0519 12.6188 22.9486C12.6815 22.8416 12.7737 22.683 12.8254 22.5908C12.877 22.5022 12.995 22.351 13.0836 22.2551C13.1758 22.1592 13.3307 21.9858 13.4266 21.8678C13.6295 21.6243 14.537 20.8459 14.6182 20.8459C14.6477 20.8459 14.7362 20.7795 14.8174 20.6984C14.8985 20.6172 14.9944 20.5508 15.035 20.5508C15.0719 20.5508 15.1162 20.5324 15.1272 20.5139C15.1383 20.4918 15.1752 20.477 15.2084 20.477C15.2416 20.477 15.3043 20.4365 15.3522 20.3848C15.4002 20.3332 15.474 20.2926 15.5219 20.2926C15.5699 20.2926 15.6621 20.2594 15.7285 20.2188C15.7949 20.1782 15.8871 20.145 15.9351 20.145C15.983 20.145 16.031 20.1192 16.0458 20.0897C16.0568 20.0565 16.1158 20.0344 16.197 20.0344C16.2782 20.0344 16.3224 20.0196 16.3187 19.9901C16.3077 19.9458 16.4368 19.9126 16.8352 19.8647C16.9717 19.8462 17.0418 19.8167 17.0676 19.7725C17.0971 19.7134 17.1487 19.7024 17.3516 19.7024C17.4881 19.7024 17.6689 19.6765 17.7537 19.647C17.9861 19.5659 19.1223 19.5733 19.3104 19.6544C19.3953 19.6913 19.5244 19.7098 19.6719 19.7061C19.8527 19.6987 19.9302 19.7134 20.0261 19.7725C20.0962 19.813 20.2585 19.8647 20.3876 19.8831C20.5942 19.9126 20.7085 19.9495 21.0663 20.1082C21.1069 20.1266 21.1954 20.1524 21.2618 20.1635C21.3246 20.1782 21.3799 20.2041 21.3799 20.2225C21.3799 20.241 21.4168 20.2557 21.4647 20.2557C21.5127 20.2557 21.627 20.3074 21.723 20.3664C21.8189 20.4291 21.959 20.5029 22.0328 20.5324C22.1103 20.5656 22.2542 20.6541 22.3538 20.7279C22.457 20.8054 22.6673 20.9603 22.8186 21.0746C23.3424 21.4694 24.0211 22.2219 24.4195 22.8527C24.497 22.9744 24.604 23.1441 24.6593 23.2253C24.711 23.3064 24.7995 23.4872 24.8511 23.6237C24.9065 23.7602 24.9655 23.8929 24.9876 23.9188C25.0061 23.9446 25.0319 24.0184 25.0466 24.0885C25.0577 24.1586 25.0909 24.2397 25.113 24.2692C25.1721 24.3393 25.2495 24.627 25.2532 24.7783C25.2532 24.841 25.2864 24.9369 25.3307 24.9922C25.3971 25.0734 25.4045 25.1287 25.3934 25.3574C25.386 25.5862 25.3934 25.623 25.4487 25.6341C25.5078 25.6452 25.5114 25.7226 25.5114 26.5637C25.5114 27.3015 25.5004 27.497 25.4561 27.5818C25.4266 27.6409 25.4008 27.7774 25.4008 27.888C25.4008 28.0171 25.375 28.1278 25.3307 28.2016C25.2938 28.2643 25.2495 28.3971 25.2348 28.5004C25.209 28.6885 25.0061 29.2787 24.8806 29.5222C24.8438 29.5997 24.8106 29.6845 24.8106 29.714C24.8106 29.7435 24.77 29.8173 24.7183 29.8763C24.6667 29.939 24.6261 30.0128 24.6261 30.046C24.6261 30.1198 24.2978 30.592 24.0211 30.9166C23.9068 31.0494 23.7334 31.256 23.6338 31.3777C23.4309 31.6286 22.9772 32.0196 22.6636 32.2225C22.5493 32.2926 22.4423 32.3737 22.4312 32.3958C22.4165 32.418 22.3316 32.4659 22.2431 32.5028C22.1546 32.5434 22.0808 32.5914 22.0808 32.6135C22.0808 32.6319 22.0623 32.6504 22.0365 32.6504C21.9295 32.6504 21.059 33.1152 20.9151 33.248C20.6679 33.4767 20.4577 33.8124 20.4577 33.9784C20.4577 34.0558 20.4318 34.137 20.4023 34.1628C20.3359 34.2182 20.3286 34.4616 20.3876 34.5206C20.4134 34.5465 20.4429 34.6498 20.4614 34.753C20.4761 34.8563 20.5241 34.9854 20.5683 35.0408C20.6089 35.0961 20.6974 35.2142 20.7638 35.3064C20.9003 35.4945 21.8926 36.1843 22.0328 36.188C22.0771 36.1917 22.1324 36.2249 22.1546 36.2655C22.1767 36.3061 22.2652 36.3762 22.3501 36.4167C22.4349 36.461 22.6452 36.5938 22.8186 36.7082C23.4752 37.1508 23.5674 37.1803 23.7814 37.0217C23.9621 36.8889 24.1798 36.7487 24.4601 36.579C24.9175 36.3024 25.1979 36.1216 25.3639 35.9962C25.4561 35.9261 25.5889 35.8413 25.659 35.8044C25.7291 35.7712 25.8213 35.7122 25.8619 35.6753C25.9025 35.6421 25.9836 35.6015 26.039 35.5867C26.0943 35.572 26.1533 35.5351 26.1644 35.5056C26.1902 35.4355 26.1054 35.2695 26.0463 35.2695C26.0205 35.2695 25.9357 35.2215 25.8582 35.1662C25.7807 35.1109 25.5815 34.9818 25.4192 34.8858C25.2569 34.7862 25.1094 34.6866 25.0872 34.6645C25.0688 34.6424 24.9618 34.5834 24.8585 34.5317C24.7515 34.4801 24.663 34.4284 24.663 34.4137C24.663 34.3989 24.7442 34.3214 24.8474 34.2403C25.3454 33.8456 26.205 32.9676 26.3673 32.6836C26.3931 32.6356 26.4337 32.5766 26.4595 32.5508C26.4853 32.5213 26.596 32.3626 26.7103 32.1966C26.8247 32.0306 26.9612 31.8278 27.0202 31.7466C27.2452 31.4294 27.4813 30.9682 27.5662 30.6768C27.5809 30.6362 27.6067 30.592 27.6289 30.5772C27.6473 30.5625 27.6953 30.4555 27.7285 30.3374C27.8096 30.0608 27.8982 29.8026 27.9941 29.5702C28.0346 29.4669 28.0752 29.3193 28.0863 29.2382C28.0937 29.157 28.1269 29.0611 28.1601 29.0242C28.2006 28.9799 28.2154 28.9062 28.208 28.8102C28.2043 28.7217 28.2228 28.6258 28.256 28.5742C28.2966 28.5114 28.315 28.3971 28.315 28.22C28.315 28.0319 28.3334 27.936 28.3703 27.8917C28.4552 27.7995 28.4773 25.8517 28.3998 25.5197C28.374 25.3943 28.3519 25.2394 28.3519 25.1804C28.3593 25.0033 28.1933 24.2249 28.1416 24.1917C28.1158 24.177 28.0937 24.0995 28.0937 24.0257C28.0937 23.952 28.0605 23.8081 28.0199 23.7048C27.9793 23.6052 27.8723 23.3212 27.7764 23.0777C27.5588 22.5059 27.1419 21.6575 26.9243 21.3366C26.8321 21.2001 26.6808 20.9787 26.596 20.8496C26.3304 20.4549 25.6479 19.6581 25.3233 19.3667C24.9249 19.0052 24.2277 18.4703 23.9437 18.308C23.8219 18.2379 23.6818 18.142 23.6301 18.094C23.5785 18.0461 23.3387 17.9059 23.0952 17.7805C22.8518 17.655 22.612 17.5222 22.5603 17.489C22.4681 17.4263 22.3574 17.3894 22.125 17.3526C22.055 17.3415 21.9922 17.3083 21.9812 17.2825C21.9701 17.253 21.9111 17.2308 21.8447 17.2308C21.782 17.2271 21.6898 17.205 21.6381 17.1755C21.5865 17.146 21.5016 17.1238 21.45 17.1202C21.3946 17.1202 21.3319 17.0943 21.3061 17.0648C21.2766 17.0316 21.1991 17.0095 21.0995 17.0095C21.0147 17.0095 20.9188 16.9874 20.893 16.9615C20.8339 16.9062 20.1478 16.7882 19.8674 16.7882C19.7457 16.7845 19.635 16.7623 19.5945 16.7328C19.4875 16.6517 17.6062 16.6553 17.4697 16.7328ZM10.778 62.1615C11.4752 63.9174 12.0581 65.3819 12.0765 65.4188C12.095 65.4704 12.2093 65.2196 12.5044 64.467L12.9028 63.4489L12.0138 61.2319C11.5269 60.0109 11.1358 59.0001 11.1469 58.9817C11.158 58.9669 11.6449 58.9522 12.2278 58.9522C13.0356 58.9522 13.3012 58.9632 13.327 58.9964C13.3492 59.0222 13.5004 59.3911 13.6701 59.819C13.8398 60.2433 13.9874 60.6048 14.0021 60.6232C14.0132 60.638 14.1755 60.2728 14.3599 59.8117L14.6956 58.9706L15.7875 58.9595C16.5069 58.9558 16.8794 58.9632 16.8794 58.989C16.8794 59.0075 16.4884 60.0072 16.0052 61.2098C15.5256 62.4086 15.1346 63.4083 15.1346 63.4342C15.1346 63.4932 15.8982 65.4446 15.924 65.4446C15.9351 65.4446 16.5142 64.0059 17.2114 62.2426C17.9086 60.483 18.4952 59.0222 18.5136 58.9964C18.5394 58.9632 18.805 58.9522 19.6129 58.9522C20.1958 58.9522 20.6827 58.9632 20.6901 58.978C20.7011 58.9964 19.9043 61.0216 18.9194 63.4821L17.1303 67.953L15.913 67.9457L14.6956 67.9346L14.3599 67.0935C14.1755 66.6324 14.0169 66.2562 14.0058 66.2562C13.9947 66.2562 13.8361 66.6361 13.6517 67.0972L13.3197 67.9346L12.1171 67.9457C11.1801 67.953 10.9034 67.942 10.8776 67.9088C10.8149 67.8276 7.29571 58.9927 7.31785 58.9706C7.32891 58.9595 7.82691 58.9558 8.42451 58.9595L9.51273 58.9706L10.778 62.1615ZM29.2335 58.989C29.3626 59.0112 29.536 59.0628 29.6172 59.1034C29.8422 59.2214 30.1115 59.4907 30.2222 59.7231L30.3254 59.9297V63.4526V66.9755L30.2222 67.1821C30.1115 67.4145 29.8422 67.6838 29.6135 67.8018C29.3294 67.9457 29.0712 67.9567 26.3193 67.9457L23.6854 67.9346L23.4567 67.8276C23.169 67.6948 22.8591 67.3813 22.7595 67.123C22.6931 66.946 22.6894 66.8058 22.6894 63.4526C22.6894 59.476 22.6636 59.7748 23.0178 59.3985C23.2354 59.1735 23.4936 59.0259 23.7592 58.989C24.0543 58.9448 28.9642 58.9485 29.2335 58.989ZM39.2304 58.989C39.3595 59.0112 39.5329 59.0628 39.6141 59.1034C39.8391 59.2214 40.1084 59.4907 40.219 59.7231L40.3223 59.9297V60.9626C40.3223 61.9475 40.3186 62.0029 40.2412 62.1726C40.0936 62.4935 39.7579 62.7886 39.4001 62.9177C39.3411 62.9362 39.3595 62.9546 39.5145 63.0136C39.8649 63.1464 40.1748 63.4858 40.2818 63.8621C40.3334 64.0391 40.3408 64.3195 40.3334 65.9979L40.3223 67.9346H39.3632H38.4041L38.393 65.8946L38.3857 63.8584H36.5043H34.623L34.6156 65.8946L34.6046 67.9346H33.6454H32.6863L32.6753 63.4895C32.6716 61.0438 32.6753 59.0222 32.6863 58.9964C32.7085 58.9374 38.8615 58.93 39.2304 58.989ZM44.6199 61.7299L44.6383 64.4892L46.575 61.8221C47.6411 60.3576 48.5522 59.1108 48.5965 59.0554L48.685 58.9522H49.8802C50.7029 58.9522 51.0754 58.9632 51.0754 58.9927C51.0754 59.0149 50.3524 60.0256 49.4671 61.243L47.8587 63.4526L49.4671 65.6622C50.3524 66.8796 51.0754 67.8903 51.0754 67.9125C51.0754 67.942 50.7029 67.953 49.8766 67.953H48.6777L48.5412 67.776C48.4637 67.6764 48.0026 67.0456 47.5157 66.3742C46.9328 65.5737 46.6193 65.1679 46.5934 65.1901C46.575 65.2085 46.1176 65.8356 45.579 66.5808L44.6014 67.9346H43.6423H42.6832L42.6722 63.4895C42.6685 61.0438 42.6722 59.0222 42.6832 58.9964C42.6943 58.9595 42.9082 58.9522 43.6497 58.9595L44.6014 58.9706L44.6199 61.7299ZM55.373 63.4526V67.9346H54.4139H53.4548L53.4437 63.4895C53.44 61.0438 53.4437 59.0222 53.4548 58.9964C53.4658 58.9595 53.6798 58.9522 54.4213 58.9595L55.373 58.9706V63.4526ZM64.7428 59.8744V60.7782L62.2085 60.7892L59.6706 60.7966V61.4053V62.0139L62.2085 62.0213L64.7428 62.0324V62.9362V63.8399L62.2085 63.851L59.6706 63.8584L59.6632 65.8983L59.6521 67.9346H58.693H57.7339V63.9506C57.7339 59.4096 57.7081 59.7748 58.0622 59.3985C58.2798 59.1735 58.5381 59.0259 58.8037 58.989C58.9033 58.9743 60.2829 58.9632 61.8654 58.9669L64.7428 58.9706V59.8744ZM70.5122 60.3355C71.0655 61.0954 71.5303 61.7262 71.5414 61.7336C71.5562 61.741 72.0246 61.1175 72.5817 60.3502L73.5961 58.9522H74.8061C75.4774 58.9522 76.0123 58.9669 76.0123 58.9854C76.0123 59.0038 75.234 60.0994 74.2785 61.42L72.5448 63.8252L72.5374 65.8799L72.5263 67.9346H71.5672H70.6081L70.597 65.8946L70.5897 63.851L68.8411 61.4311C67.8783 60.0994 67.1 58.9964 67.1074 58.9817C67.1184 58.9632 67.6607 58.9522 68.3173 58.9522H69.5051L70.5122 60.3355Z" fill="white"/>
<path d="M24.626 63.4526V66.1086H26.5073H28.3886V63.4526V60.7966H26.5073H24.626V63.4526Z" fill="white"/>
<path d="M34.623 61.4052V62.0139H36.5044H38.3857V61.4052V60.7966H36.5044H34.623V61.4052Z" fill="white"/>
<path d="M41.3733 33.7718C41.3622 33.7792 41.211 33.805 41.0339 33.8271C40.2002 33.9267 39.4108 34.4542 38.9866 35.1994C38.7358 35.6421 38.5993 36.0995 38.5808 36.5864C38.5624 36.9701 38.5698 37.0254 38.6767 37.3943C38.828 37.8997 39.0272 38.2796 39.3075 38.6006C39.4698 38.785 39.5252 38.8735 39.5141 38.9326C39.503 38.9768 39.4698 39.1723 39.4366 39.3642C39.4034 39.556 39.3592 39.7626 39.337 39.8253C39.2854 39.9765 39.2301 40.2458 38.994 41.4853C38.9202 41.8689 38.7726 42.651 38.662 43.219C38.271 45.2406 38.1308 45.9894 38.0902 46.2255C38.0644 46.3583 37.998 46.7124 37.9353 47.0186C37.7988 47.6974 37.8025 48.022 37.9537 48.3097C38.0238 48.4462 38.4296 48.8741 39.4809 49.9181C40.6835 51.1133 40.9343 51.3457 41.0598 51.3826C41.1557 51.4084 41.3327 51.4121 41.5651 51.3936C41.8676 51.3715 41.9451 51.3494 42.0631 51.2682C42.266 51.1243 44.8482 48.5237 44.9663 48.3429C45.029 48.2433 45.0733 48.1179 45.088 47.9925C45.1102 47.7785 45.0142 47.0444 44.9368 46.8231C44.9073 46.7456 44.8741 46.5944 44.863 46.4837C44.8482 46.373 44.804 46.1222 44.7671 45.9304C44.7265 45.7386 44.6454 45.307 44.5826 44.9713C44.5199 44.6356 44.4388 44.2114 44.3982 44.0306C44.2949 43.54 44.2138 43.1305 44.1584 42.7874C44.1326 42.6178 44.0846 42.3743 44.0551 42.2415C44.0219 42.1087 43.9629 41.8173 43.9223 41.5959C43.8412 41.157 43.653 40.1425 43.5682 39.6962C43.5387 39.5449 43.4944 39.3346 43.4723 39.235C43.3801 38.8108 43.3727 38.844 43.6383 38.5526C44.1178 38.0325 44.4498 37.0734 44.365 36.4647C44.2101 35.3912 43.642 34.5428 42.7862 34.1112C42.5538 33.9968 42.0558 33.8493 41.7791 33.8161C41.6684 33.8013 41.5356 33.7829 41.484 33.7718C41.4323 33.7607 41.3807 33.7607 41.3733 33.7718ZM41.8639 35.9446C42.1627 36.1216 42.2992 36.354 42.2992 36.6897C42.2992 36.9295 42.207 37.125 42.0041 37.3094C41.5467 37.7226 40.7978 37.4828 40.6355 36.8631C40.5359 36.4794 40.7942 36.022 41.1926 35.8708C41.3733 35.8044 41.6795 35.8376 41.8639 35.9446ZM41.484 40.3343C41.484 40.4007 41.5098 40.5557 41.543 40.6737C41.5762 40.7954 41.6168 40.9983 41.6352 41.1274C41.6537 41.2566 41.6942 41.4078 41.7238 41.4668C41.7533 41.5258 41.7791 41.6365 41.7791 41.714C41.7791 41.9058 41.9562 42.8354 42.041 43.101C42.0816 43.2154 42.1111 43.3666 42.1111 43.4367C42.1111 43.5068 42.1406 43.717 42.1812 43.9052C42.2181 44.097 42.2623 44.3331 42.2771 44.429C42.2882 44.5286 42.325 44.6762 42.3546 44.761C42.3841 44.8458 42.4246 45.0487 42.4468 45.211C42.4874 45.5615 42.5685 45.9931 42.6607 46.373C42.7382 46.6755 42.7972 46.9891 42.8341 47.2842L42.8599 47.476L42.1812 48.1695C41.8086 48.5495 41.5024 48.863 41.4987 48.863C41.495 48.863 41.1741 48.5532 40.7831 48.1732L40.0748 47.4834L40.0933 47.3432C40.1043 47.2658 40.1338 47.1034 40.156 46.9817C40.274 46.3583 40.3441 45.9525 40.3958 45.6205C40.429 45.4213 40.488 45.1225 40.5249 44.9565C40.5654 44.7905 40.5986 44.6171 40.5986 44.5655C40.5986 44.5138 40.6245 44.4253 40.654 44.3663C40.6835 44.311 40.7093 44.2114 40.7093 44.145C40.7093 44.0822 40.7278 43.9568 40.7499 43.8646C40.772 43.7724 40.8126 43.5658 40.8421 43.4035C40.8716 43.2412 40.9122 43.0235 40.9306 42.9239C40.9491 42.8206 40.9897 42.5919 41.0192 42.4149C41.0487 42.2341 41.1003 41.9611 41.1298 41.8062C41.1594 41.6513 41.1926 41.4299 41.2073 41.3193C41.2184 41.2086 41.2479 41.0942 41.2737 41.0684C41.3143 41.0168 41.3549 40.8028 41.3954 40.3897C41.4213 40.1683 41.484 40.1278 41.484 40.3343Z" fill="white"/>
</svg>
